G04 ================== begin FILE IDENTIFICATION RECORD ==================*
G04 Layout Name:  METO_STM_CRY_V0_33.brd*
G04 Film Name:    Meto_stm_cry_v0_0SST*
G04 File Format:  Gerber RS274X*
G04 File Origin:  Cadence Allegro 17.2-P019*
G04 Origin Date:  Wed Mar 30 13:31:51 2022*
G04 *
G04 Layer:  BOARD GEOMETRY/SILKSCREEN_TOP*
G04 Layer:  PACKAGE GEOMETRY/SILKSCREEN_TOP*
G04 Layer:  REF DES/SILKSCREEN_TOP*
G04 *
G04 Offset:    (0.000 0.000)*
G04 Mirror:    No*
G04 Mode:      Positive*
G04 Rotation:  0*
G04 FullContactRelief:  No*
G04 UndefLineWidth:     1.000*
G04 ================== end FILE IDENTIFICATION RECORD ====================*
%FSLAX25Y25*MOIN*%
%IR0*IPPOS*OFA0.00000B0.00000*MIA0B0*SFA1.00000B1.00000*%
%ADD10C,.005*%
%ADD11C,.006*%
%ADD12C,.008*%
%ADD13C,.003937*%
%ADD14C,.007874*%
%ADD15C,.01*%
%ADD16C,.001*%
%ADD17C,.015748*%
G75*
%LPD*%
G75*
G36*
G01X63300Y139100D02*
Y137100D01*
X60800D01*
X59300Y135600D01*
X58300D01*
X56800Y134100D01*
Y133100D01*
X56300Y132600D01*
Y132100D01*
X55800Y131600D01*
Y127600D01*
X56300Y127100D01*
Y126600D01*
X56800Y126100D01*
Y125600D01*
X57800Y124600D01*
Y124100D01*
X59300Y122600D01*
X60300D01*
X60800Y122100D01*
X63300D01*
Y120100D01*
X59800D01*
X59300Y120600D01*
X58300D01*
X54300Y124600D01*
Y126100D01*
X53800Y126600D01*
Y133100D01*
X54800Y134100D01*
Y134600D01*
X58800Y138600D01*
X62800D01*
X63300Y139100D01*
G37*
G36*
G01X80800D02*
Y136600D01*
X77800D01*
X77300Y136100D01*
X76800D01*
X73300Y132600D01*
Y130600D01*
X78300D01*
Y128600D01*
X73300D01*
Y126600D01*
X73800Y126100D01*
Y125100D01*
X76300Y122600D01*
X77300D01*
X77800Y122100D01*
X80800D01*
Y120100D01*
X76800D01*
X75800Y121100D01*
X74800D01*
X71300Y124600D01*
Y125600D01*
X70800Y126100D01*
Y132600D01*
X71300Y133100D01*
Y134100D01*
X75300Y138100D01*
X75800D01*
X76300Y138600D01*
X77800D01*
X78300Y139100D01*
X80800D01*
G37*
G54D10*
G01X51181Y-347086D02*
X3937D01*
Y-268346D01*
X51181D01*
Y-347086D01*
G01Y-256378D02*
X3937D01*
Y-177638D01*
X51181D01*
Y-256378D01*
G01Y-165669D02*
X3937D01*
Y-86929D01*
X51181D01*
Y-165669D01*
G01Y-74961D02*
X3937D01*
Y3780D01*
X51181D01*
Y-74961D01*
G01Y15748D02*
X3937D01*
Y94488D01*
X51181D01*
Y15748D01*
G01X153228Y-358267D02*
Y-405511D01*
X74488D01*
Y-358267D01*
X153228D01*
G01X142913Y-10075D02*
X148425D01*
Y-6335D01*
G01X142913Y2201D02*
X148425D01*
Y-1539D01*
G01X243936Y-358267D02*
Y-405511D01*
X165196D01*
Y-358267D01*
X243936D01*
G01X232283Y-3937D02*
G03I-23622J0D01*
G01X191929Y105512D02*
Y96260D01*
G01Y138779D02*
Y152559D01*
X233267D01*
Y138779D01*
G01X334645Y-358267D02*
Y-405511D01*
X255905D01*
Y-358267D01*
X334645D01*
G01X733862Y-198986D02*
Y-204498D01*
X737602D01*
G01X746138Y-198986D02*
Y-204498D01*
X742398D01*
G01X799526Y114409D02*
X791022D01*
G01Y121811D02*
X799526D01*
G01X816662Y-198786D02*
Y-204298D01*
X820402D01*
G01X814959Y70866D02*
X812990D01*
Y118110D01*
X814959D01*
G01X828938Y-198786D02*
Y-204298D01*
X825198D01*
G01X868843Y-72567D02*
X853489D01*
G01Y-53039D02*
X868843D01*
G01X854329Y70866D02*
X856298D01*
Y118110D01*
X854329D01*
G01X905510Y-242204D02*
X921258D01*
G01X905510Y-222362D02*
X921258D01*
G01X953384Y68880D02*
X950392D01*
G01X953384Y79903D02*
X950392D01*
G01X995667Y-302283D02*
Y-309822D01*
X1014092D01*
G01X995667Y-288267D02*
Y-280728D01*
X1014092D01*
G01X995667Y-235275D02*
Y-242814D01*
X1014092D01*
G01X995667Y-221259D02*
Y-213720D01*
X1014092D01*
G01X995667Y-168267D02*
Y-175807D01*
X1014092D01*
G01X995667Y-154252D02*
Y-146712D01*
X1014092D01*
G01X995667Y-101260D02*
Y-108799D01*
X1014092D01*
G01X995667Y-87244D02*
Y-79704D01*
X1014092D01*
G01X1029683Y-280728D02*
X1066533D01*
Y-309822D01*
X1029604D01*
G01X1029683Y-213720D02*
X1066533D01*
Y-242814D01*
X1029604D01*
G01X1029683Y-146712D02*
X1066533D01*
Y-175807D01*
X1029604D01*
G01X1029683Y-79704D02*
X1066533D01*
Y-108799D01*
X1029604D01*
G54D11*
G01X105769Y114063D02*
Y122157D01*
G01X100825Y114063D02*
Y122157D01*
G01X118000Y-2472D02*
X126094D01*
G01X118000Y2472D02*
X126094D01*
G01X140217Y114063D02*
Y122157D01*
G01X135273Y114063D02*
Y122157D01*
G01X188528Y-37912D02*
Y-46006D01*
G01X193472Y-37912D02*
Y-46006D01*
G01X189028Y50394D02*
Y58488D01*
G01X193972Y50394D02*
Y58488D01*
G01X187980Y71940D02*
X206740D01*
G01Y64260D02*
X187980D01*
G01D02*
Y71940D01*
G01X215200Y-53500D02*
X201800D01*
G01D02*
Y-51500D01*
G01D02*
X200850Y-50550D01*
G01D02*
X201800Y-49600D01*
G01D02*
Y-47300D01*
G01D02*
X215200D01*
G01D02*
Y-53500D01*
G01X213971Y-36972D02*
X205877D01*
G01X213971Y-41916D02*
X205877D01*
G01X200728Y50394D02*
Y58488D01*
G01X205672Y50394D02*
Y58488D01*
G01X206740Y71940D02*
Y64260D01*
G01X235388Y-334128D02*
X227294D01*
G01X235388Y-339072D02*
X227294D01*
G01X235388Y-316628D02*
X227294D01*
G01X235388Y-321572D02*
X227294D01*
G01X224299Y72331D02*
X232393D01*
G01X224299Y77275D02*
X232393D01*
G01X250612Y110972D02*
X258706D01*
G01X250612Y106028D02*
X258706D01*
G01X294181Y-4306D02*
X304243D01*
G01X294181Y2804D02*
X304243D01*
G01X295165Y24947D02*
X303259D01*
G01X295165Y16347D02*
X303259D01*
G01X295165Y11403D02*
X303259D01*
G01X295165Y43435D02*
X303259D01*
G01X295165Y38491D02*
X303259D01*
G01X295165Y29891D02*
X303259D01*
G01X295165Y56979D02*
X303259D01*
G01X295165Y52035D02*
X303259D01*
G01X295165Y70523D02*
X303259D01*
G01X295165Y65579D02*
X303259D01*
G01X294181Y79122D02*
X304243D01*
G01X294181Y86232D02*
X304243D01*
G01X703300Y-208642D02*
X689900D01*
G01D02*
Y-206642D01*
G01D02*
X688950Y-205692D01*
G01D02*
X689900Y-204742D01*
G01D02*
Y-202442D01*
G01D02*
X703300D01*
G01D02*
Y-208642D01*
G01X715424Y-334317D02*
X723518D01*
G01X715424Y-329373D02*
X723518D01*
G01X737194Y-186072D02*
X745288D01*
G01X737194Y-181128D02*
X745288D01*
G01X775098Y-334317D02*
X783192D01*
G01X775098Y-329373D02*
X783192D01*
G01X786400Y-208642D02*
X773000D01*
G01D02*
Y-206642D01*
G01D02*
X772050Y-205692D01*
G01D02*
X773000Y-204742D01*
G01D02*
Y-202442D01*
G01D02*
X786400D01*
G01D02*
Y-208642D01*
G01X795164Y-62138D02*
X803258D01*
G01X795164Y-75682D02*
X803258D01*
G01X795164Y-70738D02*
X803258D01*
G01X795164Y-48594D02*
X803258D01*
G01X795164Y-57194D02*
X803258D01*
G01X795164Y-43650D02*
X803258D01*
G01X794180Y-35051D02*
X804242D01*
G01X794180Y-27941D02*
X804242D01*
G01X818685Y-1863D02*
X798435D01*
G01D02*
X796235Y337D01*
G01X798285Y10087D02*
X795985Y7787D01*
G01X791227Y25087D02*
X799321D01*
G01X818585Y10137D02*
X798285D01*
G01D02*
Y10087D01*
G01X791227Y30031D02*
X799321D01*
G01X790243Y43689D02*
X800305D01*
G01X790243Y50799D02*
X800305D01*
G01X801906Y77244D02*
X787118D01*
G01X801906Y68756D02*
X787118D01*
G01X819994Y-186072D02*
X828088D01*
G01X819994Y-181128D02*
X828088D01*
G01X877894Y-247572D02*
X885988D01*
G01X877894Y-242628D02*
X885988D01*
G01X877994Y-237172D02*
X886088D01*
G01X877994Y-232228D02*
X886088D01*
G01X877994Y-227272D02*
X886088D01*
G01X877994Y-222328D02*
X886088D01*
G01X885510Y-10000D02*
Y-20000D01*
X925510D01*
Y-10000D01*
G01X885510Y10000D02*
Y20300D01*
X925510D01*
Y10000D01*
G01X885199Y68903D02*
X902299D01*
G01X885199Y80703D02*
X902299D01*
G01X885715Y95953D02*
X893809D01*
G01X885715Y100897D02*
X893809D01*
G01X898064Y-63584D02*
Y-71678D01*
G01X903008Y-63584D02*
Y-71678D01*
G01X898064Y-46560D02*
Y-54654D01*
G01X903008Y-46560D02*
Y-54654D01*
G01X905510Y5000D02*
G02Y-5000I0J-5000D01*
G02Y5000I0J5000D01*
G01X913864Y-295582D02*
X928652D01*
G01X928188Y-302128D02*
X920094D01*
G01X928188Y-307072D02*
X920094D01*
G01X913864Y-287094D02*
X928652D01*
G01X909412Y-272772D02*
X917506D01*
G01X909412Y-267828D02*
X917506D01*
G01X917431Y-206189D02*
X909337D01*
G01X917431Y-211133D02*
X909337D01*
G01X911371Y-69212D02*
X919465D01*
G01X911371Y-64268D02*
X919465D01*
G01X910487Y-51784D02*
X920549D01*
G01X910487Y-44674D02*
X920549D01*
G01X929022Y-187511D02*
X937116D01*
G01X928038Y-200405D02*
X938100D01*
G01X928038Y-193295D02*
X938100D01*
G01X929022Y-182567D02*
X937116D01*
G01X956211Y-228039D02*
X941423D01*
G01X956211Y-236527D02*
X941423D01*
G01X956211Y-212291D02*
X941423D01*
G01X956211Y-220779D02*
X941423D01*
G01X960388Y91188D02*
X943288D01*
G01X960388Y102988D02*
X943288D01*
G01X956919Y112587D02*
X946857D01*
G01X956919Y119696D02*
X946857D01*
G01X965045Y-299519D02*
X979833D01*
G01X965045Y-291031D02*
X979833D01*
G01X967500Y-274200D02*
Y-276300D01*
G01D02*
X966700Y-277100D01*
G01D02*
X967500Y-277900D01*
G01D02*
Y-280400D01*
G01D02*
X980900D01*
G01Y-274200D02*
X967500D01*
G01X980800Y-260100D02*
X967400D01*
G01D02*
Y-262400D01*
G01D02*
X966450Y-263350D01*
G01D02*
X967400Y-264300D01*
G01D02*
Y-266300D01*
G01D02*
X980800D01*
G01X965045Y-232590D02*
X979833D01*
G01X965045Y-224102D02*
X979833D01*
G01X965045Y-165661D02*
X979833D01*
G01X965045Y-157173D02*
X979833D01*
G01X965045Y-98732D02*
X979833D01*
G01X965045Y-90244D02*
X979833D01*
G01X961263Y7000D02*
X962013Y7750D01*
G01D02*
Y7800D01*
G01D02*
X980013D01*
G01Y-7800D02*
X962063D01*
G01D02*
X961263Y-7000D01*
G01Y42433D02*
X962013Y43183D01*
G01D02*
Y43233D01*
G01D02*
X980013D01*
G01Y27633D02*
X962063D01*
G01D02*
X961263Y28433D01*
G01X980900Y-280400D02*
Y-278100D01*
G01D02*
X981850Y-277150D01*
G01D02*
X980900Y-276200D01*
G01D02*
Y-274200D01*
G01X980800Y-266300D02*
Y-264200D01*
G01D02*
X981600Y-263400D01*
G01D02*
X980800Y-262600D01*
G01D02*
Y-260100D01*
G01X1010935Y55490D02*
X996148D01*
G01X1010935Y63978D02*
X996148D01*
G01X1010935Y79064D02*
X996148D01*
G01X1010935Y70576D02*
X996148D01*
G01X1010935Y94150D02*
X996148D01*
G01X1010935Y85662D02*
X996148D01*
G01X1010935Y109236D02*
X996148D01*
G01X1010935Y100748D02*
X996148D01*
G01X1010935Y124322D02*
X996148D01*
G01X1010935Y115834D02*
X996148D01*
G01X1018153Y-58612D02*
X1026247D01*
G01X1018153Y-53668D02*
X1026247D01*
G01X1018153Y-43772D02*
X1026247D01*
G01X1018153Y-38828D02*
X1026247D01*
G54D12*
G01X94114Y-314271D02*
G02Y-339271I0J-12500D01*
G02Y-314271I0J12500D01*
G01X137421D02*
G02Y-339271I0J-12500D01*
G02Y-314271I0J12500D01*
G01X275589Y-97310D02*
Y-87310D01*
G01X335589Y-109810D02*
X275589D01*
G01D02*
Y-97310D01*
G01Y-87310D02*
X335589D01*
G01X336168Y-51558D02*
X276168D01*
G01D02*
Y-39058D01*
G01D02*
Y-29058D01*
G01D02*
X336168D01*
G01X283300Y147200D02*
Y98200D01*
G01D02*
X274300D01*
G01D02*
Y147200D01*
G01X279800D02*
X283300D01*
G01X274300D02*
X279800D01*
G01X335589Y-87310D02*
Y-109810D01*
G01X336168Y-29058D02*
Y-51558D01*
G01X395029Y-406789D02*
X346029D01*
G01D02*
Y-357189D01*
G01X394929Y-394789D02*
X346129D01*
G01X346002Y-357027D02*
X395002D01*
G01X373289Y-340745D02*
G02Y-315745I0J12500D01*
G02Y-340745I0J-12500D01*
G01X454829Y-406789D02*
X405829D01*
G01D02*
Y-357189D01*
G01X395029Y-406789D02*
Y-357189D01*
G01X454729Y-394789D02*
X405929D01*
G01X405802Y-357027D02*
X454802D01*
G01X428407Y-340745D02*
G02Y-315745I0J12500D01*
G02Y-340745I0J-12500D01*
G01X454829Y-406789D02*
Y-357189D01*
G01X514629Y-406789D02*
X465629D01*
G01D02*
Y-357189D01*
G01X514529Y-394789D02*
X465729D01*
G01X465602Y-357027D02*
X514602D01*
G01X491399Y-340745D02*
G02Y-315745I0J12500D01*
G02Y-340745I0J-12500D01*
G01X514629Y-406789D02*
Y-357189D01*
G01X574429Y-406789D02*
X525429D01*
G01D02*
Y-357189D01*
G01X574329Y-394789D02*
X525529D01*
G01X525402Y-357027D02*
X574402D01*
G01X546517Y-340745D02*
G02Y-315745I0J12500D01*
G02Y-340745I0J-12500D01*
G01X634229Y-406789D02*
X585229D01*
G01D02*
Y-357189D01*
G01X574429Y-406789D02*
Y-357189D01*
G01X634129Y-394789D02*
X585329D01*
G01X585202Y-357027D02*
X634202D01*
G01X609509Y-340745D02*
G02Y-315745I0J12500D01*
G02Y-340745I0J-12500D01*
G01X634229Y-406789D02*
Y-357189D01*
G01X694029Y-406789D02*
X645029D01*
G01D02*
Y-357189D01*
G01X693929Y-394789D02*
X645129D01*
G01X645002Y-357027D02*
X694002D01*
G01X668564Y-340745D02*
G02Y-315745I0J12500D01*
G02Y-340745I0J-12500D01*
G01X694029Y-406789D02*
Y-357189D01*
G01X753829Y-406789D02*
X704829D01*
G01D02*
Y-357189D01*
G01X753729Y-394789D02*
X704929D01*
G01X704802Y-357027D02*
X753802D01*
G01X753829Y-406789D02*
Y-357189D01*
G01X813629Y-406789D02*
X764629D01*
G01D02*
Y-357189D01*
G01X813529Y-394789D02*
X764729D01*
G01X764602Y-357027D02*
X813602D01*
G01X813629Y-406789D02*
Y-357189D01*
G01X873429Y-406789D02*
X824429D01*
G01D02*
Y-357189D01*
G01X873329Y-394789D02*
X824529D01*
G01X824402Y-357027D02*
X873402D01*
G01X846829Y-339445D02*
G02Y-314445I0J12500D01*
G02Y-339445I0J-12500D01*
G01X891223Y127595D02*
X861223D01*
G01D02*
Y150095D01*
G01D02*
X891223D01*
G01X873429Y-406789D02*
Y-357189D01*
G01X933229Y-406789D02*
X884229D01*
G01D02*
Y-357189D01*
G01X933129Y-394789D02*
X884329D01*
G01X884202Y-357027D02*
X933202D01*
G01X909521Y-341145D02*
G02Y-316145I0J12500D01*
G02Y-341145I0J-12500D01*
G01X931884Y127595D02*
X901884D01*
G01D02*
Y150095D01*
G01X891223Y137595D02*
Y127595D01*
G01X901884Y150095D02*
X931884D01*
G01X891223D02*
Y137595D01*
G01X933229Y-406789D02*
Y-357189D01*
G01X931884Y137595D02*
Y127595D01*
G01Y150095D02*
Y137595D01*
G01X993029Y-406789D02*
X944029D01*
G01D02*
Y-357189D01*
G01X992929Y-394789D02*
X944129D01*
G01X944002Y-357027D02*
X993002D01*
G01X968876Y-341245D02*
G02Y-316245I0J12500D01*
G02Y-341245I0J-12500D01*
G01X993029Y-406789D02*
Y-357189D01*
G01X1015858Y-6397D02*
Y42603D01*
G01X1065620Y-6370D02*
X1016020D01*
G01X1065620Y42630D02*
X1016020D01*
G01X1053620Y42530D02*
Y-6270D01*
G01X1065620Y42630D02*
Y-6370D01*
G54D13*
G01X101000Y128800D02*
X105500D01*
Y138500D01*
X105000Y139000D01*
X101500D01*
X100900Y138400D01*
Y128900D01*
X101000Y128800D01*
G01X135495Y128858D02*
X139995D01*
Y138558D01*
X139495Y139058D01*
X135995D01*
X135395Y138458D01*
Y128958D01*
X135495Y128858D01*
G01X398542Y-235807D02*
Y-34822D01*
G01X418385Y-235807D02*
X398542D01*
G01Y-34822D02*
X418385D01*
G01D02*
Y-235807D01*
G01X638700D02*
Y-34822D01*
G01X658542Y-235807D02*
X638700D01*
G01Y-34822D02*
X658542D01*
G01D02*
Y-235807D01*
G01X686534Y-310629D02*
Y-233858D01*
G01X746534Y-310629D02*
X686534D01*
G01Y-233858D02*
X746534D01*
G01X730619Y-329595D02*
Y-334095D01*
G01X740319D02*
X740819Y-333595D01*
Y-330095D01*
X740219Y-329495D01*
X730719D01*
X730619Y-329595D01*
G01X746534Y-233858D02*
Y-310629D01*
G01X769211D02*
Y-233858D01*
G01X829211Y-310629D02*
X769211D01*
G01Y-233858D02*
X829211D01*
G01X790219Y-334095D02*
X799919D01*
X800419Y-333595D01*
Y-330095D01*
X799819Y-329495D01*
X790319D01*
X790219Y-329595D01*
G01X829211Y-233858D02*
Y-310629D01*
G01X1031765Y-54040D02*
Y-58540D01*
X1041465D01*
X1041965Y-58040D01*
Y-54540D01*
X1041365Y-53940D01*
X1031865D01*
X1031765Y-54040D01*
G01X1031900Y-39200D02*
Y-43700D01*
X1041600D01*
X1042100Y-43200D01*
Y-39700D01*
X1041500Y-39100D01*
X1032000D01*
X1031900Y-39200D01*
G54D14*
G01X55512Y-337244D02*
G03I-394J0D01*
G01Y-246535D02*
G03I-394J0D01*
G01Y-155827D02*
G03I-394J0D01*
G01Y-65118D02*
G03I-394J0D01*
G01Y25590D02*
G03I-394J0D01*
G01X143779Y-354330D02*
G03I-394J0D01*
G01X140945Y2756D02*
G03I-394J0D01*
G01X190354Y136811D02*
G03I-394J0D01*
G01X234488Y-354330D02*
G03I-394J0D01*
G01X325196D02*
G03I-394J0D01*
G01X747087Y-196624D02*
G03I-394J0D01*
G01X829887Y-196424D02*
G03I-394J0D01*
G01X896278Y-222460D02*
G03I-394J0D01*
G01X963305Y74391D02*
G03I-394J0D01*
G01X990943Y-302362D02*
G03I-394J0D01*
G01Y-235354D02*
G03I-394J0D01*
G01Y-168346D02*
G03I-394J0D01*
G01Y-101338D02*
G03I-394J0D01*
G54D15*
G01X56870Y132720D02*
X56710Y132410D01*
G01D02*
X56570Y132100D01*
G01D02*
X56450Y131780D01*
G01D02*
X56340Y131450D01*
G01D02*
X56240Y131110D01*
G01D02*
X56160Y130770D01*
G01D02*
X56100Y130420D01*
G01D02*
X56050Y130070D01*
G01D02*
X56030Y129710D01*
G01D02*
X56020Y129350D01*
G01D02*
X56030Y128980D01*
G01D02*
X56050Y128630D01*
G01D02*
X56100Y128270D01*
G01D02*
X56160Y127920D01*
G01D02*
X56240Y127580D01*
G01D02*
X56340Y127250D01*
G01D02*
X56450Y126920D01*
G01D02*
X56570Y126600D01*
G01D02*
X56710Y126280D01*
G01D02*
X56870Y125980D01*
G01X56950Y121240D02*
X56570Y121540D01*
G01D02*
X56210Y121860D01*
G01D02*
X55850Y122190D01*
G01D02*
X55520Y122540D01*
G01D02*
X55200Y122910D01*
G01D02*
X54900Y123290D01*
G01D02*
X54620Y123690D01*
G01D02*
X54350Y124100D01*
G01D02*
X54110Y124530D01*
G01D02*
X53880Y124960D01*
G01D02*
X53680Y125410D01*
G01D02*
X53500Y125870D01*
G01D02*
X53340Y126340D01*
G01D02*
X53200Y126820D01*
G01D02*
X53090Y127310D01*
G01D02*
X53000Y127810D01*
G01D02*
X52940Y128320D01*
G01D02*
X52900Y128830D01*
G01D02*
X52880Y129350D01*
G01D02*
X52900Y129870D01*
G01D02*
X52940Y130390D01*
G01D02*
X53000Y130900D01*
G01D02*
X53090Y131390D01*
G01D02*
X53200Y131890D01*
G01D02*
X53340Y132370D01*
G01D02*
X53500Y132840D01*
G01D02*
X53670Y133300D01*
G01D02*
X53880Y133760D01*
G01D02*
X54100Y134190D01*
G01D02*
X54340Y134620D01*
G01D02*
X54610Y135030D01*
G01D02*
X54890Y135430D01*
G01D02*
X55180Y135810D01*
G01D02*
X55500Y136180D01*
G01D02*
X55830Y136530D01*
G01D02*
X56180Y136870D01*
G01D02*
X56550Y137190D01*
G01D02*
X56930Y137490D01*
G01X73390Y127820D02*
X73450Y127520D01*
G01D02*
X73530Y127230D01*
G01D02*
X73630Y126950D01*
G01D02*
X73730Y126670D01*
G01D02*
X73850Y126390D01*
G01D02*
X73980Y126120D01*
G01D02*
X74120Y125860D01*
G01D02*
X74270Y125610D01*
G01D02*
X74430Y125360D01*
G01D02*
X74600Y125120D01*
G01X74870Y120670D02*
X74460Y120930D01*
G01D02*
X74060Y121220D01*
G01D02*
X73680Y121520D01*
G01D02*
X73320Y121840D01*
G01D02*
X72970Y122180D01*
G01D02*
X72630Y122530D01*
G01D02*
X72320Y122900D01*
G01D02*
X72020Y123280D01*
G01D02*
X71750Y123680D01*
G01D02*
X71480Y124090D01*
G01D02*
X71240Y124520D01*
G01D02*
X71020Y124960D01*
G01D02*
X70820Y125410D01*
G01D02*
X70650Y125870D01*
G01D02*
X70490Y126340D01*
G01D02*
X70360Y126820D01*
G01D02*
X70250Y127310D01*
G01D02*
X70160Y127810D01*
G01D02*
X70100Y128320D01*
G01D02*
X70060Y128830D01*
G01D02*
X70050Y129350D01*
G01D02*
X70060Y129870D01*
G01D02*
X70100Y130390D01*
G01D02*
X70170Y130900D01*
G01D02*
X70250Y131390D01*
G01D02*
X70370Y131890D01*
G01D02*
X70500Y132370D01*
G01D02*
X70670Y132840D01*
G01D02*
X70850Y133300D01*
G01D02*
X71050Y133750D01*
G01X74300Y133090D02*
X74150Y132830D01*
G01D02*
X74010Y132570D01*
G01D02*
X73880Y132300D01*
G01D02*
X73760Y132030D01*
G01D02*
X73650Y131750D01*
G01D02*
X73550Y131460D01*
G01D02*
X73470Y131180D01*
G01D02*
X73400Y130880D01*
G01D02*
X79240D01*
G01Y127830D02*
X73390Y127820D01*
G01X57420Y133580D02*
X57220Y133300D01*
G01D02*
X57040Y133010D01*
G01D02*
X56870Y132720D01*
G01Y125980D02*
X57040Y125680D01*
G01D02*
X57220Y125400D01*
G01D02*
X57420Y125120D01*
G01D02*
X57640Y124850D01*
G01D02*
X57860Y124600D01*
G01D02*
X58090Y124350D01*
G01D02*
X58330Y124120D01*
G01D02*
X58590Y123890D01*
G01D02*
X58860Y123690D01*
G01D02*
X59140Y123490D01*
G01D02*
X59420Y123300D01*
G01D02*
X59720Y123130D01*
G01D02*
X60030Y122980D01*
G01D02*
X60340Y122840D01*
G01D02*
X60660Y122710D01*
G01D02*
X60990Y122600D01*
G01D02*
X61330Y122500D01*
G01D02*
X61670Y122420D01*
G01D02*
X62010Y122360D01*
G01D02*
X62370Y122320D01*
G01D02*
X62730Y122290D01*
G01D02*
X63100Y122280D01*
G01D02*
X63160D01*
G01D02*
X63220D01*
G01D02*
X63280D01*
G01D02*
X63340Y122290D01*
G01D02*
X63400D01*
G01D02*
X63460D01*
G01D02*
X63520D01*
G01D02*
X63580Y122300D01*
G01D02*
X63640D01*
G01D02*
X63700D01*
G01D02*
X63760Y122310D01*
G01D02*
X63820Y122320D01*
G01D02*
X63880D01*
G01D02*
X63940Y122330D01*
G01D02*
X64000Y122340D01*
G01D02*
X64060D01*
G01D02*
Y119270D01*
G01D02*
X63990D01*
G01D02*
X63920Y119260D01*
G01D02*
X63860D01*
G01D02*
X63800Y119250D01*
G01D02*
X63740D01*
G01D02*
X63670D01*
G01D02*
X63600Y119240D01*
G01D02*
X63540Y119230D01*
G01D02*
X63480D01*
G01D02*
X63410D01*
G01D02*
X63350D01*
G01D02*
X63280D01*
G01D02*
X63220Y119220D01*
G01D02*
X63150D01*
G01D02*
X63080D01*
G01D02*
X63020D01*
G01D02*
X62500Y119230D01*
G01D02*
X61990Y119270D01*
G01D02*
X61480Y119340D01*
G01D02*
X60980Y119430D01*
G01D02*
X60490Y119540D01*
G01D02*
X60010Y119680D01*
G01D02*
X59530Y119840D01*
G01D02*
X59080Y120020D01*
G01D02*
X58620Y120220D01*
G01D02*
X58190Y120450D01*
G01D02*
X57770Y120690D01*
G01D02*
X57360Y120960D01*
G01D02*
X56950Y121240D01*
G01X71050Y133750D02*
X71280Y134180D01*
G01D02*
X71530Y134610D01*
G01D02*
X71790Y135020D01*
G01D02*
X72080Y135420D01*
G01D02*
X72380Y135800D01*
G01D02*
X72700Y136170D01*
G01D02*
X73040Y136520D01*
G01D02*
X73390Y136850D01*
G01D02*
X73760Y137170D01*
G01D02*
X74150Y137480D01*
G01D02*
X74550Y137760D01*
G01X74630Y133570D02*
X74460Y133330D01*
G01D02*
X74300Y133090D01*
G01X64060Y136360D02*
X64000D01*
G01D02*
X63950Y136370D01*
G01D02*
X63880Y136380D01*
G01D02*
X63830D01*
G01D02*
X63760Y136390D01*
G01D02*
X63710Y136400D01*
G01D02*
X63640D01*
G01D02*
X63580D01*
G01D02*
X63520Y136410D01*
G01D02*
X63460D01*
G01D02*
X63400D01*
G01D02*
X63340D01*
G01D02*
X63280Y136420D01*
G01D02*
X63220D01*
G01D02*
X63160D01*
G01D02*
X63100D01*
G01D02*
X62730Y136410D01*
G01D02*
X62370Y136380D01*
G01D02*
X62010Y136340D01*
G01D02*
X61670Y136280D01*
G01D02*
X61330Y136200D01*
G01D02*
X60990Y136100D01*
G01D02*
X60660Y135990D01*
G01D02*
X60340Y135870D01*
G01D02*
X60030Y135720D01*
G01D02*
X59720Y135570D01*
G01D02*
X59420Y135400D01*
G01D02*
X59140Y135210D01*
G01D02*
X58860Y135010D01*
G01D02*
X58590Y134800D01*
G01D02*
X58330Y134580D01*
G01D02*
X58090Y134350D01*
G01D02*
X57860Y134100D01*
G01D02*
X57640Y133850D01*
G01D02*
X57420Y133580D01*
G01X56930Y137490D02*
X57330Y137780D01*
G01D02*
X57740Y138040D01*
G01D02*
X58160Y138290D01*
G01D02*
X58600Y138510D01*
G01D02*
X59040Y138720D01*
G01D02*
X59500Y138900D01*
G01D02*
X59970Y139060D01*
G01D02*
X60450Y139200D01*
G01D02*
X60940Y139310D01*
G01D02*
X61440Y139400D01*
G01D02*
X61950Y139470D01*
G01D02*
X62460Y139510D01*
G01D02*
X62980Y139520D01*
G01D02*
X63050D01*
G01D02*
X63110D01*
G01D02*
X63180Y139510D01*
G01D02*
X63250D01*
G01D02*
X63320D01*
G01D02*
X63390Y139500D01*
G01D02*
X63460D01*
G01D02*
X63520Y139490D01*
G01D02*
X63590Y139480D01*
G01D02*
X63660D01*
G01D02*
X63730Y139470D01*
G01D02*
X63800D01*
G01D02*
X63870Y139460D01*
G01D02*
X63930Y139450D01*
G01D02*
X64000Y139440D01*
G01D02*
X64060D01*
G01D02*
Y136360D01*
G01X74600Y125120D02*
X74790Y124890D01*
G01D02*
X74980Y124670D01*
G01D02*
X75180Y124450D01*
G01D02*
X75380Y124240D01*
G01D02*
X75600Y124040D01*
G01D02*
X75820Y123850D01*
G01D02*
X76060Y123670D01*
G01D02*
X76300Y123500D01*
G01D02*
X76540Y123340D01*
G01D02*
X76800Y123190D01*
G01D02*
X77060Y123050D01*
G01D02*
X77330Y122920D01*
G01D02*
X77600Y122800D01*
G01D02*
X77890Y122700D01*
G01D02*
X78170Y122600D01*
G01D02*
X78460Y122520D01*
G01D02*
X78750Y122450D01*
G01D02*
X79060Y122390D01*
G01D02*
X79360Y122340D01*
G01D02*
X79680Y122310D01*
G01D02*
X79990Y122290D01*
G01D02*
X80300Y122280D01*
G01D02*
X80370D01*
G01D02*
X80430D01*
G01D02*
X80490D01*
G01D02*
X80550Y122290D01*
G01D02*
X80610D01*
G01D02*
X80670D01*
G01D02*
X80730D01*
G01D02*
X80800Y122300D01*
G01D02*
X80850D01*
G01D02*
X80920D01*
G01D02*
X80970Y122310D01*
G01D02*
X81040Y122320D01*
G01D02*
X81090D01*
G01D02*
X81150Y122330D01*
G01D02*
X81210Y122340D01*
G01D02*
X81270D01*
G01D02*
Y119270D01*
G01D02*
X81210D01*
G01D02*
X81140Y119260D01*
G01D02*
X81080Y119250D01*
G01D02*
X81010D01*
G01D02*
X80940Y119240D01*
G01D02*
X80860Y119230D01*
G01D02*
X80800D01*
G01D02*
X80730Y119220D01*
G01D02*
X80650D01*
G01D02*
X80580Y119210D01*
G01D02*
X80520D01*
G01D02*
X80440Y119200D01*
G01D02*
X80370D01*
G01D02*
X80300Y119190D01*
G01D02*
X80240D01*
G01D02*
X80170D01*
G01D02*
X79640Y119210D01*
G01D02*
X79110Y119250D01*
G01D02*
X78600Y119310D01*
G01D02*
X78100Y119400D01*
G01D02*
X77600Y119510D01*
G01D02*
X77110Y119650D01*
G01D02*
X76640Y119810D01*
G01D02*
X76180Y119990D01*
G01D02*
X75730Y120200D01*
G01D02*
X75290Y120420D01*
G01D02*
X74870Y120670D01*
G01X79240Y130880D02*
Y127830D01*
G01X74550Y137760D02*
X74960Y138020D01*
G01D02*
X75390Y138270D01*
G01D02*
X75830Y138490D01*
G01D02*
X76280Y138700D01*
G01D02*
X76740Y138870D01*
G01D02*
X77220Y139030D01*
G01D02*
X77700Y139170D01*
G01D02*
X78190Y139280D01*
G01D02*
X78690Y139380D01*
G01D02*
X79190Y139440D01*
G01D02*
X79720Y139480D01*
G01D02*
X80240Y139490D01*
G01D02*
X80300D01*
G01D02*
X80370D01*
G01D02*
X80440D01*
G01D02*
X80510Y139480D01*
G01D02*
X80580D01*
G01D02*
X80650D01*
G01D02*
X80720D01*
G01D02*
X80800D01*
G01D02*
X80860Y139470D01*
G01D02*
X80940D01*
G01D02*
X81010D01*
G01D02*
X81080Y139460D01*
G01D02*
X81150D01*
G01D02*
X81220Y139450D01*
G01D02*
X81290Y139440D01*
G01D02*
X81350D01*
G01D02*
X81340Y136280D01*
G01D02*
X81280Y136290D01*
G01D02*
X81220D01*
G01D02*
X81160Y136310D01*
G01D02*
X81090Y136320D01*
G01D02*
X81020Y136330D01*
G01D02*
X80960Y136340D01*
G01D02*
X80890Y136350D01*
G01D02*
X80820Y136370D01*
G01D02*
X80760D01*
G01D02*
X80690Y136380D01*
G01D02*
X80620Y136400D01*
G01D02*
X80560D01*
G01D02*
X80490Y136410D01*
G01D02*
X80430D01*
G01D02*
X80370Y136420D01*
G01D02*
X80300D01*
G01D02*
X79990Y136410D01*
G01D02*
X79680Y136390D01*
G01D02*
X79370Y136360D01*
G01D02*
X79060Y136310D01*
G01D02*
X78770Y136250D01*
G01D02*
X78470Y136180D01*
G01D02*
X78180Y136090D01*
G01D02*
X77900Y136000D01*
G01D02*
X77620Y135890D01*
G01D02*
X77350Y135770D01*
G01D02*
X77080Y135640D01*
G01D02*
X76820Y135510D01*
G01D02*
X76560Y135350D01*
G01D02*
X76320Y135190D01*
G01D02*
X76080Y135020D01*
G01D02*
X75850Y134840D01*
G01D02*
X75620Y134650D01*
G01D02*
X75410Y134450D01*
G01D02*
X75200Y134240D01*
G01D02*
X75000Y134020D01*
G01D02*
X74810Y133800D01*
G01D02*
X74630Y133570D01*
G54D16*
G01X5880Y-267356D02*
X6190Y-267164D01*
X6397Y-266934D01*
X6500Y-266666D01*
X6397Y-266359D01*
X6190Y-266129D01*
X5880Y-265899D01*
X5467Y-265822D01*
X3400D01*
G01X6500Y-263489D02*
X3400D01*
X4020Y-263949D01*
G01X6500D02*
Y-263029D01*
G01X5208Y-261118D02*
X4846Y-260849D01*
X4640Y-260619D01*
X4537Y-260312D01*
X4640Y-260044D01*
X4846Y-259852D01*
X5157Y-259699D01*
X5518Y-259661D01*
X5828Y-259699D01*
X6138Y-259852D01*
X6397Y-260083D01*
X6500Y-260351D01*
X6397Y-260658D01*
X6087Y-260926D01*
X5622Y-261079D01*
X5105Y-261118D01*
X4433Y-261041D01*
X4072Y-260926D01*
X3710Y-260734D01*
X3452Y-260466D01*
X3400Y-260198D01*
X3503Y-259929D01*
X3762Y-259738D01*
G01X6780Y-176247D02*
X7090Y-176056D01*
X7297Y-175826D01*
X7400Y-175557D01*
X7297Y-175251D01*
X7090Y-175021D01*
X6780Y-174791D01*
X6367Y-174714D01*
X4300D01*
G01X7400Y-172381D02*
X4300D01*
X4920Y-172841D01*
G01X7400D02*
Y-171921D01*
G01X6780Y-170124D02*
X7142Y-169894D01*
X7348Y-169587D01*
X7400Y-169242D01*
X7348Y-168936D01*
X7090Y-168629D01*
X6780Y-168437D01*
X6470Y-168399D01*
X6108Y-168476D01*
X5850Y-168744D01*
X5746Y-169012D01*
Y-169357D01*
G01Y-169012D02*
X5592Y-168782D01*
X5333Y-168591D01*
X5023Y-168514D01*
X4713Y-168591D01*
X4455Y-168782D01*
X4300Y-169127D01*
X4352Y-169472D01*
X4558Y-169817D01*
G01X6180Y-86739D02*
X6490Y-86547D01*
X6697Y-86317D01*
X6800Y-86049D01*
X6697Y-85742D01*
X6490Y-85512D01*
X6180Y-85282D01*
X5767Y-85205D01*
X3700D01*
G01X6800Y-82872D02*
X3700D01*
X4320Y-83332D01*
G01X6800D02*
Y-82412D01*
G01X3700Y-79772D02*
X3803Y-80079D01*
X4062Y-80309D01*
X4372Y-80462D01*
X4785Y-80577D01*
X5250Y-80615D01*
X5715Y-80577D01*
X6128Y-80462D01*
X6438Y-80309D01*
X6697Y-80079D01*
X6800Y-79772D01*
X6697Y-79465D01*
X6438Y-79235D01*
X6128Y-79082D01*
X5715Y-78967D01*
X5250Y-78929D01*
X4785Y-78967D01*
X4372Y-79082D01*
X4062Y-79235D01*
X3803Y-79465D01*
X3700Y-79772D01*
G01X6080Y6470D02*
X6390Y6662D01*
X6597Y6892D01*
X6700Y7160D01*
X6597Y7467D01*
X6390Y7697D01*
X6080Y7927D01*
X5667Y8003D01*
X3600D01*
G01X6700Y10337D02*
X6648Y10605D01*
X6493Y10912D01*
X6235Y11103D01*
X5873Y11180D01*
X5512Y11103D01*
X5202Y10873D01*
X5046Y10528D01*
Y10145D01*
X4943Y9915D01*
X4685Y9723D01*
X4323Y9647D01*
X3962Y9762D01*
X3703Y10030D01*
X3600Y10337D01*
X3703Y10643D01*
X3962Y10912D01*
X4323Y11027D01*
X4685Y10950D01*
X4943Y10758D01*
X5046Y10528D01*
Y10145D01*
X5202Y9800D01*
X5512Y9570D01*
X5873Y9493D01*
X6235Y9570D01*
X6493Y9762D01*
X6648Y10068D01*
X6700Y10337D01*
G01X7580Y96178D02*
X7890Y96370D01*
X8097Y96600D01*
X8200Y96868D01*
X8097Y97175D01*
X7890Y97405D01*
X7580Y97635D01*
X7167Y97712D01*
X5100D01*
G01X7735Y99202D02*
X7993Y99432D01*
X8148Y99700D01*
X8200Y100045D01*
X8097Y100390D01*
X7890Y100658D01*
X7528Y100850D01*
X7115Y100888D01*
X6702Y100812D01*
X6443Y100620D01*
X6237Y100352D01*
X6185Y100084D01*
X6237Y99815D01*
X6443Y99470D01*
X5100Y99585D01*
Y100620D01*
G01X63403Y-403532D02*
X63594Y-403842D01*
X63824Y-404049D01*
X64093Y-404152D01*
X64399Y-404049D01*
X64629Y-403842D01*
X64859Y-403532D01*
X64936Y-403119D01*
Y-401052D01*
G01X66541Y-401569D02*
X66771Y-401259D01*
X67039Y-401104D01*
X67346Y-401052D01*
X67729Y-401155D01*
X67998Y-401414D01*
X68074Y-401724D01*
X68036Y-402034D01*
X67883Y-402292D01*
X67116Y-402809D01*
X66771Y-403170D01*
X66541Y-403687D01*
X66464Y-404152D01*
X68074D01*
G01X70369Y-401052D02*
X70063Y-401155D01*
X69833Y-401414D01*
X69679Y-401724D01*
X69564Y-402137D01*
X69526Y-402602D01*
X69564Y-403067D01*
X69679Y-403480D01*
X69833Y-403790D01*
X70063Y-404049D01*
X70369Y-404152D01*
X70676Y-404049D01*
X70906Y-403790D01*
X71059Y-403480D01*
X71174Y-403067D01*
X71213Y-402602D01*
X71174Y-402137D01*
X71059Y-401724D01*
X70906Y-401414D01*
X70676Y-401155D01*
X70369Y-401052D01*
G01X58000Y-336873D02*
Y-333327D01*
X65500Y-336873D01*
Y-333327D01*
G01X59250Y-329373D02*
X58500Y-328813D01*
X58125Y-328160D01*
X58000Y-327413D01*
X58250Y-326480D01*
X58875Y-325827D01*
X59625Y-325640D01*
X60375Y-325733D01*
X61000Y-326107D01*
X62250Y-327973D01*
X63125Y-328813D01*
X64375Y-329373D01*
X65500Y-329560D01*
Y-325640D01*
G01X68000Y-322900D02*
Y-317300D01*
G01X65500Y-315027D02*
X58000D01*
X64250Y-312600D01*
X58000Y-310173D01*
X65500D01*
G01Y-305100D02*
X65375Y-305847D01*
X64875Y-306500D01*
X64125Y-307060D01*
X63250Y-307433D01*
X62250Y-307620D01*
X61250D01*
X60250Y-307433D01*
X59375Y-307060D01*
X58625Y-306500D01*
X58125Y-305847D01*
X58000Y-305100D01*
X58125Y-304353D01*
X58625Y-303700D01*
X59375Y-303140D01*
X60250Y-302767D01*
X61250Y-302580D01*
X62250D01*
X63250Y-302767D01*
X64125Y-303140D01*
X64875Y-303700D01*
X65375Y-304353D01*
X65500Y-305100D01*
G01X58000Y-297600D02*
X65500D01*
G01X58000Y-299747D02*
Y-295453D01*
G01X65500Y-290100D02*
X65375Y-290847D01*
X64875Y-291500D01*
X64125Y-292060D01*
X63250Y-292433D01*
X62250Y-292620D01*
X61250D01*
X60250Y-292433D01*
X59375Y-292060D01*
X58625Y-291500D01*
X58125Y-290847D01*
X58000Y-290100D01*
X58125Y-289353D01*
X58625Y-288700D01*
X59375Y-288140D01*
X60250Y-287767D01*
X61250Y-287580D01*
X62250D01*
X63250Y-287767D01*
X64125Y-288140D01*
X64875Y-288700D01*
X65375Y-289353D01*
X65500Y-290100D01*
G01Y-284467D02*
X58000D01*
Y-282133D01*
X58375Y-281387D01*
X58875Y-280920D01*
X59875Y-280733D01*
X60875Y-280920D01*
X61500Y-281480D01*
X61875Y-282133D01*
Y-284467D01*
G01Y-282133D02*
X65500Y-280733D01*
G01X66000Y-244360D02*
X58500Y-240440D01*
G01Y-244360D02*
X66000Y-240440D01*
G01X59750Y-236673D02*
X59000Y-236113D01*
X58625Y-235460D01*
X58500Y-234713D01*
X58750Y-233780D01*
X59375Y-233127D01*
X60125Y-232940D01*
X60875Y-233033D01*
X61500Y-233407D01*
X62750Y-235273D01*
X63625Y-236113D01*
X64875Y-236673D01*
X66000Y-236860D01*
Y-232940D01*
G01X68500Y-230200D02*
Y-224600D01*
G01X66000Y-222327D02*
X58500D01*
X64750Y-219900D01*
X58500Y-217473D01*
X66000D01*
G01Y-212400D02*
X65875Y-213147D01*
X65375Y-213800D01*
X64625Y-214360D01*
X63750Y-214733D01*
X62750Y-214920D01*
X61750D01*
X60750Y-214733D01*
X59875Y-214360D01*
X59125Y-213800D01*
X58625Y-213147D01*
X58500Y-212400D01*
X58625Y-211653D01*
X59125Y-211000D01*
X59875Y-210440D01*
X60750Y-210067D01*
X61750Y-209880D01*
X62750D01*
X63750Y-210067D01*
X64625Y-210440D01*
X65375Y-211000D01*
X65875Y-211653D01*
X66000Y-212400D01*
G01X58500Y-204900D02*
X66000D01*
G01X58500Y-207047D02*
Y-202753D01*
G01X66000Y-197400D02*
X65875Y-198147D01*
X65375Y-198800D01*
X64625Y-199360D01*
X63750Y-199733D01*
X62750Y-199920D01*
X61750D01*
X60750Y-199733D01*
X59875Y-199360D01*
X59125Y-198800D01*
X58625Y-198147D01*
X58500Y-197400D01*
X58625Y-196653D01*
X59125Y-196000D01*
X59875Y-195440D01*
X60750Y-195067D01*
X61750Y-194880D01*
X62750D01*
X63750Y-195067D01*
X64625Y-195440D01*
X65375Y-196000D01*
X65875Y-196653D01*
X66000Y-197400D01*
G01Y-191767D02*
X58500D01*
Y-189433D01*
X58875Y-188687D01*
X59375Y-188220D01*
X60375Y-188033D01*
X61375Y-188220D01*
X62000Y-188780D01*
X62375Y-189433D01*
Y-191767D01*
G01Y-189433D02*
X66000Y-188033D01*
G01X58500Y-155673D02*
Y-152127D01*
X66000Y-155673D01*
Y-152127D01*
G01Y-146400D02*
X58500D01*
X60000Y-147520D01*
G01X66000D02*
Y-145280D01*
G01X68500Y-141700D02*
Y-136100D01*
G01X66000Y-133827D02*
X58500D01*
X64750Y-131400D01*
X58500Y-128973D01*
X66000D01*
G01Y-123900D02*
X65875Y-124647D01*
X65375Y-125300D01*
X64625Y-125860D01*
X63750Y-126233D01*
X62750Y-126420D01*
X61750D01*
X60750Y-126233D01*
X59875Y-125860D01*
X59125Y-125300D01*
X58625Y-124647D01*
X58500Y-123900D01*
X58625Y-123153D01*
X59125Y-122500D01*
X59875Y-121940D01*
X60750Y-121567D01*
X61750Y-121380D01*
X62750D01*
X63750Y-121567D01*
X64625Y-121940D01*
X65375Y-122500D01*
X65875Y-123153D01*
X66000Y-123900D01*
G01X58500Y-116400D02*
X66000D01*
G01X58500Y-118547D02*
Y-114253D01*
G01X66000Y-108900D02*
X65875Y-109647D01*
X65375Y-110300D01*
X64625Y-110860D01*
X63750Y-111233D01*
X62750Y-111420D01*
X61750D01*
X60750Y-111233D01*
X59875Y-110860D01*
X59125Y-110300D01*
X58625Y-109647D01*
X58500Y-108900D01*
X58625Y-108153D01*
X59125Y-107500D01*
X59875Y-106940D01*
X60750Y-106567D01*
X61750Y-106380D01*
X62750D01*
X63750Y-106567D01*
X64625Y-106940D01*
X65375Y-107500D01*
X65875Y-108153D01*
X66000Y-108900D01*
G01Y-103267D02*
X58500D01*
Y-100933D01*
X58875Y-100187D01*
X59375Y-99720D01*
X60375Y-99533D01*
X61375Y-99720D01*
X62000Y-100280D01*
X62375Y-100933D01*
Y-103267D01*
G01Y-100933D02*
X66000Y-99533D01*
G01Y-61200D02*
X62625D01*
X58500Y-63067D01*
G01Y-59333D02*
X62625Y-61200D01*
G01X68500Y-56500D02*
Y-50900D01*
G01X66000Y-48627D02*
X58500D01*
X64750Y-46200D01*
X58500Y-43773D01*
X66000D01*
G01Y-38700D02*
X65875Y-39447D01*
X65375Y-40100D01*
X64625Y-40660D01*
X63750Y-41033D01*
X62750Y-41220D01*
X61750D01*
X60750Y-41033D01*
X59875Y-40660D01*
X59125Y-40100D01*
X58625Y-39447D01*
X58500Y-38700D01*
X58625Y-37953D01*
X59125Y-37300D01*
X59875Y-36740D01*
X60750Y-36367D01*
X61750Y-36180D01*
X62750D01*
X63750Y-36367D01*
X64625Y-36740D01*
X65375Y-37300D01*
X65875Y-37953D01*
X66000Y-38700D01*
G01X58500Y-31200D02*
X66000D01*
G01X58500Y-33347D02*
Y-29053D01*
G01X66000Y-23700D02*
X65875Y-24447D01*
X65375Y-25100D01*
X64625Y-25660D01*
X63750Y-26033D01*
X62750Y-26220D01*
X61750D01*
X60750Y-26033D01*
X59875Y-25660D01*
X59125Y-25100D01*
X58625Y-24447D01*
X58500Y-23700D01*
X58625Y-22953D01*
X59125Y-22300D01*
X59875Y-21740D01*
X60750Y-21367D01*
X61750Y-21180D01*
X62750D01*
X63750Y-21367D01*
X64625Y-21740D01*
X65375Y-22300D01*
X65875Y-22953D01*
X66000Y-23700D01*
G01Y-18067D02*
X58500D01*
Y-15733D01*
X58875Y-14987D01*
X59375Y-14520D01*
X60375Y-14333D01*
X61375Y-14520D01*
X62000Y-15080D01*
X62375Y-15733D01*
Y-18067D01*
G01Y-15733D02*
X66000Y-14333D01*
G01X66800Y27540D02*
X59300Y31460D01*
G01Y27540D02*
X66800Y31460D01*
G01Y37000D02*
X59300D01*
X60800Y35880D01*
G01X66800D02*
Y38120D01*
G01X69300Y41700D02*
Y47300D01*
G01X66800Y49573D02*
X59300D01*
X65550Y52000D01*
X59300Y54427D01*
X66800D01*
G01Y59500D02*
X66675Y58753D01*
X66175Y58100D01*
X65425Y57540D01*
X64550Y57167D01*
X63550Y56980D01*
X62550D01*
X61550Y57167D01*
X60675Y57540D01*
X59925Y58100D01*
X59425Y58753D01*
X59300Y59500D01*
X59425Y60247D01*
X59925Y60900D01*
X60675Y61460D01*
X61550Y61833D01*
X62550Y62020D01*
X63550D01*
X64550Y61833D01*
X65425Y61460D01*
X66175Y60900D01*
X66675Y60247D01*
X66800Y59500D01*
G01X59300Y67000D02*
X66800D01*
G01X59300Y64853D02*
Y69147D01*
G01X66800Y74500D02*
X66675Y73753D01*
X66175Y73100D01*
X65425Y72540D01*
X64550Y72167D01*
X63550Y71980D01*
X62550D01*
X61550Y72167D01*
X60675Y72540D01*
X59925Y73100D01*
X59425Y73753D01*
X59300Y74500D01*
X59425Y75247D01*
X59925Y75900D01*
X60675Y76460D01*
X61550Y76833D01*
X62550Y77020D01*
X63550D01*
X64550Y76833D01*
X65425Y76460D01*
X66175Y75900D01*
X66675Y75247D01*
X66800Y74500D01*
G01Y80133D02*
X59300D01*
Y82467D01*
X59675Y83213D01*
X60175Y83680D01*
X61175Y83867D01*
X62175Y83680D01*
X62800Y83120D01*
X63175Y82467D01*
Y80133D01*
G01Y82467D02*
X66800Y83867D01*
G01X91667Y-353600D02*
X87933D01*
Y-346100D01*
X91667D01*
G01X90173Y-349725D02*
X87933D01*
G01X95153Y-353600D02*
Y-346100D01*
X99447Y-353600D01*
Y-346100D01*
G01X106853Y-346725D02*
X106293Y-346350D01*
X105640Y-346100D01*
X104893D01*
X104053Y-346475D01*
X103400Y-347100D01*
X102933Y-347850D01*
X102560Y-349100D01*
X102467Y-350225D01*
X102653Y-351350D01*
X102933Y-352100D01*
X103493Y-352850D01*
X104147Y-353350D01*
X104800Y-353600D01*
X105453D01*
X106107Y-353350D01*
X106667Y-352975D01*
X107133Y-352475D01*
G01X112300Y-353600D02*
X111553Y-353475D01*
X110900Y-352975D01*
X110340Y-352225D01*
X109967Y-351350D01*
X109780Y-350350D01*
Y-349350D01*
X109967Y-348350D01*
X110340Y-347475D01*
X110900Y-346725D01*
X111553Y-346225D01*
X112300Y-346100D01*
X113047Y-346225D01*
X113700Y-346725D01*
X114260Y-347475D01*
X114633Y-348350D01*
X114820Y-349350D01*
Y-350350D01*
X114633Y-351350D01*
X114260Y-352225D01*
X113700Y-352975D01*
X113047Y-353475D01*
X112300Y-353600D01*
G01X117747D02*
Y-346100D01*
X119613D01*
X120360Y-346475D01*
X120920Y-346975D01*
X121387Y-347725D01*
X121760Y-348600D01*
X121853Y-349850D01*
X121760Y-351100D01*
X121387Y-351975D01*
X120920Y-352725D01*
X120360Y-353225D01*
X119613Y-353600D01*
X117747D01*
G01X129167D02*
X125433D01*
Y-346100D01*
X129167D01*
G01X127673Y-349725D02*
X125433D01*
G01X132933Y-353600D02*
Y-346100D01*
X135267D01*
X136013Y-346475D01*
X136480Y-346975D01*
X136667Y-347975D01*
X136480Y-348975D01*
X135920Y-349600D01*
X135267Y-349975D01*
X132933D01*
G01X135267D02*
X136667Y-353600D01*
G01X88647Y-335034D02*
X90167D01*
G01X89344Y-333951D02*
Y-336118D01*
G01X88647Y-335034D02*
X90167D01*
G01X89344Y-333951D02*
Y-336118D01*
G01X88647Y-335034D02*
X90167D01*
G01X89344Y-333951D02*
Y-336118D01*
G01X88647Y-335034D02*
X90167D01*
G01X89344Y-333951D02*
Y-336118D01*
G01X92907Y-305929D02*
X92677Y-305774D01*
X92409Y-305671D01*
X92102D01*
X91757Y-305826D01*
X91489Y-306084D01*
X91297Y-306394D01*
X91144Y-306911D01*
X91106Y-307376D01*
X91182Y-307841D01*
X91297Y-308151D01*
X91527Y-308461D01*
X91796Y-308668D01*
X92064Y-308771D01*
X92332D01*
X92601Y-308668D01*
X92831Y-308513D01*
X93022Y-308306D01*
G01X94512Y-308409D02*
X94781Y-308668D01*
X95087Y-308771D01*
X95394Y-308668D01*
X95662Y-308358D01*
X95854Y-307893D01*
X95931Y-307428D01*
Y-306859D01*
X95854Y-306394D01*
X95662Y-305981D01*
X95432Y-305774D01*
X95164Y-305671D01*
X94857Y-305774D01*
X94627Y-305981D01*
X94474Y-306291D01*
X94397Y-306704D01*
X94474Y-307066D01*
X94666Y-307428D01*
X94896Y-307634D01*
X95164Y-307686D01*
X95471Y-307583D01*
X95701Y-307324D01*
X95931Y-306859D01*
G01X84692Y74986D02*
X84884Y74676D01*
X85114Y74469D01*
X85382Y74366D01*
X85688Y74469D01*
X85918Y74676D01*
X86148Y74986D01*
X86225Y75399D01*
Y77466D01*
G01X87830Y76949D02*
X88060Y77259D01*
X88328Y77414D01*
X88635Y77466D01*
X89018Y77363D01*
X89287Y77104D01*
X89364Y76794D01*
X89325Y76484D01*
X89172Y76226D01*
X88405Y75709D01*
X88060Y75348D01*
X87830Y74831D01*
X87754Y74366D01*
X89364D01*
G01X91659D02*
X91927Y74418D01*
X92234Y74573D01*
X92425Y74831D01*
X92502Y75193D01*
X92425Y75554D01*
X92195Y75864D01*
X91850Y76019D01*
X91467D01*
X91237Y76123D01*
X91045Y76381D01*
X90968Y76743D01*
X91084Y77104D01*
X91352Y77363D01*
X91659Y77466D01*
X91965Y77363D01*
X92234Y77104D01*
X92348Y76743D01*
X92272Y76381D01*
X92080Y76123D01*
X91850Y76019D01*
X91467D01*
X91122Y75864D01*
X90892Y75554D01*
X90815Y75193D01*
X90892Y74831D01*
X91084Y74573D01*
X91390Y74418D01*
X91659Y74366D01*
G01X93080Y-264700D02*
Y-249100D01*
X98150Y-262100D01*
X103220Y-249100D01*
Y-264700D01*
G01X119950D02*
X112150D01*
Y-249100D01*
X119950D01*
G01X116830Y-256640D02*
X112150D01*
G01X133950Y-249100D02*
Y-264700D01*
G01X129465Y-249100D02*
X138435D01*
G01X151850Y-264700D02*
X150290Y-264440D01*
X148925Y-263400D01*
X147755Y-261840D01*
X146975Y-260020D01*
X146585Y-257940D01*
Y-255860D01*
X146975Y-253780D01*
X147755Y-251960D01*
X148925Y-250400D01*
X150290Y-249360D01*
X151850Y-249100D01*
X153410Y-249360D01*
X154775Y-250400D01*
X155945Y-251960D01*
X156725Y-253780D01*
X157115Y-255860D01*
Y-257940D01*
X156725Y-260020D01*
X155945Y-261840D01*
X154775Y-263400D01*
X153410Y-264440D01*
X151850Y-264700D01*
G01X165655Y-262620D02*
X167215Y-263920D01*
X168970Y-264700D01*
X170530D01*
X172090Y-263920D01*
X173260Y-262620D01*
X173845Y-260800D01*
X173455Y-258980D01*
X172480Y-257420D01*
X170725Y-256380D01*
X168385Y-255860D01*
X167020Y-254820D01*
X166435Y-253000D01*
X166825Y-251180D01*
X167800Y-249880D01*
X169165Y-249100D01*
X170530D01*
X171895Y-249620D01*
X173065Y-250920D01*
G01X187650Y-264700D02*
X186090Y-264440D01*
X184725Y-263400D01*
X183555Y-261840D01*
X182775Y-260020D01*
X182385Y-257940D01*
Y-255860D01*
X182775Y-253780D01*
X183555Y-251960D01*
X184725Y-250400D01*
X186090Y-249360D01*
X187650Y-249100D01*
X189210Y-249360D01*
X190575Y-250400D01*
X191745Y-251960D01*
X192525Y-253780D01*
X192915Y-255860D01*
Y-257940D01*
X192525Y-260020D01*
X191745Y-261840D01*
X190575Y-263400D01*
X189210Y-264440D01*
X187650Y-264700D01*
G01X201845D02*
Y-249100D01*
X209255D01*
G01X206525Y-256640D02*
X201845D01*
G01X223450Y-249100D02*
Y-264700D01*
G01X218965Y-249100D02*
X227935D01*
G01X101220Y61693D02*
X100858Y61463D01*
X100652Y61157D01*
X100600Y60812D01*
X100652Y60505D01*
X100910Y60198D01*
X101220Y60007D01*
X101530Y59968D01*
X101892Y60045D01*
X102150Y60313D01*
X102253Y60582D01*
Y60927D01*
G01Y60582D02*
X102408Y60352D01*
X102667Y60160D01*
X102977Y60083D01*
X103287Y60160D01*
X103545Y60352D01*
X103700Y60697D01*
X103648Y61042D01*
X103442Y61387D01*
G01X100497Y57750D02*
X100548Y57827D01*
X100652D01*
X100703Y57750D01*
X100652Y57673D01*
X100548D01*
X100497Y57750D01*
G01X101220Y55493D02*
X100858Y55263D01*
X100652Y54957D01*
X100600Y54612D01*
X100652Y54305D01*
X100910Y53998D01*
X101220Y53807D01*
X101530Y53768D01*
X101892Y53845D01*
X102150Y54113D01*
X102253Y54382D01*
Y54727D01*
G01Y54382D02*
X102408Y54152D01*
X102667Y53960D01*
X102977Y53883D01*
X103287Y53960D01*
X103545Y54152D01*
X103700Y54497D01*
X103648Y54842D01*
X103442Y55187D01*
G01X103700Y52508D02*
X100600Y51550D01*
X103700Y50592D01*
G01X95669Y63386D02*
Y88189D01*
X139764D01*
Y63386D01*
X95669D01*
G01X102847Y91357D02*
X102692Y91510D01*
X102433Y91625D01*
X102072Y91702D01*
X101762Y91625D01*
X101555Y91472D01*
X101400Y91203D01*
Y90168D01*
X104500D01*
Y91433D01*
X104293Y91702D01*
X103983Y91855D01*
X103622Y91932D01*
X103260Y91855D01*
X102950Y91625D01*
X102847Y91357D01*
Y90168D01*
G01X101400Y93383D02*
X104500D01*
Y94917D01*
G01X105533Y96100D02*
Y98400D01*
G01X104500Y101117D02*
Y99583D01*
X101400D01*
Y101117D01*
G01X102898Y100503D02*
Y99583D01*
G01X104500Y102645D02*
X101400Y104255D01*
G01Y102645D02*
X104500Y104255D01*
G01X105533Y105400D02*
Y107700D01*
G01X104500Y110110D02*
X101400D01*
X103622Y108692D01*
Y110608D01*
G01X98250Y114289D02*
X95150D01*
Y115248D01*
X95305Y115554D01*
X95512Y115746D01*
X95925Y115823D01*
X96338Y115746D01*
X96597Y115516D01*
X96752Y115248D01*
Y114289D01*
G01Y115248D02*
X98250Y115823D01*
G01Y118156D02*
X95150D01*
X95770Y117696D01*
G01X98250D02*
Y118616D01*
G01Y121179D02*
X97578Y121256D01*
X97010Y121371D01*
X96493Y121524D01*
X95925Y121716D01*
X95150Y122023D01*
Y120489D01*
G01X98250Y131707D02*
X95150D01*
Y132473D01*
X95305Y132780D01*
X95512Y133010D01*
X95822Y133202D01*
X96183Y133355D01*
X96700Y133393D01*
X97217Y133355D01*
X97578Y133202D01*
X97888Y133010D01*
X98095Y132780D01*
X98250Y132473D01*
Y131707D01*
G01Y135573D02*
X97578Y135650D01*
X97010Y135765D01*
X96493Y135918D01*
X95925Y136110D01*
X95150Y136417D01*
Y134883D01*
G01X95983Y147600D02*
Y144500D01*
X97517D01*
G01X100617D02*
X99083D01*
Y147600D01*
X100617D01*
G01X100003Y146102D02*
X99083D01*
G01X102107Y144500D02*
Y147600D01*
X102873D01*
X103180Y147445D01*
X103410Y147238D01*
X103602Y146928D01*
X103755Y146567D01*
X103793Y146050D01*
X103755Y145533D01*
X103602Y145172D01*
X103410Y144862D01*
X103180Y144655D01*
X102873Y144500D01*
X102107D01*
G01X104900Y143467D02*
X107200D01*
G01X108422Y147083D02*
X108652Y147393D01*
X108920Y147548D01*
X109227Y147600D01*
X109610Y147497D01*
X109878Y147238D01*
X109955Y146928D01*
X109917Y146618D01*
X109763Y146360D01*
X108997Y145843D01*
X108652Y145482D01*
X108422Y144965D01*
X108345Y144500D01*
X109955D01*
G01X118726Y6347D02*
Y9447D01*
X119685D01*
X119991Y9292D01*
X120183Y9085D01*
X120260Y8672D01*
X120183Y8259D01*
X119953Y8000D01*
X119685Y7845D01*
X118726D01*
G01X119685D02*
X120260Y6347D01*
G01X122593D02*
Y9447D01*
X122133Y8827D01*
G01Y6347D02*
X123053D01*
G01X124850Y6812D02*
X125080Y6554D01*
X125348Y6399D01*
X125693Y6347D01*
X126038Y6450D01*
X126306Y6657D01*
X126498Y7019D01*
X126536Y7432D01*
X126460Y7845D01*
X126268Y8104D01*
X126000Y8310D01*
X125731Y8362D01*
X125463Y8310D01*
X125118Y8104D01*
X125233Y9447D01*
X126268D01*
G01X122353Y60043D02*
X122508Y59890D01*
X122767Y59775D01*
X123128Y59698D01*
X123438Y59775D01*
X123645Y59928D01*
X123800Y60197D01*
Y61232D01*
X120700D01*
Y59967D01*
X120907Y59698D01*
X121217Y59545D01*
X121578Y59468D01*
X121940Y59545D01*
X122250Y59775D01*
X122353Y60043D01*
Y61232D01*
G01X123800Y58017D02*
X120700D01*
Y56483D01*
G01X119667Y55300D02*
Y53000D01*
G01X120700Y50283D02*
Y51817D01*
X123800D01*
Y50283D01*
G01X122302Y50897D02*
Y51817D01*
G01X120700Y48755D02*
X123800Y47145D01*
G01Y48755D02*
X120700Y47145D01*
G01X119667Y46000D02*
Y43700D01*
G01X123283Y42478D02*
X123593Y42248D01*
X123748Y41980D01*
X123800Y41673D01*
X123697Y41290D01*
X123438Y41022D01*
X123128Y40945D01*
X122818Y40983D01*
X122560Y41137D01*
X122043Y41903D01*
X121682Y42248D01*
X121165Y42478D01*
X120700Y42555D01*
Y40945D01*
G01X112553Y60043D02*
X112708Y59890D01*
X112967Y59775D01*
X113328Y59698D01*
X113638Y59775D01*
X113845Y59928D01*
X114000Y60197D01*
Y61232D01*
X110900D01*
Y59967D01*
X111107Y59698D01*
X111417Y59545D01*
X111778Y59468D01*
X112140Y59545D01*
X112450Y59775D01*
X112553Y60043D01*
Y61232D01*
G01X114000Y58017D02*
X110900D01*
Y56483D01*
G01X109867Y55300D02*
Y53000D01*
G01X110900Y50283D02*
Y51817D01*
X114000D01*
Y50283D01*
G01X112502Y50897D02*
Y51817D01*
G01X110900Y48755D02*
X114000Y47145D01*
G01Y48755D02*
X110900Y47145D01*
G01X109867Y46000D02*
Y43700D01*
G01X110900Y41750D02*
X114000D01*
X113380Y42210D01*
G01X110900D02*
Y41290D01*
G01X122747Y91257D02*
X122592Y91410D01*
X122333Y91525D01*
X121972Y91602D01*
X121662Y91525D01*
X121455Y91372D01*
X121300Y91103D01*
Y90068D01*
X124400D01*
Y91333D01*
X124193Y91602D01*
X123883Y91755D01*
X123522Y91832D01*
X123160Y91755D01*
X122850Y91525D01*
X122747Y91257D01*
Y90068D01*
G01X121300Y93283D02*
X124400D01*
Y94817D01*
G01X125433Y96000D02*
Y98300D01*
G01X124400Y101017D02*
Y99483D01*
X121300D01*
Y101017D01*
G01X122798Y100403D02*
Y99483D01*
G01X124400Y102545D02*
X121300Y104155D01*
G01Y102545D02*
X124400Y104155D01*
G01X125433Y105300D02*
Y107600D01*
G01X123108Y108822D02*
X122747Y109090D01*
X122540Y109320D01*
X122437Y109627D01*
X122540Y109895D01*
X122747Y110087D01*
X123057Y110240D01*
X123418Y110278D01*
X123728Y110240D01*
X124038Y110087D01*
X124297Y109857D01*
X124400Y109588D01*
X124297Y109282D01*
X123987Y109013D01*
X123522Y108860D01*
X123005Y108822D01*
X122333Y108898D01*
X121972Y109013D01*
X121610Y109205D01*
X121352Y109473D01*
X121300Y109742D01*
X121403Y110010D01*
X121662Y110202D01*
G01X112547Y91157D02*
X112392Y91310D01*
X112133Y91425D01*
X111772Y91502D01*
X111462Y91425D01*
X111255Y91272D01*
X111100Y91003D01*
Y89968D01*
X114200D01*
Y91233D01*
X113993Y91502D01*
X113683Y91655D01*
X113322Y91732D01*
X112960Y91655D01*
X112650Y91425D01*
X112547Y91157D01*
Y89968D01*
G01X111100Y93183D02*
X114200D01*
Y94717D01*
G01X115233Y95900D02*
Y98200D01*
G01X114200Y100917D02*
Y99383D01*
X111100D01*
Y100917D01*
G01X112598Y100303D02*
Y99383D01*
G01X114200Y102445D02*
X111100Y104055D01*
G01Y102445D02*
X114200Y104055D01*
G01X115233Y105200D02*
Y107500D01*
G01X113735Y108607D02*
X113993Y108837D01*
X114148Y109105D01*
X114200Y109450D01*
X114097Y109795D01*
X113890Y110063D01*
X113528Y110255D01*
X113115Y110293D01*
X112702Y110217D01*
X112443Y110025D01*
X112237Y109757D01*
X112185Y109488D01*
X112237Y109220D01*
X112443Y108875D01*
X111100Y108990D01*
Y110025D01*
G01X131954Y-335034D02*
X133474D01*
G01X132651Y-333951D02*
Y-336118D01*
G01X131954Y-335034D02*
X133474D01*
G01X132651Y-333951D02*
Y-336118D01*
G01X131954Y-335034D02*
X133474D01*
G01X132651Y-333951D02*
Y-336118D01*
G01X131954Y-335034D02*
X133474D01*
G01X132651Y-333951D02*
Y-336118D01*
G01X135514Y-306429D02*
X135284Y-306274D01*
X135016Y-306171D01*
X134709D01*
X134364Y-306326D01*
X134096Y-306584D01*
X133904Y-306894D01*
X133751Y-307411D01*
X133713Y-307876D01*
X133789Y-308341D01*
X133904Y-308651D01*
X134134Y-308961D01*
X134403Y-309168D01*
X134671Y-309271D01*
X134939D01*
X135208Y-309168D01*
X135438Y-309013D01*
X135629Y-308806D01*
G01X137694Y-309271D02*
X137771Y-308599D01*
X137886Y-308031D01*
X138039Y-307514D01*
X138231Y-306946D01*
X138538Y-306171D01*
X137004D01*
G01X142461Y6537D02*
X142154Y6589D01*
X141886Y6795D01*
X141656Y7105D01*
X141502Y7467D01*
X141426Y7880D01*
Y8294D01*
X141502Y8707D01*
X141656Y9069D01*
X141886Y9379D01*
X142154Y9585D01*
X142461Y9637D01*
X142767Y9585D01*
X143036Y9379D01*
X143266Y9069D01*
X143419Y8707D01*
X143496Y8294D01*
Y7880D01*
X143419Y7467D01*
X143266Y7105D01*
X143036Y6795D01*
X142767Y6589D01*
X142461Y6537D01*
G01X142767Y7364D02*
X143227Y6537D01*
G01X144717Y7157D02*
X144947Y6795D01*
X145254Y6589D01*
X145599Y6537D01*
X145906Y6589D01*
X146212Y6847D01*
X146404Y7157D01*
X146442Y7467D01*
X146366Y7829D01*
X146097Y8087D01*
X145829Y8190D01*
X145484D01*
G01X145829D02*
X146059Y8345D01*
X146251Y8604D01*
X146327Y8914D01*
X146251Y9224D01*
X146059Y9482D01*
X145714Y9637D01*
X145369Y9585D01*
X145024Y9379D01*
G01X132553Y59943D02*
X132708Y59790D01*
X132967Y59675D01*
X133328Y59598D01*
X133638Y59675D01*
X133845Y59828D01*
X134000Y60097D01*
Y61132D01*
X130900D01*
Y59867D01*
X131107Y59598D01*
X131417Y59445D01*
X131778Y59368D01*
X132140Y59445D01*
X132450Y59675D01*
X132553Y59943D01*
Y61132D01*
G01X134000Y57917D02*
X130900D01*
Y56383D01*
G01X129867Y55200D02*
Y52900D01*
G01X130900Y50183D02*
Y51717D01*
X134000D01*
Y50183D01*
G01X132502Y50797D02*
Y51717D01*
G01X130900Y48655D02*
X134000Y47045D01*
G01Y48655D02*
X130900Y47045D01*
G01X129867Y45900D02*
Y43600D01*
G01X131520Y42493D02*
X131158Y42263D01*
X130952Y41957D01*
X130900Y41612D01*
X130952Y41305D01*
X131210Y40998D01*
X131520Y40807D01*
X131830Y40768D01*
X132192Y40845D01*
X132450Y41113D01*
X132553Y41382D01*
Y41727D01*
G01Y41382D02*
X132708Y41152D01*
X132967Y40960D01*
X133277Y40883D01*
X133587Y40960D01*
X133845Y41152D01*
X134000Y41497D01*
X133948Y41842D01*
X133742Y42187D01*
G01X133150Y91880D02*
Y92647D01*
X134080D01*
X134390Y92417D01*
X134597Y92148D01*
X134700Y91765D01*
X134597Y91382D01*
X134390Y91113D01*
X134080Y90883D01*
X133718Y90730D01*
X133305Y90653D01*
X132943D01*
X132633Y90730D01*
X132272Y90883D01*
X131962Y91113D01*
X131755Y91343D01*
X131600Y91650D01*
Y91918D01*
X131703Y92225D01*
X131910Y92455D01*
G01X134700Y93868D02*
X131600D01*
X134700Y95632D01*
X131600D01*
G01X134700Y97007D02*
X131600D01*
Y97773D01*
X131755Y98080D01*
X131962Y98310D01*
X132272Y98502D01*
X132633Y98655D01*
X133150Y98693D01*
X133667Y98655D01*
X134028Y98502D01*
X134338Y98310D01*
X134545Y98080D01*
X134700Y97773D01*
Y97007D01*
G01X133398Y114289D02*
X130298D01*
Y115248D01*
X130453Y115554D01*
X130660Y115746D01*
X131073Y115823D01*
X131486Y115746D01*
X131745Y115516D01*
X131900Y115248D01*
Y114289D01*
G01Y115248D02*
X133398Y115823D01*
G01Y118156D02*
X130298D01*
X130918Y117696D01*
G01X133398D02*
Y118616D01*
G01X132106Y120528D02*
X131745Y120796D01*
X131538Y121026D01*
X131435Y121333D01*
X131538Y121601D01*
X131745Y121793D01*
X132055Y121946D01*
X132416Y121984D01*
X132726Y121946D01*
X133036Y121793D01*
X133295Y121563D01*
X133398Y121294D01*
X133295Y120988D01*
X132985Y120719D01*
X132520Y120566D01*
X132003Y120528D01*
X131331Y120604D01*
X130970Y120719D01*
X130608Y120911D01*
X130350Y121179D01*
X130298Y121448D01*
X130401Y121716D01*
X130660Y121908D01*
G01X132845Y131165D02*
X129745D01*
Y131931D01*
X129900Y132238D01*
X130107Y132468D01*
X130417Y132660D01*
X130778Y132813D01*
X131295Y132851D01*
X131812Y132813D01*
X132173Y132660D01*
X132483Y132468D01*
X132690Y132238D01*
X132845Y131931D01*
Y131165D01*
G01X131553Y134380D02*
X131192Y134648D01*
X130985Y134878D01*
X130882Y135185D01*
X130985Y135453D01*
X131192Y135645D01*
X131502Y135798D01*
X131863Y135836D01*
X132173Y135798D01*
X132483Y135645D01*
X132742Y135415D01*
X132845Y135146D01*
X132742Y134840D01*
X132432Y134571D01*
X131967Y134418D01*
X131450Y134380D01*
X130778Y134456D01*
X130417Y134571D01*
X130055Y134763D01*
X129797Y135031D01*
X129745Y135300D01*
X129848Y135568D01*
X130107Y135760D01*
G01X129383Y147100D02*
Y144000D01*
X130917D01*
G01X134017D02*
X132483D01*
Y147100D01*
X134017D01*
G01X133403Y145602D02*
X132483D01*
G01X135507Y144000D02*
Y147100D01*
X136273D01*
X136580Y146945D01*
X136810Y146738D01*
X137002Y146428D01*
X137155Y146067D01*
X137193Y145550D01*
X137155Y145033D01*
X137002Y144672D01*
X136810Y144362D01*
X136580Y144155D01*
X136273Y144000D01*
X135507D01*
G01X138300Y142967D02*
X140600D01*
G01X142550Y144000D02*
Y147100D01*
X142090Y146480D01*
G01Y144000D02*
X143010D01*
G01X155994Y-402832D02*
X156186Y-403142D01*
X156416Y-403349D01*
X156684Y-403452D01*
X156991Y-403349D01*
X157221Y-403142D01*
X157451Y-402832D01*
X157528Y-402419D01*
Y-400352D01*
G01X159861Y-403452D02*
Y-400352D01*
X159401Y-400972D01*
G01Y-403452D02*
X160321D01*
G01X162961D02*
Y-400352D01*
X162501Y-400972D01*
G01Y-403452D02*
X163421D01*
G01X161550Y-221070D02*
G03X160452Y-221340I680J-5125D01*
G03X159330Y-221862I2528J-6901D01*
G03X158343Y-222545I3472J-6071D01*
G03X157649Y-223301I2400J-2900D01*
G02X157461Y-223567I-12961J8967D01*
G02X157389Y-223630I-178J129D01*
G02X157341Y-223615I-17J31D01*
G02X157299Y-223495I560J262D01*
G01X157244Y-223261D01*
X157014Y-223506D01*
G03X156816Y-223760I1245J-1173D01*
G03X156661Y-224057I1701J-1080D01*
G03X156543Y-224406I2276J-962D01*
G03X156460Y-224817I4002J-1023D01*
G02X156415Y-225055I-3040J453D01*
G02X156359Y-225198I-521J122D01*
G02X156280Y-225285I-232J131D01*
G02X156165Y-225337I-199J285D01*
G03X156038Y-225387I132J-523D01*
G03X155794Y-225526I3670J-6718D01*
G03X155511Y-225702I4151J-6977D01*
G03X155219Y-225900I5598J-8585D01*
G03X154484Y-226538I2744J-3909D01*
G03X153953Y-227269I2600J-2443D01*
G03X153661Y-228044I2594J-1419D01*
G03X153628Y-228808I2125J-475D01*
G03X153754Y-229293I2077J278D01*
G03X154045Y-229952I7931J3110D01*
G03X154398Y-230597I7680J3779D01*
G03X154733Y-231050I2578J1560D01*
G01X155092Y-231450D01*
X155096Y-230922D01*
G02X155132Y-230484I2908J-23D01*
G02X155235Y-230093I2086J-335D01*
G02X155387Y-229787I1447J-528D01*
G02X155575Y-229613I429J-277D01*
G02X155684Y-229577I160J-299D01*
G02X155869Y-229557I326J-2149D01*
G02X156087Y-229552I168J-2545D01*
G02X156308Y-229565I-56J-2765D01*
G03X156580Y-229577I241J2409D01*
G03X156892Y-229561I-54J4142D01*
G03X157221Y-229521I-406J4621D01*
G03X157548Y-229456I-751J4663D01*
G02X157979Y-229360I4585J-19536D01*
G02X158163Y-229342I174J-823D01*
G02X158276Y-229374I-2J-219D01*
G02X158373Y-229465I-184J-296D01*
G02X158496Y-229768I-544J-398D01*
G02X158478Y-230125I-928J-131D01*
G02X158306Y-230568I-1813J449D01*
G02X157958Y-231143I-6308J3428D01*
G03X157450Y-231959I11437J-7681D01*
G03X157159Y-232590I3358J-1930D01*
G03X157011Y-233204I2857J-1018D01*
G03X156958Y-233950I5867J-789D01*
G03X156965Y-234444I11547J-81D01*
G03X156998Y-234781I2681J96D01*
G03X157069Y-235068I1852J303D01*
G03X157192Y-235385I3135J1037D01*
G01X157434Y-235921D01*
X157579Y-235635D01*
G02X157727Y-235388I1908J-973D01*
G02X157917Y-235143I2339J-1620D01*
G02X158106Y-234945I2260J-1963D01*
G02X158217Y-234900I112J-117D01*
G02X158250Y-234922I0J-34D01*
G02X158276Y-235010I-592J-225D01*
G02X158294Y-235131I-894J-199D01*
G02X158301Y-235275I-1727J-148D01*
G03X158360Y-235615I1027J3D01*
G03X158555Y-236080I4187J1480D01*
G03X158803Y-236523I3987J1942D01*
G03X159041Y-236792I981J626D01*
G03X159129Y-236854I390J468D01*
G03X159174Y-236845I17J30D01*
G03X159198Y-236782I-86J69D01*
G03X159204Y-236587I-4608J256D01*
G02X159215Y-236436I1272J-17D01*
G02X159246Y-236261I2391J-323D01*
G02X159288Y-236089I2344J-490D01*
G02X159338Y-235950I1134J-325D01*
G01X159466Y-235650D01*
X159542Y-236050D01*
G03X159667Y-236479I2218J417D01*
G03X159890Y-236941I3616J1460D01*
G03X160181Y-237385I3599J2038D01*
G03X160510Y-237760I2606J1954D01*
G01X160900Y-238141D01*
X160906Y-236750D01*
X161209Y-237311D01*
G03X161360Y-237559I2684J1457D01*
G03X161562Y-237842I5229J3521D01*
G03X161781Y-238116I5068J3830D01*
G03X161983Y-238333I2506J2126D01*
G01X162452Y-238795D01*
X162739Y-237691D01*
X163025Y-236587D01*
X163277Y-237144D01*
G03X163378Y-237357I6213J2810D01*
G03X163472Y-237536I3349J1651D01*
G03X163557Y-237680I4797J2710D01*
G03X163589Y-237697I31J19D01*
G03X163625Y-237679I-2J48D01*
G03X163750Y-237519I-8585J6812D01*
G03X163892Y-237326I-4872J3733D01*
G03X164050Y-237096I-8964J6337D01*
G02X164275Y-236770I10978J-7333D01*
G02X164398Y-236635I616J-439D01*
G02X164485Y-236608I76J-88D01*
G02X164564Y-236653I-12J-111D01*
G03X164634Y-236728I364J268D01*
G03X164691Y-236741I40J46D01*
G03X164755Y-236700I-38J130D01*
G03X164864Y-236565I-2008J1750D01*
G03X164944Y-236458I-3997J3050D01*
G03X165028Y-236339I-5993J4310D01*
G03X165106Y-236224I-5681J3925D01*
G03X165161Y-236136I-1909J1272D01*
G02X165228Y-236038I860J-516D01*
G02X165266Y-236033I22J-17D01*
G02X165298Y-236082I-54J-71D01*
G02X165344Y-236275I-5954J-1512D01*
G03X165378Y-236400I1444J321D01*
G03X165418Y-236505I825J258D01*
G03X165460Y-236581I577J270D01*
G03X165495Y-236600I35J22D01*
G03X165543Y-236582I0J73D01*
G03X165674Y-236466I-3433J4031D01*
G03X165828Y-236319I-2787J3054D01*
G03X165994Y-236145I-4867J4813D01*
G03X166345Y-235693I-2528J2330D01*
G03X166673Y-235125I-4937J3222D01*
G03X166928Y-234538I-5084J2561D01*
G03X167058Y-234033I-2388J883D01*
G02X167125Y-233708I3030J-455D01*
G02X167208Y-233674I54J-14D01*
G02X167293Y-233796I-96J-157D01*
G02X167362Y-234219I-7109J-1371D01*
G01X167430Y-234728D01*
X167584Y-234439D01*
G03X167654Y-234252I-662J354D01*
G03X167713Y-233940I-4233J964D01*
G03X167761Y-233539I-6277J948D01*
G03X167794Y-233051I-13440J1169D01*
G01X167850Y-231952D01*
X168185Y-232476D01*
G03X168317Y-232677I9276J5931D01*
G03X168435Y-232846I4979J3355D01*
G03X168538Y-232987I10310J7443D01*
G03X168564Y-233000I26J19D01*
G03X168581Y-232983I0J17D01*
G03Y-232566I-124301J208D01*
G03X168576Y-232091I-26074J-20D01*
G03X168562Y-231525I-51752J-1017D01*
G03X168502Y-230445I-20966J-634D01*
G03X168388Y-229527I-11174J-921D01*
G03X168221Y-228755I-8052J-1338D01*
G03X167997Y-228120I-4193J-1120D01*
G02X167924Y-227945I4499J1985D01*
G02X167868Y-227790I2521J1001D01*
G02X167828Y-227662I3430J1134D01*
G02X167836Y-227630I31J9D01*
G02X167890Y-227632I26J-26D01*
G02X168098Y-227867I-7424J-6774D01*
G02X168304Y-228124I-3764J-3223D01*
G02X168463Y-228361I-2221J-1659D01*
G03X168506Y-228402I90J53D01*
G03X168532Y-228387I8J16D01*
G03X168528Y-228261I-648J40D01*
G03X168486Y-227974I-13928J-1879D01*
G03X168287Y-227078I-7015J-1082D01*
G03X167989Y-226319I-4264J-1241D01*
G03X167552Y-225617I-4099J-2064D01*
G03X166933Y-224893I-6406J-4843D01*
G02X166517Y-224456I44781J43064D01*
G02X166426Y-224329I420J396D01*
G02X166454Y-224277I31J17D01*
G02X166611Y-224280I64J-627D01*
G03X166804Y-224305I697J4750D01*
G03X166858Y-224287I7J69D01*
G03X166868Y-224241I-27J30D01*
G03X166803Y-224106I-1706J-748D01*
G03X166728Y-224003I-416J-222D01*
G03X166587Y-223867I-1741J-1664D01*
G03X166415Y-223726I-1854J-2081D01*
G03X166234Y-223600I-1630J-2161D01*
G01X165782Y-223313D01*
X166550Y-223250D01*
X166087Y-222785D01*
G03X165842Y-222562I-2293J-2282D01*
G03X165586Y-222377I-1690J-2063D01*
G03X165309Y-222222I-1446J-2270D01*
G03X164999Y-222092I-1467J-3045D01*
G01X164372Y-221863D01*
X164902Y-221408D01*
X164476Y-221293D01*
G03X163754Y-221137I-1924J-7122D01*
G03X162987Y-221044I-1438J-8740D01*
G03X162233Y-221020I-647J-8469D01*
G03X161550Y-221070I71J-5746D01*
G01X163539Y-221398D02*
G02X163767Y-221438I-1669J-10163D01*
G02X163967Y-221478I-1120J-6045D01*
G02X164134Y-221517I-2071J-9341D01*
G02X164171Y-221538I-19J-75D01*
G02X164180Y-221570I-24J-25D01*
G02X164155Y-221659I-1085J263D01*
G02X164113Y-221769I-1162J380D01*
G02X164055Y-221891I-1948J858D01*
G01X163895Y-222200D01*
X164180D01*
G02X164320Y-222211I0J-934D01*
G02X164511Y-222245I-499J-3286D01*
G02X164717Y-222295I-767J-3617D01*
G02X164907Y-222354I-760J-2787D01*
G02X165278Y-222517I-847J-2434D01*
G02X165635Y-222743I-1431J-2662D01*
G02X165824Y-222924I-585J-798D01*
G02X165787Y-223000I-36J-29D01*
G03X165700Y-223010I1J-387D01*
G03X165561Y-223046I591J-2528D01*
G03X165402Y-223098I831J-2850D01*
G03X165245Y-223158I1037J-2918D01*
G01X164866Y-223317D01*
X165408Y-223538D01*
G02X165630Y-223632I-4550J-11158D01*
G02X165850Y-223729I-4707J-10871D01*
G02X166039Y-223818I-4389J-9609D01*
G02X166150Y-223877I-664J-1385D01*
G02X166253Y-223944I-622J-1063D01*
G02X166252Y-223975I-11J-15D01*
G02X166194Y-223993I-62J96D01*
G02X165963Y-223997I-312J11325D01*
G01X165576Y-224000D01*
X166272Y-224645D01*
G02X166825Y-225202I-6322J-6830D01*
G02X167280Y-225759I-4884J-4454D01*
G02X167639Y-226317I-4505J-3293D01*
G02X167899Y-226874I-3613J-2027D01*
G01X168097Y-227394D01*
X167842Y-227297D01*
G02X167730Y-227252I1274J3333D01*
G02X167605Y-227198I2258J5407D01*
G02X167485Y-227143I2289J5113D01*
G02X167393Y-227097I929J1960D01*
G03X167255Y-227037I-414J-772D01*
G03X167218Y-227067I-9J-26D01*
G03X167249Y-227180I398J45D01*
G03X167457Y-227656I59599J25769D01*
G02X167752Y-228432I-7163J-3171D01*
G02X167998Y-229316I-11125J-3566D01*
G02X168176Y-230231I-11685J-2758D01*
G02X168270Y-231100I-9182J-1425D01*
G01X168333Y-232150D01*
X167963Y-231825D01*
G03X167817Y-231700I-4202J-4787D01*
G03X167684Y-231595I-2467J-2985D01*
G03X167570Y-231512I-3138J-4163D01*
G03X167533Y-231500I-38J-53D01*
G03X167511Y-231521I0J-22D01*
G03X167510Y-231693I5300J-110D01*
G03X167518Y-231904I3690J39D01*
G03X167540Y-232156I7375J509D01*
G02X167561Y-232432I-5365J-543D01*
G02X167568Y-232718I-6161J-313D01*
G02X167564Y-232974I-5487J-28D01*
G02X167544Y-233147I-1213J51D01*
G01X167481Y-233482D01*
X167206Y-233174D01*
X166930Y-232865D01*
X166859Y-233458D01*
G02X166751Y-234027I-4320J521D01*
G02X166565Y-234611I-5297J1369D01*
G02X166315Y-235169I-5068J1938D01*
G02X166018Y-235656I-3675J1902D01*
G01X165686Y-236126D01*
X165404Y-235789D01*
X165123Y-235451D01*
X164946Y-235851D01*
G02X164860Y-236034I-3848J1702D01*
G02X164801Y-236117I-297J148D01*
G02X164759Y-236121I-23J23D01*
G02X164728Y-236075I44J64D01*
G03X164653Y-235953I-225J-54D01*
G03X164551Y-235950I-53J-62D01*
G03X164388Y-236113I456J-620D01*
G03X164070Y-236559I14231J-10484D01*
G01X163615Y-237218D01*
X163446Y-236893D01*
G02X163373Y-236743I3274J1693D01*
G02X163291Y-236559I7106J3279D01*
G02X163213Y-236370I7262J3116D01*
G02X163152Y-236209I3763J1508D01*
G01X163026Y-235850D01*
X162654Y-237038D01*
X162281Y-238226D01*
X162036Y-237982D01*
G02X161915Y-237835I741J739D01*
G02X161734Y-237561I6794J4688D01*
G02X161536Y-237235I7843J4958D01*
G02X161349Y-236894I8692J5000D01*
G03X161178Y-236579I-12337J-6483D01*
G03X161035Y-236337I-4701J-2624D01*
G03X160928Y-236177I-2838J-1787D01*
G03X160903Y-236185I-11J-8D01*
G02X160893Y-236266I-434J9D01*
G02X160854Y-236442I-7693J1647D01*
G02X160801Y-236651I-7735J1842D01*
G02X160739Y-236872I-10054J2684D01*
G01X160578Y-237426D01*
X160342Y-237138D01*
G02X160079Y-236736I1707J1402D01*
G02X159870Y-236234I3222J1636D01*
G02X159742Y-235718I3314J1093D01*
G02X159726Y-235275I1686J285D01*
G03X159741Y-235093I-9126J859D01*
G03X159750Y-234939I-4591J337D01*
G03X159755Y-234810I-11594J485D01*
G03X159745Y-234800I-9J0D01*
G03X159685Y-234835I0J-68D01*
G03X159463Y-235243I30488J-16934D01*
G03X159253Y-235652I9880J-5325D01*
G03X159105Y-235989I4197J-2046D01*
G01X158933Y-236427D01*
X158760Y-235995D01*
G02X158643Y-235622I2314J927D01*
G02X158592Y-235247I2132J485D01*
G02X158607Y-234891I1936J97D01*
G02X158688Y-234575I1370J-184D01*
G03X158724Y-234470I-1195J466D01*
G03X158742Y-234381I-547J160D01*
G03X158743Y-234319I-276J34D01*
G03X158722Y-234300I-21J-2D01*
G03X158584Y-234339I2J-277D01*
G03X158259Y-234539I4546J-7741D01*
G03X157929Y-234766I3501J-5432D01*
G03X157682Y-234972I1603J-2176D01*
G01X157414Y-235224D01*
X157296Y-234787D01*
G02X157198Y-233965I2748J745D01*
G02X157328Y-233091I3692J-102D01*
G02X157688Y-232170I4535J-1242D01*
G02X158275Y-231212I6941J-3595D01*
G03X158537Y-230828I-8170J5862D01*
G03X158668Y-230578I-1263J819D01*
G03X158730Y-230346I-879J359D01*
G03X158750Y-230050I-2189J297D01*
G03X158744Y-229843I-3806J2D01*
G03X158728Y-229636I-3910J-214D01*
G03X158703Y-229454I-3424J-370D01*
G03X158674Y-229342I-602J-98D01*
G02X158695Y-229161I188J69D01*
G02X158867Y-229011I367J-247D01*
G02X159264Y-228859I1015J-2053D01*
G02X160098Y-228638I8499J-30396D01*
G03X161105Y-228339I-2920J11667D01*
G03X161812Y-228009I-1233J3566D01*
G03X162207Y-227671I-795J1328D01*
G03X162261Y-227342I-253J211D01*
G03X162114Y-227225I-173J-67D01*
G03X161740Y-227206I-290J-2023D01*
G03X161249Y-227265I130J-3124D01*
G03X160700Y-227407I1071J-5301D01*
G02X159963Y-227601I-2409J7654D01*
G02X159339Y-227680I-779J3665D01*
G02X158809Y-227647I-106J2590D01*
G02X158358Y-227504I269J1631D01*
G02X158009Y-227300I1137J2347D01*
G02X157818Y-227095I370J534D01*
G02X157699Y-226789I902J528D01*
G02X157585Y-226184I10714J2335D01*
G03X157476Y-225682I-4567J-730D01*
G03X157328Y-225353I-1137J-313D01*
G03X157132Y-225167I-487J-316D01*
G03X156881Y-225100I-251J-435D01*
G02X156779Y-225086I1J378D01*
G02X156731Y-225043I19J70D01*
G02X156721Y-224957I158J61D01*
G02X156754Y-224775I2673J-385D01*
G02X156790Y-224629I2397J-512D01*
G02X156841Y-224457I4689J-1317D01*
G02X156899Y-224288I4636J-1480D01*
G02X156954Y-224150I2221J-799D01*
G01X157084Y-223850D01*
X157092Y-224175D01*
G03X157100Y-224300I1436J37D01*
G03X157120Y-224405I766J86D01*
G03X157146Y-224480I504J131D01*
G03X157175Y-224500I30J13D01*
G03X157215Y-224480I0J51D01*
G03X157302Y-224361I-2359J1795D01*
G03X157399Y-224207I-2159J1475D01*
G03X157500Y-224025I-3875J2275D01*
G02X157847Y-223508I2574J-1354D01*
G02X158390Y-222927I5829J-4899D01*
G02X159005Y-222393I5433J-5628D01*
G02X159579Y-222019I2431J-3113D01*
G02X160495Y-221628I2726J-5113D01*
G02X161483Y-221390I1963J-5973D01*
G02X162509Y-221312I1000J-6370D01*
G02X163539Y-221398I-26J-6532D01*
G01X157176Y-225425D02*
G02X157222Y-225512I-199J-160D01*
G02X157284Y-225733I-5383J-1625D01*
G02X157346Y-226002I-5431J-1404D01*
G02X157402Y-226298I-7675J-1584D01*
G03X157480Y-226703I7523J1245D01*
G03X157563Y-226964I1535J342D01*
G03X157675Y-227165I922J382D01*
G03X157844Y-227364I1317J952D01*
G03X158352Y-227706I1128J1127D01*
G03X158990Y-227863I810J1922D01*
G03X159773Y-227829I257J3111D01*
G03X160715Y-227602I-1212J7102D01*
G02X161202Y-227475I1531J-4879D01*
G02X161658Y-227410I738J-3547D01*
G02X162015Y-227404I222J-2823D01*
G02X162100Y-227493I-4J-89D01*
G02X161982Y-227703I-245J0D01*
G02X161464Y-227979I-2759J4556D01*
G02X160783Y-228247I-2612J5633D01*
G02X160012Y-228461I-2759J8445D01*
G03X159692Y-228545I1271J-5500D01*
G03X159265Y-228675I5105J-17464D01*
G03X158812Y-228826I5997J-18780D01*
G03X158400Y-228976I4595J-13268D01*
G02X157849Y-229173I-4892J12823D01*
G02X157459Y-229276I-1031J3099D01*
G02X157074Y-229328I-577J2869D01*
G02X156550Y-229347I-616J9440D01*
G03X156194Y-229358I96J-9122D01*
G03X155868Y-229382I311J-6456D01*
G03X155598Y-229415I651J-6494D01*
G03X155491Y-229453I40J-281D01*
G03X155306Y-229614I375J-615D01*
G03X155139Y-229865I1253J-1021D01*
G03X155005Y-230172I1733J-937D01*
G03X154920Y-230508I2095J-707D01*
G01X154846Y-230941D01*
X154525Y-230456D01*
G02X154386Y-230230I3067J2036D01*
G02X154236Y-229949I6665J3747D01*
G02X154096Y-229660I6860J3499D01*
G02X153992Y-229411I3576J1636D01*
G02X153838Y-228358I2329J879D01*
G02X154136Y-227333I2517J-176D01*
G02X154884Y-226408I2859J-1548D01*
G02X156028Y-225650I3680J-4309D01*
G02X156522Y-225418I5013J-10032D01*
G02X156824Y-225323I577J-1307D01*
G02X157027Y-225329I89J-452D01*
G02X157176Y-225425I-71J-274D01*
G01X163215Y-224225D02*
G02X163102Y-224284I-149J149D01*
G02X162825Y-224320I-605J3544D01*
G02X162430Y-224343I-539J5796D01*
G02X161870Y-224350I-568J22680D01*
G01X160650D01*
X159875Y-224894D01*
G03X159578Y-225108I8032J-11422D01*
G03X159328Y-225302I4652J-6272D01*
G03X159122Y-225470I8569J-10645D01*
G03X159100Y-225519I41J-48D01*
G03X159121Y-225550I34J0D01*
G03X159200Y-225576I194J464D01*
G03X159309Y-225594I180J747D01*
G03X159439Y-225600I130J1435D01*
G02X159600Y-225614I0J-942D01*
G02X159807Y-225658I-467J-2670D01*
G02X160022Y-225722I-724J-2848D01*
G02X160214Y-225798I-663J-1964D01*
G03X160630Y-225940I937J2063D01*
G03X161046Y-225989I427J1813D01*
G03X161429Y-225945I11J1574D01*
G03X161750Y-225807I-253J1034D01*
G03X162205Y-225462I-1907J2982D01*
G03X162872Y-224839I-14192J15855D01*
G03X163528Y-224185I-31277J32048D01*
G03X163495Y-224105I-34J33D01*
G03X163426Y-224112I-8J-253D01*
G03X163349Y-224138I123J-489D01*
G03X163274Y-224178I208J-486D01*
G03X163215Y-224225I188J-295D01*
G01X161796Y-224593D02*
G02X161836Y-224689I-474J-253D01*
G02X161870Y-224818I-1396J-431D01*
G02X161892Y-224957I-1544J-324D01*
G02X161900Y-225086I-1090J-128D01*
G02X161835Y-225347I-554J0D01*
G02X161649Y-225581I-730J389D01*
G02X161381Y-225743I-602J690D01*
G02X161082Y-225800I-300J763D01*
G02X160728Y-225698I0J667D01*
G02X160437Y-225415I512J817D01*
G02X160302Y-225056I704J470D01*
G02X160376Y-224741I452J60D01*
G02X160656Y-224516I506J-343D01*
G02X161115Y-224403I639J-1599D01*
G02X161561Y-224421I160J-1544D01*
G02X161796Y-224593I-62J-331D01*
G01X156387Y-226966D02*
G03X156304Y-227069I5045J-4179D01*
G03X156306Y-227088I12J-9D01*
G03X156327Y-227092I13J13D01*
G03X156450Y-227030I-3457J7001D01*
G02X156537Y-226987I1559J-3037D01*
G02X156635Y-226941I2197J-4584D01*
G02X156728Y-226900I1948J-4298D01*
G02X156800Y-226871I626J-1460D01*
G03X156859Y-226845I-188J507D01*
G03X156862Y-226828I-5J10D01*
G03X156833Y-226814I-33J-33D01*
G03X156737Y-226808I-175J-2054D01*
G03X156646Y-226817I-13J-336D01*
G03X156547Y-226851I133J-543D01*
G03X156456Y-226903I231J-513D01*
G03X156387Y-226966I200J-284D01*
G01X160982Y-227853D02*
G02X160631Y-227984I-632J1161D01*
G02X160019Y-228094I-1903J8809D01*
G02X159399Y-228162I-1281J8857D01*
G02X159016Y-228138I-105J1415D01*
G03X158724Y-228123I-199J-995D01*
G03X158038Y-228196I2107J-22961D01*
G03X157334Y-228288I5191J-42411D01*
G03X157318Y-228345I4J-32D01*
G03X157347Y-228355I28J34D01*
G03X157782Y-228343I-6774J249040D01*
G03X158273Y-228326I-1294J45857D01*
G03X158850Y-228302I-3460J87266D01*
G03X159641Y-228257I-1747J38122D01*
G03X160146Y-228205I-455J6845D01*
G03X160513Y-228131I-462J3250D01*
G03X160825Y-228022I-511J1968D01*
G03X161007Y-227937I-2220J5012D01*
G03X161161Y-227857I-1342J2739D01*
G03X161284Y-227785I-2073J3695D01*
G03X161300Y-227756I-18J29D01*
G03X161287Y-227722I-51J0D01*
G03X161258Y-227714I-21J-19D01*
G03X161191Y-227741I111J-366D01*
G03X160982Y-227853I11524J-21752D01*
G01X160731Y-224964D02*
G03X160728Y-225203I322J-124D01*
G03X160882Y-225404I389J139D01*
G03X161126Y-225480I242J349D01*
G03X161355Y-225396I-2J362D01*
G03X161466Y-225266I-322J386D01*
G03X161494Y-225134I-180J107D01*
G03X161434Y-225038I-133J-17D01*
G03X161306Y-225000I-128J-197D01*
G02X161227Y-224993I1J423D01*
G02X161151Y-224970I80J422D01*
G02X161088Y-224938I129J329D01*
G02X161050Y-224900I66J103D01*
G03X160972Y-224822I-203J-125D01*
G03X160882Y-224806I-66J-107D01*
G03X160796Y-224856I30J-151D01*
G03X160731Y-224964I271J-236D01*
G01X180967Y-352900D02*
X177233D01*
Y-345400D01*
X180967D01*
G01X179473Y-349025D02*
X177233D01*
G01X184640Y-352900D02*
X188560Y-345400D01*
G01X184640D02*
X188560Y-352900D01*
G01X194100Y-345400D02*
Y-352900D01*
G01X191953Y-345400D02*
X196247D01*
G01X198800Y-355400D02*
X204400D01*
G01X207980Y-345400D02*
X210220D01*
G01X209100D02*
Y-352900D01*
G01X207980D02*
X210220D01*
G01X214827Y-346650D02*
X215387Y-345900D01*
X216040Y-345525D01*
X216787Y-345400D01*
X217720Y-345650D01*
X218373Y-346275D01*
X218560Y-347025D01*
X218467Y-347775D01*
X218093Y-348400D01*
X216227Y-349650D01*
X215387Y-350525D01*
X214827Y-351775D01*
X214640Y-352900D01*
X218560D01*
G01X226153Y-346025D02*
X225593Y-345650D01*
X224940Y-345400D01*
X224193D01*
X223353Y-345775D01*
X222700Y-346400D01*
X222233Y-347150D01*
X221860Y-348400D01*
X221767Y-349525D01*
X221953Y-350650D01*
X222233Y-351400D01*
X222793Y-352150D01*
X223447Y-352650D01*
X224100Y-352900D01*
X224753D01*
X225407Y-352650D01*
X225967Y-352275D01*
X226433Y-351775D01*
G01X164783Y-225436D02*
X165116Y-225557D01*
X164483Y-225689D01*
X163850Y-225820D01*
X164425Y-225999D01*
G02X164842Y-226174I-710J-2278D01*
G02X165409Y-226502I-4697J-8766D01*
G02X165960Y-226859I-10748J-17216D01*
G02X165970Y-226963I-38J-57D01*
G02X165948Y-226971I-19J19D01*
G02X165835Y-226954I709J5198D01*
G02X165701Y-226930I483J3077D01*
G02X165547Y-226897I1108J5478D01*
G03X165128Y-226806I-3349J-14416D01*
G03X165007Y-226822I-37J-187D01*
G03X164994Y-226889I19J-39D01*
G03X165176Y-227078I1982J1737D01*
G02X165306Y-227215I-1022J-1094D01*
G02X165452Y-227403I-2828J-2352D01*
G02X165591Y-227608I-3122J-2266D01*
G02X165698Y-227797I-1994J-1260D01*
G01X165924Y-228239D01*
X165637Y-228055D01*
X165350Y-227872D01*
X165649Y-228211D01*
X165770Y-228348D01*
X165887Y-228480D01*
X165985Y-228592D01*
X166037Y-228650D01*
G03X166108Y-228620I30J27D01*
G03X166051Y-228277I-2029J-156D01*
G03X165904Y-227796I-4887J-1240D01*
G03X165735Y-227462I-1505J-546D01*
G01X165480Y-227074D01*
X165840Y-227141D01*
G03X166007Y-227166I422J2225D01*
G03X166115Y-227164I45J415D01*
G03X166176Y-227137I-18J126D01*
G03X166200Y-227087I-41J50D01*
G03X166112Y-226876I-299J0D01*
G03X165708Y-226504I-4680J-4680D01*
G03X165254Y-226159I-3507J-4141D01*
G03X164886Y-225975I-866J-1274D01*
G01X164450Y-225826D01*
X164918Y-225753D01*
G02X165105Y-225730I459J-2921D01*
G02X165280Y-225720I201J-2203D01*
G02X165425Y-225724I25J-1961D01*
G02X165493Y-225746I-9J-146D01*
G03X165534Y-225764I90J145D01*
G03X165568Y-225765I18J61D01*
G03X165591Y-225748I-10J37D01*
G03X165600Y-225717I-50J31D01*
G03X165539Y-225619I-109J0D01*
G03X165204Y-225465I-2538J-5097D01*
G03X164854Y-225338I-1549J-3701D01*
G03X164623Y-225308I-202J-643D01*
G03X164595Y-225323I2J-36D01*
G03X164599Y-225348I16J-10D01*
G03X164665Y-225389I186J233D01*
G03X164783Y-225436I775J1761D01*
G01X165692Y-229900D02*
G02X165798Y-230080I-4695J-2902D01*
G02X165946Y-230344I-20323J-11535D01*
G02X166105Y-230637I-22724J-12492D01*
G02X166252Y-230919I-18881J-10072D01*
G01X166597Y-231589D01*
X166124Y-231345D01*
G03X165918Y-231247I-1705J-3313D01*
G03X165691Y-231154I-2015J-4581D01*
G03X165476Y-231078I-1624J-4267D01*
G03X165315Y-231036I-424J-1295D01*
G01X164979Y-230971D01*
X165330Y-231430D01*
G02X165592Y-231835I-2513J-1918D01*
G02X165804Y-232293I-3300J-1798D01*
G02X165982Y-232850I-4911J-1876D01*
G02X166145Y-233563I-12320J-3197D01*
G03X166237Y-234023I111120J22038D01*
G03X166263Y-234089I200J40D01*
G03X166282Y-234084I9J5D01*
G03X166290Y-233800I-17541J605D01*
G03X166269Y-233290I-4304J82D01*
G03X166188Y-232690I-8477J-845D01*
G03X166072Y-232131I-8254J-1422D01*
G03X165943Y-231787I-1500J-365D01*
G02X165853Y-231571I1259J652D01*
G02X165898Y-231521I37J12D01*
G02X166052Y-231591I-84J-386D01*
G02X166447Y-231896I-11052J-14762D01*
G03X166640Y-232044I4789J6038D01*
G03X166809Y-232163I2375J3206D01*
G03X166952Y-232255I3583J5387D01*
G03X166982Y-232252I13J21D01*
G03X167022Y-232035I-138J138D01*
G03X166659Y-231261I-16197J-7128D01*
G03X166234Y-230491I-9447J-4715D01*
G03X165833Y-229950I-3146J-1913D01*
G01X165476Y-229550D01*
X165692Y-229900D01*
G01X178535Y150991D02*
Y148769D01*
X178689Y148304D01*
X178995Y147994D01*
X179379Y147891D01*
X179762Y147994D01*
X180069Y148304D01*
X180222Y148769D01*
Y150991D01*
G01X181750Y150474D02*
X181980Y150784D01*
X182249Y150939D01*
X182555Y150991D01*
X182939Y150888D01*
X183207Y150629D01*
X183284Y150320D01*
X183245Y150009D01*
X183092Y149751D01*
X182325Y149234D01*
X181980Y148873D01*
X181750Y148356D01*
X181674Y147891D01*
X183284D01*
G01X181747Y-38138D02*
X184847D01*
Y-39097D01*
X184692Y-39403D01*
X184485Y-39595D01*
X184072Y-39672D01*
X183659Y-39595D01*
X183400Y-39365D01*
X183245Y-39097D01*
Y-38138D01*
G01Y-39097D02*
X181747Y-39672D01*
G01Y-42005D02*
X184847D01*
X184227Y-41545D01*
G01X181747D02*
Y-42465D01*
G01X182367Y-44262D02*
X182005Y-44492D01*
X181799Y-44798D01*
X181747Y-45143D01*
X181799Y-45450D01*
X182057Y-45757D01*
X182367Y-45948D01*
X182677Y-45987D01*
X183039Y-45910D01*
X183297Y-45642D01*
X183400Y-45373D01*
Y-45028D01*
G01Y-45373D02*
X183555Y-45603D01*
X183814Y-45795D01*
X184124Y-45872D01*
X184434Y-45795D01*
X184692Y-45603D01*
X184847Y-45258D01*
X184795Y-44913D01*
X184589Y-44568D01*
G01X180703Y-3104D02*
X181343D01*
G01X180996Y-2562D02*
Y-3645D01*
G01X183911Y51430D02*
X183756Y51200D01*
X183653Y50932D01*
Y50625D01*
X183808Y50280D01*
X184066Y50012D01*
X184376Y49820D01*
X184893Y49667D01*
X185358Y49629D01*
X185823Y49705D01*
X186133Y49820D01*
X186443Y50050D01*
X186650Y50319D01*
X186753Y50587D01*
Y50855D01*
X186650Y51124D01*
X186495Y51354D01*
X186288Y51545D01*
G01X184170Y52959D02*
X183860Y53189D01*
X183705Y53457D01*
X183653Y53764D01*
X183756Y54147D01*
X184015Y54415D01*
X184325Y54492D01*
X184635Y54454D01*
X184893Y54300D01*
X185410Y53534D01*
X185771Y53189D01*
X186288Y52959D01*
X186753Y52882D01*
Y54492D01*
G01X184170Y56059D02*
X183860Y56289D01*
X183705Y56557D01*
X183653Y56864D01*
X183756Y57247D01*
X184015Y57515D01*
X184325Y57592D01*
X184635Y57554D01*
X184893Y57400D01*
X185410Y56634D01*
X185771Y56289D01*
X186288Y56059D01*
X186753Y55982D01*
Y57592D01*
G01X198980Y75410D02*
X197585D01*
X195880Y74643D01*
G01Y76177D02*
X197585Y75410D01*
G01X198980Y78510D02*
X195880D01*
X196500Y78050D01*
G01X198980D02*
Y78970D01*
G01X215238Y-337453D02*
Y-334353D01*
X216197D01*
X216503Y-334508D01*
X216695Y-334715D01*
X216772Y-335128D01*
X216695Y-335541D01*
X216465Y-335800D01*
X216197Y-335955D01*
X215238D01*
G01X216197D02*
X216772Y-337453D01*
G01X218262Y-336833D02*
X218492Y-337195D01*
X218798Y-337401D01*
X219143Y-337453D01*
X219450Y-337401D01*
X219757Y-337143D01*
X219948Y-336833D01*
X219987Y-336523D01*
X219910Y-336161D01*
X219642Y-335903D01*
X219373Y-335800D01*
X219028D01*
G01X219373D02*
X219603Y-335645D01*
X219795Y-335386D01*
X219872Y-335076D01*
X219795Y-334766D01*
X219603Y-334508D01*
X219258Y-334353D01*
X218913Y-334405D01*
X218568Y-334611D01*
G01X222665Y-337453D02*
Y-334353D01*
X221247Y-336575D01*
X223163D01*
G01X215038Y-319953D02*
Y-316853D01*
X215997D01*
X216303Y-317008D01*
X216495Y-317215D01*
X216572Y-317628D01*
X216495Y-318041D01*
X216265Y-318300D01*
X215997Y-318455D01*
X215038D01*
G01X215997D02*
X216572Y-319953D01*
G01X218062Y-319333D02*
X218292Y-319695D01*
X218598Y-319901D01*
X218943Y-319953D01*
X219250Y-319901D01*
X219557Y-319643D01*
X219748Y-319333D01*
X219787Y-319023D01*
X219710Y-318661D01*
X219442Y-318403D01*
X219173Y-318300D01*
X218828D01*
G01X219173D02*
X219403Y-318145D01*
X219595Y-317886D01*
X219672Y-317576D01*
X219595Y-317266D01*
X219403Y-317008D01*
X219058Y-316853D01*
X218713Y-316905D01*
X218368Y-317111D01*
G01X221162Y-319488D02*
X221392Y-319746D01*
X221660Y-319901D01*
X222005Y-319953D01*
X222350Y-319850D01*
X222618Y-319643D01*
X222810Y-319281D01*
X222848Y-318868D01*
X222772Y-318455D01*
X222580Y-318196D01*
X222312Y-317990D01*
X222043Y-317938D01*
X221775Y-317990D01*
X221430Y-318196D01*
X221545Y-316853D01*
X222580D01*
G01X208311Y51930D02*
X208156Y51700D01*
X208053Y51432D01*
Y51125D01*
X208208Y50780D01*
X208466Y50512D01*
X208776Y50320D01*
X209293Y50167D01*
X209758Y50129D01*
X210223Y50205D01*
X210533Y50320D01*
X210843Y50550D01*
X211050Y50819D01*
X211153Y51087D01*
Y51355D01*
X211050Y51624D01*
X210895Y51854D01*
X210688Y52045D01*
G01X208570Y53459D02*
X208260Y53689D01*
X208105Y53957D01*
X208053Y54264D01*
X208156Y54647D01*
X208415Y54915D01*
X208725Y54992D01*
X209035Y54954D01*
X209293Y54800D01*
X209810Y54034D01*
X210171Y53689D01*
X210688Y53459D01*
X211153Y53382D01*
Y54992D01*
G01X210533Y56444D02*
X210895Y56674D01*
X211101Y56980D01*
X211153Y57325D01*
X211101Y57632D01*
X210843Y57939D01*
X210533Y58130D01*
X210223Y58169D01*
X209861Y58092D01*
X209603Y57824D01*
X209500Y57555D01*
Y57210D01*
G01Y57555D02*
X209345Y57785D01*
X209086Y57977D01*
X208776Y58054D01*
X208466Y57977D01*
X208208Y57785D01*
X208053Y57440D01*
X208105Y57095D01*
X208311Y56750D01*
G01X217957Y-51400D02*
Y-48300D01*
X218723D01*
X219030Y-48455D01*
X219260Y-48662D01*
X219452Y-48972D01*
X219605Y-49333D01*
X219643Y-49850D01*
X219605Y-50367D01*
X219452Y-50728D01*
X219260Y-51038D01*
X219030Y-51245D01*
X218723Y-51400D01*
X217957D01*
G01X221057Y-50935D02*
X221287Y-51193D01*
X221555Y-51348D01*
X221900Y-51400D01*
X222245Y-51297D01*
X222513Y-51090D01*
X222705Y-50728D01*
X222743Y-50315D01*
X222667Y-49902D01*
X222475Y-49643D01*
X222207Y-49437D01*
X221938Y-49385D01*
X221670Y-49437D01*
X221325Y-49643D01*
X221440Y-48300D01*
X222475D01*
G01X218655Y-40509D02*
Y-37409D01*
X219614D01*
X219920Y-37564D01*
X220112Y-37771D01*
X220189Y-38184D01*
X220112Y-38597D01*
X219882Y-38856D01*
X219614Y-39011D01*
X218655D01*
G01X219614D02*
X220189Y-40509D01*
G01X222522D02*
Y-37409D01*
X222062Y-38029D01*
G01Y-40509D02*
X222982D01*
G01X226082D02*
Y-37409D01*
X224664Y-39631D01*
X226580D01*
G01X226025Y70550D02*
Y67450D01*
X227559D01*
G01X229892D02*
Y70550D01*
X229432Y69930D01*
G01Y67450D02*
X230352D01*
G01X246086Y-403332D02*
X246277Y-403642D01*
X246507Y-403849D01*
X246776Y-403952D01*
X247082Y-403849D01*
X247312Y-403642D01*
X247542Y-403332D01*
X247619Y-402919D01*
Y-400852D01*
G01X249952Y-403952D02*
Y-400852D01*
X249492Y-401472D01*
G01Y-403952D02*
X250412D01*
G01X253512D02*
Y-400852D01*
X252094Y-403074D01*
X254011D01*
G01X237559Y-3104D02*
X238253D01*
G01X239794Y-2753D02*
Y-5853D01*
X241327D01*
G01X242855Y-5440D02*
X243162Y-5698D01*
X243507Y-5853D01*
X243814D01*
X244120Y-5698D01*
X244350Y-5440D01*
X244465Y-5078D01*
X244389Y-4716D01*
X244197Y-4406D01*
X243852Y-4199D01*
X243392Y-4096D01*
X243124Y-3889D01*
X243008Y-3528D01*
X243085Y-3166D01*
X243277Y-2908D01*
X243545Y-2753D01*
X243814D01*
X244082Y-2856D01*
X244312Y-3114D01*
G01X246760Y-5853D02*
Y-2753D01*
X246300Y-3373D01*
G01Y-5853D02*
X247220D01*
G01X267967Y-353900D02*
X264233D01*
Y-346400D01*
X267967D01*
G01X266473Y-350025D02*
X264233D01*
G01X271640Y-353900D02*
X275560Y-346400D01*
G01X271640D02*
X275560Y-353900D01*
G01X281100Y-346400D02*
Y-353900D01*
G01X278953Y-346400D02*
X283247D01*
G01X285800Y-356400D02*
X291400D01*
G01X294233Y-353900D02*
Y-346400D01*
X296567D01*
X297313Y-346775D01*
X297780Y-347275D01*
X297967Y-348275D01*
X297780Y-349275D01*
X297220Y-349900D01*
X296567Y-350275D01*
X294233D01*
G01X296567D02*
X297967Y-353900D01*
G01X301640Y-352900D02*
X302387Y-353525D01*
X303227Y-353900D01*
X303973D01*
X304720Y-353525D01*
X305280Y-352900D01*
X305560Y-352025D01*
X305373Y-351150D01*
X304907Y-350400D01*
X304067Y-349900D01*
X302947Y-349650D01*
X302293Y-349150D01*
X302013Y-348275D01*
X302200Y-347400D01*
X302667Y-346775D01*
X303320Y-346400D01*
X303973D01*
X304627Y-346650D01*
X305187Y-347275D01*
G01X309327Y-347650D02*
X309887Y-346900D01*
X310540Y-346525D01*
X311287Y-346400D01*
X312220Y-346650D01*
X312873Y-347275D01*
X313060Y-348025D01*
X312967Y-348775D01*
X312593Y-349400D01*
X310727Y-350650D01*
X309887Y-351525D01*
X309327Y-352775D01*
X309140Y-353900D01*
X313060D01*
G01X316547Y-352400D02*
X317107Y-353275D01*
X317853Y-353775D01*
X318693Y-353900D01*
X319440Y-353775D01*
X320187Y-353150D01*
X320653Y-352400D01*
X320747Y-351650D01*
X320560Y-350775D01*
X319907Y-350150D01*
X319253Y-349900D01*
X318413D01*
G01X319253D02*
X319813Y-349525D01*
X320280Y-348900D01*
X320467Y-348150D01*
X320280Y-347400D01*
X319813Y-346775D01*
X318973Y-346400D01*
X318133Y-346525D01*
X317293Y-347025D01*
G01X324327Y-347650D02*
X324887Y-346900D01*
X325540Y-346525D01*
X326287Y-346400D01*
X327220Y-346650D01*
X327873Y-347275D01*
X328060Y-348025D01*
X327967Y-348775D01*
X327593Y-349400D01*
X325727Y-350650D01*
X324887Y-351525D01*
X324327Y-352775D01*
X324140Y-353900D01*
X328060D01*
G01X263072Y-96590D02*
X263264Y-96900D01*
X263494Y-97107D01*
X263762Y-97210D01*
X264069Y-97107D01*
X264299Y-96900D01*
X264529Y-96590D01*
X264606Y-96177D01*
Y-94110D01*
G01X266096Y-96590D02*
X266326Y-96952D01*
X266632Y-97158D01*
X266977Y-97210D01*
X267284Y-97158D01*
X267591Y-96900D01*
X267782Y-96590D01*
X267821Y-96280D01*
X267744Y-95918D01*
X267476Y-95660D01*
X267207Y-95557D01*
X266862D01*
G01X267207D02*
X267437Y-95402D01*
X267629Y-95143D01*
X267706Y-94833D01*
X267629Y-94523D01*
X267437Y-94265D01*
X267092Y-94110D01*
X266747Y-94162D01*
X266402Y-94368D01*
G01X270039Y-94110D02*
X269732Y-94213D01*
X269502Y-94472D01*
X269349Y-94782D01*
X269234Y-95195D01*
X269196Y-95660D01*
X269234Y-96125D01*
X269349Y-96538D01*
X269502Y-96848D01*
X269732Y-97107D01*
X270039Y-97210D01*
X270346Y-97107D01*
X270576Y-96848D01*
X270729Y-96538D01*
X270844Y-96125D01*
X270882Y-95660D01*
X270844Y-95195D01*
X270729Y-94782D01*
X270576Y-94472D01*
X270346Y-94213D01*
X270039Y-94110D01*
G01X262851Y-38438D02*
X263043Y-38748D01*
X263273Y-38955D01*
X263541Y-39058D01*
X263848Y-38955D01*
X264078Y-38748D01*
X264308Y-38438D01*
X264385Y-38025D01*
Y-35958D01*
G01X265990Y-36475D02*
X266220Y-36165D01*
X266488Y-36010D01*
X266795Y-35958D01*
X267178Y-36061D01*
X267446Y-36320D01*
X267523Y-36630D01*
X267485Y-36940D01*
X267331Y-37198D01*
X266565Y-37715D01*
X266220Y-38076D01*
X265990Y-38593D01*
X265913Y-39058D01*
X267523D01*
G01X269166Y-38696D02*
X269435Y-38955D01*
X269741Y-39058D01*
X270048Y-38955D01*
X270316Y-38645D01*
X270508Y-38180D01*
X270585Y-37715D01*
Y-37146D01*
X270508Y-36681D01*
X270316Y-36268D01*
X270086Y-36061D01*
X269818Y-35958D01*
X269511Y-36061D01*
X269281Y-36268D01*
X269128Y-36578D01*
X269051Y-36991D01*
X269128Y-37353D01*
X269320Y-37715D01*
X269550Y-37921D01*
X269818Y-37973D01*
X270125Y-37870D01*
X270355Y-37611D01*
X270585Y-37146D01*
G01X252748Y116289D02*
X252518Y116444D01*
X252250Y116547D01*
X251943D01*
X251598Y116392D01*
X251330Y116134D01*
X251138Y115824D01*
X250985Y115307D01*
X250947Y114842D01*
X251023Y114377D01*
X251138Y114067D01*
X251368Y113757D01*
X251637Y113550D01*
X251905Y113447D01*
X252173D01*
X252442Y113550D01*
X252672Y113705D01*
X252863Y113912D01*
G01X254277Y116030D02*
X254507Y116340D01*
X254775Y116495D01*
X255082Y116547D01*
X255465Y116444D01*
X255733Y116185D01*
X255810Y115875D01*
X255772Y115565D01*
X255618Y115307D01*
X254852Y114790D01*
X254507Y114429D01*
X254277Y113912D01*
X254200Y113447D01*
X255810D01*
G01X258105D02*
Y116547D01*
X257645Y115927D01*
G01Y113447D02*
X258565D01*
G01X284065Y-113007D02*
X283807Y-113237D01*
X283652Y-113505D01*
X283600Y-113850D01*
X283703Y-114195D01*
X283910Y-114463D01*
X284272Y-114655D01*
X284685Y-114693D01*
X285098Y-114617D01*
X285357Y-114425D01*
X285563Y-114157D01*
X285615Y-113888D01*
X285563Y-113620D01*
X285357Y-113275D01*
X286700Y-113390D01*
Y-114425D01*
G01Y-115992D02*
X283600Y-116950D01*
X286700Y-117908D01*
G01X283600Y-119207D02*
X286700D01*
Y-119973D01*
X286545Y-120280D01*
X286338Y-120510D01*
X286028Y-120702D01*
X285667Y-120855D01*
X285150Y-120893D01*
X284633Y-120855D01*
X284272Y-120702D01*
X283962Y-120510D01*
X283755Y-120280D01*
X283600Y-119973D01*
Y-119207D01*
G01X286442Y-123993D02*
X286597Y-123763D01*
X286700Y-123495D01*
Y-123188D01*
X286545Y-122843D01*
X286287Y-122575D01*
X285977Y-122383D01*
X285460Y-122230D01*
X284995Y-122192D01*
X284530Y-122268D01*
X284220Y-122383D01*
X283910Y-122613D01*
X283703Y-122882D01*
X283600Y-123150D01*
Y-123418D01*
X283703Y-123687D01*
X283858Y-123917D01*
X284065Y-124108D01*
G01X284465Y-54907D02*
X284207Y-55137D01*
X284052Y-55405D01*
X284000Y-55750D01*
X284103Y-56095D01*
X284310Y-56363D01*
X284672Y-56555D01*
X285085Y-56593D01*
X285498Y-56517D01*
X285757Y-56325D01*
X285963Y-56057D01*
X286015Y-55788D01*
X285963Y-55520D01*
X285757Y-55175D01*
X287100Y-55290D01*
Y-56325D01*
G01Y-57892D02*
X284000Y-58850D01*
X287100Y-59808D01*
G01X284000Y-61107D02*
X287100D01*
Y-61873D01*
X286945Y-62180D01*
X286738Y-62410D01*
X286428Y-62602D01*
X286067Y-62755D01*
X285550Y-62793D01*
X285033Y-62755D01*
X284672Y-62602D01*
X284362Y-62410D01*
X284155Y-62180D01*
X284000Y-61873D01*
Y-61107D01*
G01X286842Y-65893D02*
X286997Y-65663D01*
X287100Y-65395D01*
Y-65088D01*
X286945Y-64743D01*
X286687Y-64475D01*
X286377Y-64283D01*
X285860Y-64130D01*
X285395Y-64092D01*
X284930Y-64168D01*
X284620Y-64283D01*
X284310Y-64513D01*
X284103Y-64782D01*
X284000Y-65050D01*
Y-65318D01*
X284103Y-65587D01*
X284258Y-65817D01*
X284465Y-66008D01*
G01X286383Y111600D02*
Y114700D01*
X287342D01*
X287648Y114545D01*
X287840Y114338D01*
X287917Y113925D01*
X287840Y113512D01*
X287610Y113253D01*
X287342Y113098D01*
X286383D01*
G01X287342D02*
X287917Y111600D01*
G01X291017D02*
X289483D01*
Y114700D01*
X291017D01*
G01X290403Y113202D02*
X289483D01*
G01X292622Y114700D02*
X294078D01*
X292622Y111600D01*
X294078D01*
G01X285645Y132113D02*
X285952Y131855D01*
X286297Y131700D01*
X286603D01*
X286910Y131855D01*
X287140Y132113D01*
X287255Y132475D01*
X287178Y132837D01*
X286987Y133147D01*
X286642Y133353D01*
X286182Y133457D01*
X285913Y133663D01*
X285798Y134025D01*
X285875Y134387D01*
X286067Y134645D01*
X286335Y134800D01*
X286603D01*
X286872Y134697D01*
X287102Y134438D01*
G01X288400Y134800D02*
X288937Y131700D01*
X289550Y134800D01*
X290163Y131700D01*
X290700Y134800D01*
G01X293493Y134542D02*
X293263Y134697D01*
X292995Y134800D01*
X292688D01*
X292343Y134645D01*
X292075Y134387D01*
X291883Y134077D01*
X291730Y133560D01*
X291692Y133095D01*
X291768Y132630D01*
X291883Y132320D01*
X292113Y132010D01*
X292382Y131803D01*
X292650Y131700D01*
X292918D01*
X293187Y131803D01*
X293417Y131958D01*
X293608Y132165D01*
G01X294983Y134800D02*
Y131700D01*
X296517D01*
G01X298007D02*
Y134800D01*
G01X299463D02*
X298007Y132888D01*
G01X299693Y131700D02*
X298658Y133767D01*
G01X285745Y122013D02*
X286052Y121755D01*
X286397Y121600D01*
X286703D01*
X287010Y121755D01*
X287240Y122013D01*
X287355Y122375D01*
X287278Y122737D01*
X287087Y123047D01*
X286742Y123253D01*
X286282Y123357D01*
X286013Y123563D01*
X285898Y123925D01*
X285975Y124287D01*
X286167Y124545D01*
X286435Y124700D01*
X286703D01*
X286972Y124597D01*
X287202Y124338D01*
G01X288500Y124700D02*
X289037Y121600D01*
X289650Y124700D01*
X290263Y121600D01*
X290800Y124700D01*
G01X291907Y121600D02*
Y124700D01*
X292673D01*
X292980Y124545D01*
X293210Y124338D01*
X293402Y124028D01*
X293555Y123667D01*
X293593Y123150D01*
X293555Y122633D01*
X293402Y122272D01*
X293210Y121962D01*
X292980Y121755D01*
X292673Y121600D01*
X291907D01*
G01X295390Y124700D02*
X296310D01*
G01X295850D02*
Y121600D01*
G01X295390D02*
X296310D01*
G01X298950D02*
X298643Y121652D01*
X298375Y121858D01*
X298145Y122168D01*
X297992Y122530D01*
X297915Y122943D01*
Y123357D01*
X297992Y123770D01*
X298145Y124132D01*
X298375Y124442D01*
X298643Y124648D01*
X298950Y124700D01*
X299257Y124648D01*
X299525Y124442D01*
X299755Y124132D01*
X299908Y123770D01*
X299985Y123357D01*
Y122943D01*
X299908Y122530D01*
X299755Y122168D01*
X299525Y121858D01*
X299257Y121652D01*
X298950Y121600D01*
G01X285307Y142620D02*
X285537Y142258D01*
X285843Y142052D01*
X286188Y142000D01*
X286495Y142052D01*
X286802Y142310D01*
X286993Y142620D01*
X287032Y142930D01*
X286955Y143292D01*
X286687Y143550D01*
X286418Y143653D01*
X286073D01*
G01X286418D02*
X286648Y143808D01*
X286840Y144067D01*
X286917Y144377D01*
X286840Y144687D01*
X286648Y144945D01*
X286303Y145100D01*
X285958Y145048D01*
X285613Y144842D01*
G01X289250Y141897D02*
X289173Y141948D01*
Y142052D01*
X289250Y142103D01*
X289327Y142052D01*
Y141948D01*
X289250Y141897D01*
G01X291507Y142620D02*
X291737Y142258D01*
X292043Y142052D01*
X292388Y142000D01*
X292695Y142052D01*
X293002Y142310D01*
X293193Y142620D01*
X293232Y142930D01*
X293155Y143292D01*
X292887Y143550D01*
X292618Y143653D01*
X292273D01*
G01X292618D02*
X292848Y143808D01*
X293040Y144067D01*
X293117Y144377D01*
X293040Y144687D01*
X292848Y144945D01*
X292503Y145100D01*
X292158Y145048D01*
X291813Y144842D01*
G01X294492Y145100D02*
X295450Y142000D01*
X296408Y145100D01*
G01X304613Y-112945D02*
X304355Y-113252D01*
X304200Y-113597D01*
Y-113903D01*
X304355Y-114210D01*
X304613Y-114440D01*
X304975Y-114555D01*
X305337Y-114478D01*
X305647Y-114287D01*
X305853Y-113942D01*
X305957Y-113482D01*
X306163Y-113213D01*
X306525Y-113098D01*
X306887Y-113175D01*
X307145Y-113367D01*
X307300Y-113635D01*
Y-113903D01*
X307197Y-114172D01*
X306938Y-114402D01*
G01X307300Y-116850D02*
X304200D01*
G01X307300Y-115968D02*
Y-117732D01*
G01X304200Y-118953D02*
X307300D01*
X304717Y-119950D01*
X307300Y-120947D01*
X304200D01*
G01X303167Y-121900D02*
Y-124200D01*
G01X304200Y-125383D02*
X307300D01*
Y-126303D01*
X307145Y-126610D01*
X306783Y-126840D01*
X306370Y-126917D01*
X305957Y-126840D01*
X305647Y-126648D01*
X305492Y-126303D01*
Y-125383D01*
G01X307042Y-130093D02*
X307197Y-129863D01*
X307300Y-129595D01*
Y-129288D01*
X307145Y-128943D01*
X306887Y-128675D01*
X306577Y-128483D01*
X306060Y-128330D01*
X305595Y-128292D01*
X305130Y-128368D01*
X304820Y-128483D01*
X304510Y-128713D01*
X304303Y-128982D01*
X304200Y-129250D01*
Y-129518D01*
X304303Y-129787D01*
X304458Y-130017D01*
X304665Y-130208D01*
G01X304820Y-131507D02*
X304458Y-131737D01*
X304252Y-132043D01*
X304200Y-132388D01*
X304252Y-132695D01*
X304510Y-133002D01*
X304820Y-133193D01*
X305130Y-133232D01*
X305492Y-133155D01*
X305750Y-132887D01*
X305853Y-132618D01*
Y-132273D01*
G01Y-132618D02*
X306008Y-132848D01*
X306267Y-133040D01*
X306577Y-133117D01*
X306887Y-133040D01*
X307145Y-132848D01*
X307300Y-132503D01*
X307248Y-132158D01*
X307042Y-131813D01*
G01X295220Y-113007D02*
X294858Y-113237D01*
X294652Y-113543D01*
X294600Y-113888D01*
X294652Y-114195D01*
X294910Y-114502D01*
X295220Y-114693D01*
X295530Y-114732D01*
X295892Y-114655D01*
X296150Y-114387D01*
X296253Y-114118D01*
Y-113773D01*
G01Y-114118D02*
X296408Y-114348D01*
X296667Y-114540D01*
X296977Y-114617D01*
X297287Y-114540D01*
X297545Y-114348D01*
X297700Y-114003D01*
X297648Y-113658D01*
X297442Y-113313D01*
G01X294497Y-116950D02*
X294548Y-116873D01*
X294652D01*
X294703Y-116950D01*
X294652Y-117027D01*
X294548D01*
X294497Y-116950D01*
G01X295220Y-119207D02*
X294858Y-119437D01*
X294652Y-119743D01*
X294600Y-120088D01*
X294652Y-120395D01*
X294910Y-120702D01*
X295220Y-120893D01*
X295530Y-120932D01*
X295892Y-120855D01*
X296150Y-120587D01*
X296253Y-120318D01*
Y-119973D01*
G01Y-120318D02*
X296408Y-120548D01*
X296667Y-120740D01*
X296977Y-120817D01*
X297287Y-120740D01*
X297545Y-120548D01*
X297700Y-120203D01*
X297648Y-119858D01*
X297442Y-119513D01*
G01X297700Y-122192D02*
X294600Y-123150D01*
X297700Y-124108D01*
G01X294600Y-125407D02*
X297700D01*
Y-126173D01*
X297545Y-126480D01*
X297338Y-126710D01*
X297028Y-126902D01*
X296667Y-127055D01*
X296150Y-127093D01*
X295633Y-127055D01*
X295272Y-126902D01*
X294962Y-126710D01*
X294755Y-126480D01*
X294600Y-126173D01*
Y-125407D01*
G01X297442Y-130193D02*
X297597Y-129963D01*
X297700Y-129695D01*
Y-129388D01*
X297545Y-129043D01*
X297287Y-128775D01*
X296977Y-128583D01*
X296460Y-128430D01*
X295995Y-128392D01*
X295530Y-128468D01*
X295220Y-128583D01*
X294910Y-128813D01*
X294703Y-129082D01*
X294600Y-129350D01*
Y-129618D01*
X294703Y-129887D01*
X294858Y-130117D01*
X295065Y-130308D01*
G01X305013Y-54945D02*
X304755Y-55252D01*
X304600Y-55597D01*
Y-55903D01*
X304755Y-56210D01*
X305013Y-56440D01*
X305375Y-56555D01*
X305737Y-56478D01*
X306047Y-56287D01*
X306253Y-55942D01*
X306357Y-55482D01*
X306563Y-55213D01*
X306925Y-55098D01*
X307287Y-55175D01*
X307545Y-55367D01*
X307700Y-55635D01*
Y-55903D01*
X307597Y-56172D01*
X307338Y-56402D01*
G01X307700Y-58850D02*
X304600D01*
G01X307700Y-57968D02*
Y-59732D01*
G01X304600Y-60953D02*
X307700D01*
X305117Y-61950D01*
X307700Y-62947D01*
X304600D01*
G01X303567Y-63900D02*
Y-66200D01*
G01X304600Y-67383D02*
X307700D01*
Y-68303D01*
X307545Y-68610D01*
X307183Y-68840D01*
X306770Y-68917D01*
X306357Y-68840D01*
X306047Y-68648D01*
X305892Y-68303D01*
Y-67383D01*
G01X306253Y-71557D02*
X306408Y-71710D01*
X306667Y-71825D01*
X307028Y-71902D01*
X307338Y-71825D01*
X307545Y-71672D01*
X307700Y-71403D01*
Y-70368D01*
X304600D01*
Y-71633D01*
X304807Y-71902D01*
X305117Y-72055D01*
X305478Y-72132D01*
X305840Y-72055D01*
X306150Y-71825D01*
X306253Y-71557D01*
Y-70368D01*
G01X304600Y-74350D02*
X304652Y-74618D01*
X304807Y-74925D01*
X305065Y-75117D01*
X305427Y-75193D01*
X305788Y-75117D01*
X306098Y-74887D01*
X306253Y-74542D01*
Y-74158D01*
X306357Y-73928D01*
X306615Y-73737D01*
X306977Y-73660D01*
X307338Y-73775D01*
X307597Y-74043D01*
X307700Y-74350D01*
X307597Y-74657D01*
X307338Y-74925D01*
X306977Y-75040D01*
X306615Y-74963D01*
X306357Y-74772D01*
X306253Y-74542D01*
Y-74158D01*
X306098Y-73813D01*
X305788Y-73583D01*
X305427Y-73507D01*
X305065Y-73583D01*
X304807Y-73775D01*
X304652Y-74082D01*
X304600Y-74350D01*
G01X295620Y-54907D02*
X295258Y-55137D01*
X295052Y-55443D01*
X295000Y-55788D01*
X295052Y-56095D01*
X295310Y-56402D01*
X295620Y-56593D01*
X295930Y-56632D01*
X296292Y-56555D01*
X296550Y-56287D01*
X296653Y-56018D01*
Y-55673D01*
G01Y-56018D02*
X296808Y-56248D01*
X297067Y-56440D01*
X297377Y-56517D01*
X297687Y-56440D01*
X297945Y-56248D01*
X298100Y-55903D01*
X298048Y-55558D01*
X297842Y-55213D01*
G01X294897Y-58850D02*
X294948Y-58773D01*
X295052D01*
X295103Y-58850D01*
X295052Y-58927D01*
X294948D01*
X294897Y-58850D01*
G01X295620Y-61107D02*
X295258Y-61337D01*
X295052Y-61643D01*
X295000Y-61988D01*
X295052Y-62295D01*
X295310Y-62602D01*
X295620Y-62793D01*
X295930Y-62832D01*
X296292Y-62755D01*
X296550Y-62487D01*
X296653Y-62218D01*
Y-61873D01*
G01Y-62218D02*
X296808Y-62448D01*
X297067Y-62640D01*
X297377Y-62717D01*
X297687Y-62640D01*
X297945Y-62448D01*
X298100Y-62103D01*
X298048Y-61758D01*
X297842Y-61413D01*
G01X298100Y-64092D02*
X295000Y-65050D01*
X298100Y-66008D01*
G01X295000Y-67307D02*
X298100D01*
Y-68073D01*
X297945Y-68380D01*
X297738Y-68610D01*
X297428Y-68802D01*
X297067Y-68955D01*
X296550Y-68993D01*
X296033Y-68955D01*
X295672Y-68802D01*
X295362Y-68610D01*
X295155Y-68380D01*
X295000Y-68073D01*
Y-67307D01*
G01X297842Y-72093D02*
X297997Y-71863D01*
X298100Y-71595D01*
Y-71288D01*
X297945Y-70943D01*
X297687Y-70675D01*
X297377Y-70483D01*
X296860Y-70330D01*
X296395Y-70292D01*
X295930Y-70368D01*
X295620Y-70483D01*
X295310Y-70713D01*
X295103Y-70982D01*
X295000Y-71250D01*
Y-71518D01*
X295103Y-71787D01*
X295258Y-72017D01*
X295465Y-72208D01*
G01X287480Y102450D02*
X288247D01*
Y101520D01*
X288017Y101210D01*
X287748Y101003D01*
X287365Y100900D01*
X286982Y101003D01*
X286713Y101210D01*
X286483Y101520D01*
X286330Y101882D01*
X286253Y102295D01*
Y102657D01*
X286330Y102967D01*
X286483Y103328D01*
X286713Y103638D01*
X286943Y103845D01*
X287250Y104000D01*
X287518D01*
X287825Y103897D01*
X288055Y103690D01*
G01X289468Y100900D02*
Y104000D01*
X291232Y100900D01*
Y104000D01*
G01X292607Y100900D02*
Y104000D01*
X293373D01*
X293680Y103845D01*
X293910Y103638D01*
X294102Y103328D01*
X294255Y102967D01*
X294293Y102450D01*
X294255Y101933D01*
X294102Y101572D01*
X293910Y101262D01*
X293680Y101055D01*
X293373Y100900D01*
X292607D01*
G01X314513Y-113045D02*
X314255Y-113352D01*
X314100Y-113697D01*
Y-114003D01*
X314255Y-114310D01*
X314513Y-114540D01*
X314875Y-114655D01*
X315237Y-114578D01*
X315547Y-114387D01*
X315753Y-114042D01*
X315857Y-113582D01*
X316063Y-113313D01*
X316425Y-113198D01*
X316787Y-113275D01*
X317045Y-113467D01*
X317200Y-113735D01*
Y-114003D01*
X317097Y-114272D01*
X316838Y-114502D01*
G01X317200Y-116950D02*
X314100D01*
G01X317200Y-116068D02*
Y-117832D01*
G01X314100Y-119053D02*
X317200D01*
X314617Y-120050D01*
X317200Y-121047D01*
X314100D01*
G01X313067Y-122000D02*
Y-124300D01*
G01X314100Y-125483D02*
X317200D01*
Y-126403D01*
X317045Y-126710D01*
X316683Y-126940D01*
X316270Y-127017D01*
X315857Y-126940D01*
X315547Y-126748D01*
X315392Y-126403D01*
Y-125483D01*
G01X316942Y-130193D02*
X317097Y-129963D01*
X317200Y-129695D01*
Y-129388D01*
X317045Y-129043D01*
X316787Y-128775D01*
X316477Y-128583D01*
X315960Y-128430D01*
X315495Y-128392D01*
X315030Y-128468D01*
X314720Y-128583D01*
X314410Y-128813D01*
X314203Y-129082D01*
X314100Y-129350D01*
Y-129618D01*
X314203Y-129887D01*
X314358Y-130117D01*
X314565Y-130308D01*
G01X316683Y-131722D02*
X316993Y-131952D01*
X317148Y-132220D01*
X317200Y-132527D01*
X317097Y-132910D01*
X316838Y-133178D01*
X316528Y-133255D01*
X316218Y-133217D01*
X315960Y-133063D01*
X315443Y-132297D01*
X315082Y-131952D01*
X314565Y-131722D01*
X314100Y-131645D01*
Y-133255D01*
G01X314913Y-54945D02*
X314655Y-55252D01*
X314500Y-55597D01*
Y-55903D01*
X314655Y-56210D01*
X314913Y-56440D01*
X315275Y-56555D01*
X315637Y-56478D01*
X315947Y-56287D01*
X316153Y-55942D01*
X316257Y-55482D01*
X316463Y-55213D01*
X316825Y-55098D01*
X317187Y-55175D01*
X317445Y-55367D01*
X317600Y-55635D01*
Y-55903D01*
X317497Y-56172D01*
X317238Y-56402D01*
G01X317600Y-58850D02*
X314500D01*
G01X317600Y-57968D02*
Y-59732D01*
G01X314500Y-60953D02*
X317600D01*
X315017Y-61950D01*
X317600Y-62947D01*
X314500D01*
G01X313467Y-63900D02*
Y-66200D01*
G01X314500Y-67383D02*
X317600D01*
Y-68303D01*
X317445Y-68610D01*
X317083Y-68840D01*
X316670Y-68917D01*
X316257Y-68840D01*
X315947Y-68648D01*
X315792Y-68303D01*
Y-67383D01*
G01X316153Y-71557D02*
X316308Y-71710D01*
X316567Y-71825D01*
X316928Y-71902D01*
X317238Y-71825D01*
X317445Y-71672D01*
X317600Y-71403D01*
Y-70368D01*
X314500D01*
Y-71633D01*
X314707Y-71902D01*
X315017Y-72055D01*
X315378Y-72132D01*
X315740Y-72055D01*
X316050Y-71825D01*
X316153Y-71557D01*
Y-70368D01*
G01X314862Y-73698D02*
X314603Y-73967D01*
X314500Y-74273D01*
X314603Y-74580D01*
X314913Y-74848D01*
X315378Y-75040D01*
X315843Y-75117D01*
X316412D01*
X316877Y-75040D01*
X317290Y-74848D01*
X317497Y-74618D01*
X317600Y-74350D01*
X317497Y-74043D01*
X317290Y-73813D01*
X316980Y-73660D01*
X316567Y-73583D01*
X316205Y-73660D01*
X315843Y-73852D01*
X315637Y-74082D01*
X315585Y-74350D01*
X315688Y-74657D01*
X315947Y-74887D01*
X316412Y-75117D01*
G01X308948Y493D02*
X308718Y648D01*
X308450Y751D01*
X308143D01*
X307798Y596D01*
X307530Y338D01*
X307338Y28D01*
X307185Y-489D01*
X307147Y-954D01*
X307223Y-1419D01*
X307338Y-1729D01*
X307568Y-2039D01*
X307837Y-2246D01*
X308105Y-2349D01*
X308373D01*
X308642Y-2246D01*
X308872Y-2091D01*
X309063Y-1884D01*
G01X310477Y234D02*
X310707Y544D01*
X310975Y699D01*
X311282Y751D01*
X311665Y648D01*
X311933Y389D01*
X312010Y79D01*
X311972Y-231D01*
X311818Y-489D01*
X311052Y-1006D01*
X310707Y-1367D01*
X310477Y-1884D01*
X310400Y-2349D01*
X312010D01*
G01X314305Y751D02*
X313998Y648D01*
X313768Y389D01*
X313615Y79D01*
X313500Y-334D01*
X313462Y-799D01*
X313500Y-1264D01*
X313615Y-1677D01*
X313768Y-1987D01*
X313998Y-2246D01*
X314305Y-2349D01*
X314612Y-2246D01*
X314842Y-1987D01*
X314995Y-1677D01*
X315110Y-1264D01*
X315148Y-799D01*
X315110Y-334D01*
X314995Y79D01*
X314842Y389D01*
X314612Y648D01*
X314305Y751D01*
G01X308001Y28908D02*
X307771Y29063D01*
X307503Y29166D01*
X307196D01*
X306851Y29011D01*
X306583Y28753D01*
X306391Y28443D01*
X306238Y27926D01*
X306200Y27461D01*
X306276Y26996D01*
X306391Y26686D01*
X306621Y26376D01*
X306890Y26169D01*
X307158Y26066D01*
X307426D01*
X307695Y26169D01*
X307925Y26324D01*
X308116Y26531D01*
G01X310258Y26066D02*
Y29166D01*
X309798Y28546D01*
G01Y26066D02*
X310718D01*
G01X313358D02*
X313626Y26118D01*
X313933Y26273D01*
X314125Y26531D01*
X314201Y26893D01*
X314125Y27254D01*
X313895Y27564D01*
X313550Y27719D01*
X313166D01*
X312936Y27823D01*
X312745Y28081D01*
X312668Y28443D01*
X312783Y28804D01*
X313051Y29063D01*
X313358Y29166D01*
X313665Y29063D01*
X313933Y28804D01*
X314048Y28443D01*
X313971Y28081D01*
X313780Y27823D01*
X313550Y27719D01*
X313166D01*
X312821Y27564D01*
X312591Y27254D01*
X312515Y26893D01*
X312591Y26531D01*
X312783Y26273D01*
X313090Y26118D01*
X313358Y26066D01*
G01X307501Y15264D02*
X307271Y15419D01*
X307003Y15522D01*
X306696D01*
X306351Y15367D01*
X306083Y15109D01*
X305891Y14799D01*
X305738Y14282D01*
X305700Y13817D01*
X305776Y13352D01*
X305891Y13042D01*
X306121Y12732D01*
X306390Y12525D01*
X306658Y12422D01*
X306926D01*
X307195Y12525D01*
X307425Y12680D01*
X307616Y12887D01*
G01X309758Y12422D02*
Y15522D01*
X309298Y14902D01*
G01Y12422D02*
X310218D01*
G01X312206Y12784D02*
X312475Y12525D01*
X312781Y12422D01*
X313088Y12525D01*
X313356Y12835D01*
X313548Y13300D01*
X313625Y13765D01*
Y14334D01*
X313548Y14799D01*
X313356Y15212D01*
X313126Y15419D01*
X312858Y15522D01*
X312551Y15419D01*
X312321Y15212D01*
X312168Y14902D01*
X312091Y14489D01*
X312168Y14127D01*
X312360Y13765D01*
X312590Y13559D01*
X312858Y13507D01*
X313165Y13610D01*
X313395Y13869D01*
X313625Y14334D01*
G01X308401Y42552D02*
X308171Y42707D01*
X307903Y42810D01*
X307596D01*
X307251Y42655D01*
X306983Y42397D01*
X306791Y42087D01*
X306638Y41570D01*
X306600Y41105D01*
X306676Y40640D01*
X306791Y40330D01*
X307021Y40020D01*
X307290Y39813D01*
X307558Y39710D01*
X307826D01*
X308095Y39813D01*
X308325Y39968D01*
X308516Y40175D01*
G01X310658Y39710D02*
Y42810D01*
X310198Y42190D01*
G01Y39710D02*
X311118D01*
G01X313681D02*
X313758Y40382D01*
X313873Y40950D01*
X314026Y41467D01*
X314218Y42035D01*
X314525Y42810D01*
X312991D01*
G01X307501Y55796D02*
X307271Y55951D01*
X307003Y56054D01*
X306696D01*
X306351Y55899D01*
X306083Y55641D01*
X305891Y55331D01*
X305738Y54814D01*
X305700Y54349D01*
X305776Y53884D01*
X305891Y53574D01*
X306121Y53264D01*
X306390Y53057D01*
X306658Y52954D01*
X306926D01*
X307195Y53057D01*
X307425Y53212D01*
X307616Y53419D01*
G01X309758Y52954D02*
Y56054D01*
X309298Y55434D01*
G01Y52954D02*
X310218D01*
G01X312130Y54246D02*
X312398Y54607D01*
X312628Y54814D01*
X312935Y54917D01*
X313203Y54814D01*
X313395Y54607D01*
X313548Y54297D01*
X313586Y53936D01*
X313548Y53626D01*
X313395Y53316D01*
X313165Y53057D01*
X312896Y52954D01*
X312590Y53057D01*
X312321Y53367D01*
X312168Y53832D01*
X312130Y54349D01*
X312206Y55021D01*
X312321Y55382D01*
X312513Y55744D01*
X312781Y56002D01*
X313050Y56054D01*
X313318Y55951D01*
X313510Y55692D01*
G01X307501Y69640D02*
X307271Y69795D01*
X307003Y69898D01*
X306696D01*
X306351Y69743D01*
X306083Y69485D01*
X305891Y69175D01*
X305738Y68658D01*
X305700Y68193D01*
X305776Y67728D01*
X305891Y67418D01*
X306121Y67108D01*
X306390Y66901D01*
X306658Y66798D01*
X306926D01*
X307195Y66901D01*
X307425Y67056D01*
X307616Y67263D01*
G01X309758Y66798D02*
Y69898D01*
X309298Y69278D01*
G01Y66798D02*
X310218D01*
G01X312015Y67263D02*
X312245Y67005D01*
X312513Y66850D01*
X312858Y66798D01*
X313203Y66901D01*
X313471Y67108D01*
X313663Y67470D01*
X313701Y67883D01*
X313625Y68296D01*
X313433Y68555D01*
X313165Y68761D01*
X312896Y68813D01*
X312628Y68761D01*
X312283Y68555D01*
X312398Y69898D01*
X313433D01*
G01X308648Y84721D02*
X308418Y84876D01*
X308150Y84979D01*
X307843D01*
X307498Y84824D01*
X307230Y84566D01*
X307038Y84256D01*
X306885Y83739D01*
X306847Y83274D01*
X306923Y82809D01*
X307038Y82499D01*
X307268Y82189D01*
X307537Y81982D01*
X307805Y81879D01*
X308073D01*
X308342Y81982D01*
X308572Y82137D01*
X308763Y82344D01*
G01X310905Y81879D02*
Y84979D01*
X310445Y84359D01*
G01Y81879D02*
X311365D01*
G01X314465D02*
Y84979D01*
X313047Y82757D01*
X314963D01*
G01X336854Y-403091D02*
X337046Y-403401D01*
X337276Y-403608D01*
X337544Y-403711D01*
X337851Y-403608D01*
X338081Y-403401D01*
X338311Y-403091D01*
X338387Y-402678D01*
Y-400611D01*
G01X340721Y-403711D02*
Y-400611D01*
X340261Y-401231D01*
G01Y-403711D02*
X341181D01*
G01X343821D02*
X344089Y-403659D01*
X344396Y-403504D01*
X344587Y-403246D01*
X344664Y-402884D01*
X344587Y-402523D01*
X344357Y-402213D01*
X344012Y-402058D01*
X343629D01*
X343399Y-401954D01*
X343207Y-401696D01*
X343131Y-401334D01*
X343246Y-400973D01*
X343514Y-400714D01*
X343821Y-400611D01*
X344127Y-400714D01*
X344396Y-400973D01*
X344511Y-401334D01*
X344434Y-401696D01*
X344242Y-401954D01*
X344012Y-402058D01*
X343629D01*
X343284Y-402213D01*
X343054Y-402523D01*
X342977Y-402884D01*
X343054Y-403246D01*
X343246Y-403504D01*
X343552Y-403659D01*
X343821Y-403711D01*
G01X326050Y-114080D02*
Y-114847D01*
X325120D01*
X324810Y-114617D01*
X324603Y-114348D01*
X324500Y-113965D01*
X324603Y-113582D01*
X324810Y-113313D01*
X325120Y-113083D01*
X325482Y-112930D01*
X325895Y-112853D01*
X326257D01*
X326567Y-112930D01*
X326928Y-113083D01*
X327238Y-113313D01*
X327445Y-113543D01*
X327600Y-113850D01*
Y-114118D01*
X327497Y-114425D01*
X327290Y-114655D01*
G01X324500Y-116068D02*
X327600D01*
X324500Y-117832D01*
X327600D01*
G01X324500Y-119207D02*
X327600D01*
Y-119973D01*
X327445Y-120280D01*
X327238Y-120510D01*
X326928Y-120702D01*
X326567Y-120855D01*
X326050Y-120893D01*
X325533Y-120855D01*
X325172Y-120702D01*
X324862Y-120510D01*
X324655Y-120280D01*
X324500Y-119973D01*
Y-119207D01*
G01X326450Y-55980D02*
Y-56747D01*
X325520D01*
X325210Y-56517D01*
X325003Y-56248D01*
X324900Y-55865D01*
X325003Y-55482D01*
X325210Y-55213D01*
X325520Y-54983D01*
X325882Y-54830D01*
X326295Y-54753D01*
X326657D01*
X326967Y-54830D01*
X327328Y-54983D01*
X327638Y-55213D01*
X327845Y-55443D01*
X328000Y-55750D01*
Y-56018D01*
X327897Y-56325D01*
X327690Y-56555D01*
G01X324900Y-57968D02*
X328000D01*
X324900Y-59732D01*
X328000D01*
G01X324900Y-61107D02*
X328000D01*
Y-61873D01*
X327845Y-62180D01*
X327638Y-62410D01*
X327328Y-62602D01*
X326967Y-62755D01*
X326450Y-62793D01*
X325933Y-62755D01*
X325572Y-62602D01*
X325262Y-62410D01*
X325055Y-62180D01*
X324900Y-61873D01*
Y-61107D01*
G01X357647Y-349200D02*
X358020Y-348825D01*
X358300Y-348200D01*
X358487Y-347325D01*
X358300Y-346575D01*
X357927Y-346075D01*
X357273Y-345700D01*
X354753D01*
Y-353200D01*
X357833D01*
X358487Y-352700D01*
X358860Y-351950D01*
X359047Y-351075D01*
X358860Y-350200D01*
X358300Y-349450D01*
X357647Y-349200D01*
X354753D01*
G01X362347Y-345700D02*
Y-351075D01*
X362720Y-352200D01*
X363467Y-352950D01*
X364400Y-353200D01*
X365333Y-352950D01*
X366080Y-352200D01*
X366453Y-351075D01*
Y-345700D01*
G01X369847Y-353200D02*
Y-345700D01*
X371713D01*
X372460Y-346075D01*
X373020Y-346575D01*
X373487Y-347325D01*
X373860Y-348200D01*
X373953Y-349450D01*
X373860Y-350700D01*
X373487Y-351575D01*
X373020Y-352325D01*
X372460Y-352825D01*
X371713Y-353200D01*
X369847D01*
G01X377347D02*
Y-345700D01*
X379213D01*
X379960Y-346075D01*
X380520Y-346575D01*
X380987Y-347325D01*
X381360Y-348200D01*
X381453Y-349450D01*
X381360Y-350700D01*
X380987Y-351575D01*
X380520Y-352325D01*
X379960Y-352825D01*
X379213Y-353200D01*
X377347D01*
G01X386900D02*
Y-349825D01*
X385033Y-345700D01*
G01X388767D02*
X386900Y-349825D01*
G01X371304Y-306413D02*
X371074Y-306258D01*
X370806Y-306155D01*
X370499D01*
X370154Y-306310D01*
X369886Y-306568D01*
X369694Y-306878D01*
X369541Y-307395D01*
X369503Y-307860D01*
X369579Y-308325D01*
X369694Y-308635D01*
X369924Y-308945D01*
X370193Y-309152D01*
X370461Y-309255D01*
X370729D01*
X370998Y-309152D01*
X371228Y-308997D01*
X371419Y-308790D01*
G01X373561Y-309255D02*
X373829Y-309203D01*
X374136Y-309048D01*
X374328Y-308790D01*
X374404Y-308428D01*
X374328Y-308067D01*
X374098Y-307757D01*
X373753Y-307602D01*
X373369D01*
X373139Y-307498D01*
X372948Y-307240D01*
X372871Y-306878D01*
X372986Y-306517D01*
X373254Y-306258D01*
X373561Y-306155D01*
X373868Y-306258D01*
X374136Y-306517D01*
X374251Y-306878D01*
X374174Y-307240D01*
X373983Y-307498D01*
X373753Y-307602D01*
X373369D01*
X373024Y-307757D01*
X372794Y-308067D01*
X372718Y-308428D01*
X372794Y-308790D01*
X372986Y-309048D01*
X373293Y-309203D01*
X373561Y-309255D01*
G01X378756Y-319982D02*
X377236D01*
G01X378059Y-321065D02*
Y-318898D01*
G01X378756Y-319982D02*
X377236D01*
G01X378059Y-321065D02*
Y-318898D01*
G01X378756Y-319982D02*
X377236D01*
G01X378059Y-321065D02*
Y-318898D01*
G01X378756Y-319982D02*
X377236D01*
G01X378059Y-321065D02*
Y-318898D01*
G01X389763Y-257166D02*
Y72834D01*
X669763D01*
Y-257166D01*
X389763D01*
G01X396554Y-402591D02*
X396746Y-402901D01*
X396976Y-403108D01*
X397244Y-403211D01*
X397551Y-403108D01*
X397781Y-402901D01*
X398011Y-402591D01*
X398087Y-402178D01*
Y-400111D01*
G01X400421Y-403211D02*
Y-400111D01*
X399961Y-400731D01*
G01Y-403211D02*
X400881D01*
G01X403444D02*
X403521Y-402539D01*
X403636Y-401971D01*
X403789Y-401454D01*
X403981Y-400886D01*
X404287Y-400111D01*
X402754D01*
G01X406798Y-31616D02*
X406990Y-31926D01*
X407220Y-32133D01*
X407488Y-32236D01*
X407795Y-32133D01*
X408024Y-31926D01*
X408255Y-31616D01*
X408331Y-31203D01*
Y-29136D01*
G01X410665Y-32236D02*
Y-29136D01*
X410205Y-29756D01*
G01Y-32236D02*
X411124D01*
G01X395253Y131800D02*
Y136800D01*
X396900Y132633D01*
X398547Y136800D01*
Y131800D01*
G01X401050Y134050D02*
X403077D01*
X402887Y134633D01*
X402570Y134967D01*
X402127Y135133D01*
X401683Y135050D01*
X401303Y134800D01*
X401050Y134217D01*
X400923Y133717D01*
Y133217D01*
X401050Y132717D01*
X401367Y132217D01*
X401747Y131883D01*
X402190Y131800D01*
X402633Y131967D01*
X403077Y132466D01*
G01X407100Y136800D02*
Y131800D01*
G01X406213Y135133D02*
X407987D01*
G01X412200Y131800D02*
X411820Y131883D01*
X411440Y132217D01*
X411187Y132800D01*
X411060Y133467D01*
X411187Y134133D01*
X411440Y134717D01*
X411820Y135050D01*
X412200Y135133D01*
X412580Y135050D01*
X412960Y134717D01*
X413213Y134133D01*
X413277Y133467D01*
X413213Y132800D01*
X412960Y132217D01*
X412580Y131883D01*
X412200Y131800D01*
G01X415400Y130133D02*
X419200D01*
G01X421070Y132466D02*
X421577Y132050D01*
X422147Y131800D01*
X422653D01*
X423160Y132050D01*
X423540Y132466D01*
X423730Y133050D01*
X423603Y133633D01*
X423287Y134133D01*
X422717Y134467D01*
X421957Y134633D01*
X421513Y134967D01*
X421323Y135550D01*
X421450Y136133D01*
X421767Y136550D01*
X422210Y136800D01*
X422653D01*
X423097Y136633D01*
X423477Y136217D01*
G01X427500Y136800D02*
Y131800D01*
G01X426613Y135133D02*
X428387D01*
G01X430700Y131800D02*
Y135133D01*
G01Y134217D02*
X430890Y134633D01*
X431207Y134967D01*
X431650Y135133D01*
X432093Y134967D01*
X432410Y134633D01*
X432600Y134217D01*
Y131800D01*
G01Y134217D02*
X432790Y134633D01*
X433107Y134967D01*
X433550Y135133D01*
X433993Y134967D01*
X434310Y134633D01*
X434500Y134133D01*
Y131800D01*
G01X435800Y130133D02*
X439600D01*
G01X444193Y136383D02*
X443813Y136633D01*
X443370Y136800D01*
X442863D01*
X442293Y136550D01*
X441850Y136133D01*
X441533Y135633D01*
X441280Y134800D01*
X441217Y134050D01*
X441343Y133300D01*
X441533Y132800D01*
X441913Y132300D01*
X442357Y131967D01*
X442800Y131800D01*
X443243D01*
X443687Y131967D01*
X444067Y132217D01*
X444383Y132550D01*
G01X447013Y131800D02*
Y135133D01*
G01Y134467D02*
X447330Y134800D01*
X447647Y135050D01*
X448090Y135133D01*
X448407Y135050D01*
X448787Y134800D01*
G01X451670Y130300D02*
X452050Y130133D01*
X452557Y130300D01*
X452873Y130633D01*
X453127Y131050D01*
X453507Y132383D01*
X454330Y135133D01*
G01X452303D02*
X453507Y132383D01*
G01X456200Y130133D02*
X460000D01*
G01X463707Y134467D02*
X463960Y134717D01*
X464150Y135133D01*
X464277Y135717D01*
X464150Y136217D01*
X463897Y136550D01*
X463453Y136800D01*
X461743D01*
Y131800D01*
X463833D01*
X464277Y132133D01*
X464530Y132633D01*
X464657Y133217D01*
X464530Y133800D01*
X464150Y134300D01*
X463707Y134467D01*
X461743D01*
G01X467033Y136800D02*
Y131800D01*
X469567D01*
G01X471500Y130133D02*
X475300D01*
G01X476917Y136800D02*
X478500Y131800D01*
X480083Y136800D01*
G01X483600D02*
X483093Y136633D01*
X482713Y136217D01*
X482460Y135717D01*
X482270Y135050D01*
X482207Y134300D01*
X482270Y133550D01*
X482460Y132883D01*
X482713Y132383D01*
X483093Y131967D01*
X483600Y131800D01*
X484107Y131967D01*
X484487Y132383D01*
X484740Y132883D01*
X484930Y133550D01*
X484993Y134300D01*
X484930Y135050D01*
X484740Y135717D01*
X484487Y136217D01*
X484107Y136633D01*
X483600Y136800D01*
G01X486800Y130133D02*
X490600D01*
G01X493800Y136800D02*
X493293Y136633D01*
X492913Y136217D01*
X492660Y135717D01*
X492470Y135050D01*
X492407Y134300D01*
X492470Y133550D01*
X492660Y132883D01*
X492913Y132383D01*
X493293Y131967D01*
X493800Y131800D01*
X494307Y131967D01*
X494687Y132383D01*
X494940Y132883D01*
X495130Y133550D01*
X495193Y134300D01*
X495130Y135050D01*
X494940Y135717D01*
X494687Y136217D01*
X494307Y136633D01*
X493800Y136800D01*
G01X416767Y-353200D02*
X413033D01*
Y-345700D01*
X416767D01*
G01X415273Y-349325D02*
X413033D01*
G01X419973Y-353200D02*
Y-345700D01*
X422400Y-351950D01*
X424827Y-345700D01*
Y-353200D01*
G01X431767D02*
X428033D01*
Y-345700D01*
X431767D01*
G01X430273Y-349325D02*
X428033D01*
G01X435533Y-353200D02*
Y-345700D01*
X437867D01*
X438613Y-346075D01*
X439080Y-346575D01*
X439267Y-347575D01*
X439080Y-348575D01*
X438520Y-349200D01*
X437867Y-349575D01*
X435533D01*
G01X437867D02*
X439267Y-353200D01*
G01X445460Y-349450D02*
X447327D01*
Y-351700D01*
X446767Y-352450D01*
X446113Y-352950D01*
X445180Y-353200D01*
X444247Y-352950D01*
X443593Y-352450D01*
X443033Y-351700D01*
X442660Y-350825D01*
X442473Y-349825D01*
Y-348950D01*
X442660Y-348200D01*
X443033Y-347325D01*
X443593Y-346575D01*
X444153Y-346075D01*
X444900Y-345700D01*
X445553D01*
X446300Y-345950D01*
X446860Y-346450D01*
G01X452400Y-353450D02*
X452213Y-353325D01*
Y-353075D01*
X452400Y-352950D01*
X452587Y-353075D01*
Y-353325D01*
X452400Y-353450D01*
G01X427986Y-305813D02*
X427756Y-305658D01*
X427488Y-305555D01*
X427181D01*
X426836Y-305710D01*
X426568Y-305968D01*
X426376Y-306278D01*
X426223Y-306795D01*
X426185Y-307260D01*
X426261Y-307725D01*
X426376Y-308035D01*
X426606Y-308345D01*
X426875Y-308552D01*
X427143Y-308655D01*
X427411D01*
X427680Y-308552D01*
X427910Y-308397D01*
X428101Y-308190D01*
G01X429515Y-307363D02*
X429783Y-307002D01*
X430013Y-306795D01*
X430320Y-306692D01*
X430588Y-306795D01*
X430780Y-307002D01*
X430933Y-307312D01*
X430971Y-307673D01*
X430933Y-307983D01*
X430780Y-308293D01*
X430550Y-308552D01*
X430281Y-308655D01*
X429975Y-308552D01*
X429706Y-308242D01*
X429553Y-307777D01*
X429515Y-307260D01*
X429591Y-306588D01*
X429706Y-306227D01*
X429898Y-305865D01*
X430166Y-305607D01*
X430435Y-305555D01*
X430703Y-305658D01*
X430895Y-305917D01*
G01X421353Y120800D02*
Y125800D01*
X423000Y121633D01*
X424647Y125800D01*
Y120800D01*
G01X429240D02*
Y124133D01*
G01Y123550D02*
X428987Y123883D01*
X428607Y124050D01*
X428163Y124133D01*
X427720Y123967D01*
X427340Y123633D01*
X427087Y123133D01*
X426960Y122467D01*
X427087Y121800D01*
X427340Y121300D01*
X427720Y120967D01*
X428163Y120800D01*
X428607Y120883D01*
X428987Y121133D01*
X429240Y121466D01*
G01X434340Y125800D02*
Y120800D01*
G01Y121550D02*
X434087Y121133D01*
X433707Y120883D01*
X433263Y120800D01*
X432757Y120967D01*
X432377Y121383D01*
X432123Y121883D01*
X432060Y122467D01*
X432123Y123050D01*
X432377Y123550D01*
X432757Y123967D01*
X433263Y124133D01*
X433707Y124050D01*
X434023Y123883D01*
X434340Y123550D01*
G01X437350Y123050D02*
X439377D01*
X439187Y123633D01*
X438870Y123967D01*
X438427Y124133D01*
X437983Y124050D01*
X437603Y123800D01*
X437350Y123217D01*
X437223Y122717D01*
Y122217D01*
X437350Y121717D01*
X437667Y121217D01*
X438047Y120883D01*
X438490Y120800D01*
X438933Y120967D01*
X439377Y121466D01*
G01X448500Y124133D02*
Y120800D01*
G01Y125467D02*
X448373Y125550D01*
Y125717D01*
X448500Y125800D01*
X448627Y125717D01*
Y125550D01*
X448500Y125467D01*
G01X452523Y120800D02*
Y124133D01*
G01Y123300D02*
X452777Y123717D01*
X453157Y124050D01*
X453663Y124133D01*
X454107Y124050D01*
X454487Y123717D01*
X454677Y123133D01*
Y120800D01*
G01X463800Y125800D02*
Y120800D01*
G01X462343Y125800D02*
X465257D01*
G01X467507D02*
Y122217D01*
X467760Y121466D01*
X468267Y120967D01*
X468900Y120800D01*
X469533Y120967D01*
X470040Y121466D01*
X470293Y122217D01*
Y125800D01*
G01X472733Y120800D02*
Y125800D01*
X474317D01*
X474823Y125550D01*
X475140Y125217D01*
X475267Y124550D01*
X475140Y123883D01*
X474760Y123467D01*
X474317Y123217D01*
X472733D01*
G01X474317D02*
X475267Y120800D01*
G01X477707D02*
Y125800D01*
G01X480113D02*
X477707Y122717D01*
G01X480493Y120800D02*
X478783Y124133D01*
G01X483440Y125800D02*
X484960D01*
G01X484200D02*
Y120800D01*
G01X483440D02*
X484960D01*
G01X489300D02*
Y123050D01*
X488033Y125800D01*
G01X490567D02*
X489300Y123050D01*
G01X495667Y120800D02*
X493133D01*
Y125800D01*
X495667D01*
G01X494653Y123383D02*
X493133D01*
G01X433874Y-319982D02*
X432354D01*
G01X433177Y-321065D02*
Y-318898D01*
G01X433874Y-319982D02*
X432354D01*
G01X433177Y-321065D02*
Y-318898D01*
G01X433874Y-319982D02*
X432354D01*
G01X433177Y-321065D02*
Y-318898D01*
G01X433874Y-319982D02*
X432354D01*
G01X433177Y-321065D02*
Y-318898D01*
G01X456354Y-402791D02*
X456546Y-403101D01*
X456776Y-403308D01*
X457044Y-403411D01*
X457351Y-403308D01*
X457581Y-403101D01*
X457811Y-402791D01*
X457887Y-402378D01*
Y-400311D01*
G01X460221Y-403411D02*
Y-400311D01*
X459761Y-400931D01*
G01Y-403411D02*
X460681D01*
G01X462477Y-402946D02*
X462707Y-403204D01*
X462976Y-403359D01*
X463321Y-403411D01*
X463666Y-403308D01*
X463934Y-403101D01*
X464126Y-402739D01*
X464164Y-402326D01*
X464087Y-401913D01*
X463896Y-401654D01*
X463627Y-401448D01*
X463359Y-401396D01*
X463091Y-401448D01*
X462746Y-401654D01*
X462861Y-400311D01*
X463896D01*
G01X460000Y113500D02*
X459493Y113333D01*
X459113Y112917D01*
X458860Y112417D01*
X458670Y111750D01*
X458607Y111000D01*
X458670Y110250D01*
X458860Y109583D01*
X459113Y109083D01*
X459493Y108667D01*
X460000Y108500D01*
X460507Y108667D01*
X460887Y109083D01*
X461140Y109583D01*
X461330Y110250D01*
X461393Y111000D01*
X461330Y111750D01*
X461140Y112417D01*
X460887Y112917D01*
X460507Y113333D01*
X460000Y113500D01*
G01X463707Y109500D02*
X464087Y108917D01*
X464593Y108583D01*
X465163Y108500D01*
X465670Y108583D01*
X466177Y109000D01*
X466493Y109500D01*
X466557Y110000D01*
X466430Y110583D01*
X465987Y111000D01*
X465543Y111167D01*
X464973D01*
G01X465543D02*
X465923Y111417D01*
X466240Y111833D01*
X466367Y112333D01*
X466240Y112833D01*
X465923Y113250D01*
X465353Y113500D01*
X464783Y113417D01*
X464213Y113083D01*
G01X469060Y108333D02*
X471340Y113500D01*
G01X474097Y112667D02*
X474477Y113167D01*
X474920Y113417D01*
X475427Y113500D01*
X476060Y113333D01*
X476503Y112917D01*
X476630Y112417D01*
X476567Y111916D01*
X476313Y111500D01*
X475047Y110667D01*
X474477Y110083D01*
X474097Y109250D01*
X473970Y108500D01*
X476630D01*
G01X480400Y113500D02*
X479893Y113333D01*
X479513Y112917D01*
X479260Y112417D01*
X479070Y111750D01*
X479007Y111000D01*
X479070Y110250D01*
X479260Y109583D01*
X479513Y109083D01*
X479893Y108667D01*
X480400Y108500D01*
X480907Y108667D01*
X481287Y109083D01*
X481540Y109583D01*
X481730Y110250D01*
X481793Y111000D01*
X481730Y111750D01*
X481540Y112417D01*
X481287Y112917D01*
X480907Y113333D01*
X480400Y113500D01*
G01X484297Y112667D02*
X484677Y113167D01*
X485120Y113417D01*
X485627Y113500D01*
X486260Y113333D01*
X486703Y112917D01*
X486830Y112417D01*
X486767Y111916D01*
X486513Y111500D01*
X485247Y110667D01*
X484677Y110083D01*
X484297Y109250D01*
X484170Y108500D01*
X486830D01*
G01X489397Y112667D02*
X489777Y113167D01*
X490220Y113417D01*
X490727Y113500D01*
X491360Y113333D01*
X491803Y112917D01*
X491930Y112417D01*
X491867Y111916D01*
X491613Y111500D01*
X490347Y110667D01*
X489777Y110083D01*
X489397Y109250D01*
X489270Y108500D01*
X491930D01*
G01X469427Y-345000D02*
X472973D01*
X469427Y-352500D01*
X472973D01*
G01X476927Y-346250D02*
X477487Y-345500D01*
X478140Y-345125D01*
X478887Y-345000D01*
X479820Y-345250D01*
X480473Y-345875D01*
X480660Y-346625D01*
X480567Y-347375D01*
X480193Y-348000D01*
X478327Y-349250D01*
X477487Y-350125D01*
X476927Y-351375D01*
X476740Y-352500D01*
X480660D01*
G01X483400Y-355000D02*
X489000D01*
G01X491833Y-345000D02*
Y-352500D01*
X495567D01*
G01X498773D02*
Y-345000D01*
X501200Y-351250D01*
X503627Y-345000D01*
Y-352500D01*
G01X508700Y-345000D02*
Y-352500D01*
G01X506553Y-345000D02*
X510847D01*
G01X490794Y-308913D02*
X490564Y-308758D01*
X490296Y-308655D01*
X489989D01*
X489644Y-308810D01*
X489376Y-309068D01*
X489184Y-309378D01*
X489031Y-309895D01*
X488993Y-310360D01*
X489069Y-310825D01*
X489184Y-311135D01*
X489414Y-311445D01*
X489683Y-311652D01*
X489951Y-311755D01*
X490219D01*
X490488Y-311652D01*
X490718Y-311497D01*
X490909Y-311290D01*
G01X492208D02*
X492438Y-311548D01*
X492706Y-311703D01*
X493051Y-311755D01*
X493396Y-311652D01*
X493664Y-311445D01*
X493856Y-311083D01*
X493894Y-310670D01*
X493818Y-310257D01*
X493626Y-309998D01*
X493358Y-309792D01*
X493089Y-309740D01*
X492821Y-309792D01*
X492476Y-309998D01*
X492591Y-308655D01*
X493626D01*
G01X496866Y-319982D02*
X495346D01*
G01X496169Y-321065D02*
Y-318898D01*
G01X496866Y-319982D02*
X495346D01*
G01X496169Y-321065D02*
Y-318898D01*
G01X496866Y-319982D02*
X495346D01*
G01X496169Y-321065D02*
Y-318898D01*
G01X496866Y-319982D02*
X495346D01*
G01X496169Y-321065D02*
Y-318898D01*
G01X516054Y-403391D02*
X516246Y-403701D01*
X516476Y-403908D01*
X516744Y-404011D01*
X517051Y-403908D01*
X517281Y-403701D01*
X517511Y-403391D01*
X517587Y-402978D01*
Y-400911D01*
G01X519921Y-404011D02*
Y-400911D01*
X519461Y-401531D01*
G01Y-404011D02*
X520381D01*
G01X522292Y-401428D02*
X522522Y-401118D01*
X522791Y-400963D01*
X523097Y-400911D01*
X523481Y-401014D01*
X523749Y-401273D01*
X523826Y-401583D01*
X523787Y-401893D01*
X523634Y-402151D01*
X522867Y-402668D01*
X522522Y-403029D01*
X522292Y-403546D01*
X522216Y-404011D01*
X523826D01*
G01X529527Y-346300D02*
X533073D01*
X529527Y-353800D01*
X533073D01*
G01X538800D02*
Y-346300D01*
X537680Y-347800D01*
G01Y-353800D02*
X539920D01*
G01X543500Y-356300D02*
X549100D01*
G01X551933Y-346300D02*
Y-353800D01*
X555667D01*
G01X558873D02*
Y-346300D01*
X561300Y-352550D01*
X563727Y-346300D01*
Y-353800D01*
G01X568800Y-346300D02*
Y-353800D01*
G01X566653Y-346300D02*
X570947D01*
G01X545476Y-307413D02*
X545246Y-307258D01*
X544978Y-307155D01*
X544671D01*
X544326Y-307310D01*
X544058Y-307568D01*
X543866Y-307878D01*
X543713Y-308395D01*
X543675Y-308860D01*
X543751Y-309325D01*
X543866Y-309635D01*
X544096Y-309945D01*
X544365Y-310152D01*
X544633Y-310255D01*
X544901D01*
X545170Y-310152D01*
X545400Y-309997D01*
X545591Y-309790D01*
G01X548193Y-310255D02*
Y-307155D01*
X546775Y-309377D01*
X548691D01*
G01X551984Y-319982D02*
X550464D01*
G01X551287Y-321065D02*
Y-318898D01*
G01X551984Y-319982D02*
X550464D01*
G01X551287Y-321065D02*
Y-318898D01*
G01X551984Y-319982D02*
X550464D01*
G01X551287Y-321065D02*
Y-318898D01*
G01X551984Y-319982D02*
X550464D01*
G01X551287Y-321065D02*
Y-318898D01*
G01X576654Y-402591D02*
X576846Y-402901D01*
X577076Y-403108D01*
X577344Y-403211D01*
X577651Y-403108D01*
X577881Y-402901D01*
X578111Y-402591D01*
X578187Y-402178D01*
Y-400111D01*
G01X579869Y-402849D02*
X580137Y-403108D01*
X580444Y-403211D01*
X580751Y-403108D01*
X581019Y-402798D01*
X581211Y-402333D01*
X581287Y-401868D01*
Y-401299D01*
X581211Y-400834D01*
X581019Y-400421D01*
X580789Y-400214D01*
X580521Y-400111D01*
X580214Y-400214D01*
X579984Y-400421D01*
X579831Y-400731D01*
X579754Y-401144D01*
X579831Y-401506D01*
X580022Y-401868D01*
X580252Y-402074D01*
X580521Y-402126D01*
X580827Y-402023D01*
X581057Y-401764D01*
X581287Y-401299D01*
G01X594900Y-353300D02*
Y-349925D01*
X593033Y-345800D01*
G01X596767D02*
X594900Y-349925D01*
G01X599600Y-355800D02*
X605200D01*
G01X608033Y-345800D02*
Y-353300D01*
X611767D01*
G01X614973D02*
Y-345800D01*
X617400Y-352050D01*
X619827Y-345800D01*
Y-353300D01*
G01X624900Y-345800D02*
Y-353300D01*
G01X622753Y-345800D02*
X627047D01*
G01X608984Y-308913D02*
X608754Y-308758D01*
X608486Y-308655D01*
X608179D01*
X607834Y-308810D01*
X607566Y-309068D01*
X607374Y-309378D01*
X607221Y-309895D01*
X607183Y-310360D01*
X607259Y-310825D01*
X607374Y-311135D01*
X607604Y-311445D01*
X607873Y-311652D01*
X608141Y-311755D01*
X608409D01*
X608678Y-311652D01*
X608908Y-311497D01*
X609099Y-311290D01*
G01X610398Y-311135D02*
X610628Y-311497D01*
X610934Y-311703D01*
X611279Y-311755D01*
X611586Y-311703D01*
X611893Y-311445D01*
X612084Y-311135D01*
X612123Y-310825D01*
X612046Y-310463D01*
X611778Y-310205D01*
X611509Y-310102D01*
X611164D01*
G01X611509D02*
X611739Y-309947D01*
X611931Y-309688D01*
X612008Y-309378D01*
X611931Y-309068D01*
X611739Y-308810D01*
X611394Y-308655D01*
X611049Y-308707D01*
X610704Y-308913D01*
G01X614976Y-319982D02*
X613456D01*
G01X614279Y-321065D02*
Y-318898D01*
G01X614976Y-319982D02*
X613456D01*
G01X614279Y-321065D02*
Y-318898D01*
G01X614976Y-319982D02*
X613456D01*
G01X614279Y-321065D02*
Y-318898D01*
G01X614976Y-319982D02*
X613456D01*
G01X614279Y-321065D02*
Y-318898D01*
G01X636354Y-402291D02*
X636546Y-402601D01*
X636776Y-402808D01*
X637044Y-402911D01*
X637351Y-402808D01*
X637581Y-402601D01*
X637811Y-402291D01*
X637887Y-401878D01*
Y-399811D01*
G01X639377Y-402291D02*
X639607Y-402653D01*
X639914Y-402859D01*
X640259Y-402911D01*
X640566Y-402859D01*
X640872Y-402601D01*
X641064Y-402291D01*
X641102Y-401981D01*
X641026Y-401619D01*
X640757Y-401361D01*
X640489Y-401258D01*
X640144D01*
G01X640489D02*
X640719Y-401103D01*
X640911Y-400844D01*
X640987Y-400534D01*
X640911Y-400224D01*
X640719Y-399966D01*
X640374Y-399811D01*
X640029Y-399863D01*
X639684Y-400069D01*
G01X650640Y-353500D02*
X654560Y-346000D01*
G01X650640D02*
X654560Y-353500D01*
G01X660100D02*
Y-346000D01*
X658980Y-347500D01*
G01Y-353500D02*
X661220D01*
G01X664800Y-356000D02*
X670400D01*
G01X673233Y-346000D02*
Y-353500D01*
X676967D01*
G01X680173D02*
Y-346000D01*
X682600Y-352250D01*
X685027Y-346000D01*
Y-353500D01*
G01X690100Y-346000D02*
Y-353500D01*
G01X687953Y-346000D02*
X692247D01*
G01X646798Y-31059D02*
X646990Y-31369D01*
X647220Y-31576D01*
X647488Y-31679D01*
X647794Y-31576D01*
X648024Y-31369D01*
X648254Y-31059D01*
X648331Y-30646D01*
Y-28579D01*
G01X649936Y-29096D02*
X650166Y-28786D01*
X650435Y-28631D01*
X650741Y-28579D01*
X651124Y-28682D01*
X651393Y-28941D01*
X651470Y-29251D01*
X651431Y-29561D01*
X651278Y-29819D01*
X650511Y-30336D01*
X650166Y-30698D01*
X649936Y-31214D01*
X649860Y-31679D01*
X651470D01*
G01X667229Y-308213D02*
X666999Y-308058D01*
X666731Y-307955D01*
X666424D01*
X666079Y-308110D01*
X665811Y-308368D01*
X665619Y-308678D01*
X665466Y-309195D01*
X665428Y-309660D01*
X665504Y-310125D01*
X665619Y-310435D01*
X665849Y-310745D01*
X666118Y-310952D01*
X666386Y-311055D01*
X666654D01*
X666923Y-310952D01*
X667153Y-310797D01*
X667344Y-310590D01*
G01X669486Y-311055D02*
Y-307955D01*
X669026Y-308575D01*
G01Y-311055D02*
X669946D01*
G01X674031Y-319982D02*
X672511D01*
G01X673334Y-321065D02*
Y-318898D01*
G01X674031Y-319982D02*
X672511D01*
G01X673334Y-321065D02*
Y-318898D01*
G01X674031Y-319982D02*
X672511D01*
G01X673334Y-321065D02*
Y-318898D01*
G01X674031Y-319982D02*
X672511D01*
G01X673334Y-321065D02*
Y-318898D01*
G01X697054Y-403191D02*
X697246Y-403501D01*
X697476Y-403708D01*
X697744Y-403811D01*
X698051Y-403708D01*
X698281Y-403501D01*
X698511Y-403191D01*
X698587Y-402778D01*
Y-400711D01*
G01X701381Y-403811D02*
Y-400711D01*
X699962Y-402933D01*
X701879D01*
G01X703667Y-345900D02*
X706000Y-353400D01*
X708333Y-345900D01*
G01X711167Y-353400D02*
X713500Y-345900D01*
X715833Y-353400D01*
G01X714993Y-350775D02*
X712007D01*
G01X723053Y-346525D02*
X722493Y-346150D01*
X721840Y-345900D01*
X721093D01*
X720253Y-346275D01*
X719600Y-346900D01*
X719133Y-347650D01*
X718760Y-348900D01*
X718667Y-350025D01*
X718853Y-351150D01*
X719133Y-351900D01*
X719693Y-352650D01*
X720347Y-353150D01*
X721000Y-353400D01*
X721653D01*
X722307Y-353150D01*
X722867Y-352775D01*
X723333Y-352275D01*
G01X726447Y-345900D02*
Y-351275D01*
X726820Y-352400D01*
X727567Y-353150D01*
X728500Y-353400D01*
X729433Y-353150D01*
X730180Y-352400D01*
X730553Y-351275D01*
Y-345900D01*
G01X733573Y-353400D02*
Y-345900D01*
X736000Y-352150D01*
X738427Y-345900D01*
Y-353400D01*
G01X740700Y-355900D02*
X746300D01*
G01X751000Y-353400D02*
Y-345900D01*
X749880Y-347400D01*
G01Y-353400D02*
X752120D01*
G01X693657Y-199542D02*
Y-196442D01*
X694423D01*
X694730Y-196597D01*
X694960Y-196803D01*
X695152Y-197113D01*
X695305Y-197475D01*
X695343Y-197992D01*
X695305Y-198508D01*
X695152Y-198870D01*
X694960Y-199180D01*
X694730Y-199387D01*
X694423Y-199542D01*
X693657D01*
G01X697600D02*
Y-196442D01*
X697140Y-197062D01*
G01Y-199542D02*
X698060D01*
G01X716050Y-326298D02*
Y-323198D01*
X717009D01*
X717315Y-323353D01*
X717507Y-323560D01*
X717584Y-323973D01*
X717507Y-324386D01*
X717277Y-324645D01*
X717009Y-324800D01*
X716050D01*
G01X717009D02*
X717584Y-326298D01*
G01X719074Y-325678D02*
X719304Y-326040D01*
X719610Y-326246D01*
X719955Y-326298D01*
X720262Y-326246D01*
X720569Y-325988D01*
X720760Y-325678D01*
X720799Y-325368D01*
X720722Y-325006D01*
X720454Y-324748D01*
X720185Y-324645D01*
X719840D01*
G01X720185D02*
X720415Y-324490D01*
X720607Y-324231D01*
X720684Y-323921D01*
X720607Y-323611D01*
X720415Y-323353D01*
X720070Y-323198D01*
X719725Y-323250D01*
X719380Y-323456D01*
G01X722289Y-323715D02*
X722519Y-323405D01*
X722787Y-323250D01*
X723094Y-323198D01*
X723477Y-323301D01*
X723745Y-323560D01*
X723822Y-323870D01*
X723784Y-324180D01*
X723630Y-324438D01*
X722864Y-324955D01*
X722519Y-325316D01*
X722289Y-325833D01*
X722212Y-326298D01*
X723822D01*
G01X731426Y-326245D02*
Y-323145D01*
X732192D01*
X732499Y-323300D01*
X732729Y-323507D01*
X732921Y-323817D01*
X733074Y-324178D01*
X733112Y-324695D01*
X733074Y-325212D01*
X732921Y-325573D01*
X732729Y-325883D01*
X732499Y-326090D01*
X732192Y-326245D01*
X731426D01*
G01X735369D02*
Y-323145D01*
X734909Y-323765D01*
G01Y-326245D02*
X735829D01*
G01X737741Y-323662D02*
X737971Y-323352D01*
X738239Y-323197D01*
X738546Y-323145D01*
X738929Y-323248D01*
X739197Y-323507D01*
X739274Y-323817D01*
X739236Y-324127D01*
X739082Y-324385D01*
X738316Y-324902D01*
X737971Y-325263D01*
X737741Y-325780D01*
X737664Y-326245D01*
X739274D01*
G01X739620Y-177653D02*
Y-174553D01*
X740579D01*
X740885Y-174708D01*
X741077Y-174915D01*
X741154Y-175328D01*
X741077Y-175741D01*
X740847Y-176000D01*
X740579Y-176155D01*
X739620D01*
G01X740579D02*
X741154Y-177653D01*
G01X743487D02*
Y-174553D01*
X743027Y-175173D01*
G01Y-177653D02*
X743947D01*
G01X757254Y-403491D02*
X757446Y-403801D01*
X757676Y-404008D01*
X757944Y-404111D01*
X758251Y-404008D01*
X758481Y-403801D01*
X758711Y-403491D01*
X758787Y-403078D01*
Y-401011D01*
G01X760392Y-402819D02*
X760661Y-402458D01*
X760891Y-402251D01*
X761197Y-402148D01*
X761466Y-402251D01*
X761657Y-402458D01*
X761811Y-402768D01*
X761849Y-403129D01*
X761811Y-403439D01*
X761657Y-403749D01*
X761427Y-404008D01*
X761159Y-404111D01*
X760852Y-404008D01*
X760584Y-403698D01*
X760431Y-403233D01*
X760392Y-402716D01*
X760469Y-402044D01*
X760584Y-401683D01*
X760776Y-401321D01*
X761044Y-401063D01*
X761312Y-401011D01*
X761581Y-401114D01*
X761772Y-401373D01*
G01X762967Y-345800D02*
X765300Y-353300D01*
X767633Y-345800D01*
G01X770467Y-353300D02*
X772800Y-345800D01*
X775133Y-353300D01*
G01X774293Y-350675D02*
X771307D01*
G01X782353Y-346425D02*
X781793Y-346050D01*
X781140Y-345800D01*
X780393D01*
X779553Y-346175D01*
X778900Y-346800D01*
X778433Y-347550D01*
X778060Y-348800D01*
X777967Y-349925D01*
X778153Y-351050D01*
X778433Y-351800D01*
X778993Y-352550D01*
X779647Y-353050D01*
X780300Y-353300D01*
X780953D01*
X781607Y-353050D01*
X782167Y-352675D01*
X782633Y-352175D01*
G01X785747Y-345800D02*
Y-351175D01*
X786120Y-352300D01*
X786867Y-353050D01*
X787800Y-353300D01*
X788733Y-353050D01*
X789480Y-352300D01*
X789853Y-351175D01*
Y-345800D01*
G01X792873Y-353300D02*
Y-345800D01*
X795300Y-352050D01*
X797727Y-345800D01*
Y-353300D01*
G01X800000Y-355800D02*
X805600D01*
G01X808527Y-347050D02*
X809087Y-346300D01*
X809740Y-345925D01*
X810487Y-345800D01*
X811420Y-346050D01*
X812073Y-346675D01*
X812260Y-347425D01*
X812167Y-348175D01*
X811793Y-348800D01*
X809927Y-350050D01*
X809087Y-350925D01*
X808527Y-352175D01*
X808340Y-353300D01*
X812260D01*
G01X749434Y-303850D02*
X752534D01*
G01Y-305307D02*
X750622Y-303850D01*
G01X749434Y-305537D02*
X751501Y-304502D01*
G01X749434Y-307794D02*
X752534D01*
X751914Y-307334D01*
G01X749434D02*
Y-308254D01*
G01X749174Y-198533D02*
X749226Y-198227D01*
X749432Y-197958D01*
X749742Y-197728D01*
X750104Y-197575D01*
X750517Y-197498D01*
X750931D01*
X751344Y-197575D01*
X751706Y-197728D01*
X752016Y-197958D01*
X752222Y-198227D01*
X752274Y-198533D01*
X752222Y-198840D01*
X752016Y-199108D01*
X751706Y-199338D01*
X751344Y-199492D01*
X750931Y-199568D01*
X750517D01*
X750104Y-199492D01*
X749742Y-199338D01*
X749432Y-199108D01*
X749226Y-198840D01*
X749174Y-198533D01*
G01X750001Y-198840D02*
X749174Y-199300D01*
G01Y-201633D02*
X752274D01*
X751654Y-201173D01*
G01X749174D02*
Y-202093D01*
G01X775024Y-326698D02*
Y-323598D01*
X775983D01*
X776289Y-323753D01*
X776481Y-323960D01*
X776558Y-324373D01*
X776481Y-324786D01*
X776251Y-325045D01*
X775983Y-325200D01*
X775024D01*
G01X775983D02*
X776558Y-326698D01*
G01X778048Y-326078D02*
X778278Y-326440D01*
X778584Y-326646D01*
X778929Y-326698D01*
X779236Y-326646D01*
X779543Y-326388D01*
X779734Y-326078D01*
X779773Y-325768D01*
X779696Y-325406D01*
X779428Y-325148D01*
X779159Y-325045D01*
X778814D01*
G01X779159D02*
X779389Y-324890D01*
X779581Y-324631D01*
X779658Y-324321D01*
X779581Y-324011D01*
X779389Y-323753D01*
X779044Y-323598D01*
X778699Y-323650D01*
X778354Y-323856D01*
G01X781148Y-326078D02*
X781378Y-326440D01*
X781684Y-326646D01*
X782029Y-326698D01*
X782336Y-326646D01*
X782643Y-326388D01*
X782834Y-326078D01*
X782873Y-325768D01*
X782796Y-325406D01*
X782528Y-325148D01*
X782259Y-325045D01*
X781914D01*
G01X782259D02*
X782489Y-324890D01*
X782681Y-324631D01*
X782758Y-324321D01*
X782681Y-324011D01*
X782489Y-323753D01*
X782144Y-323598D01*
X781799Y-323650D01*
X781454Y-323856D01*
G01X777057Y-198642D02*
Y-195542D01*
X777823D01*
X778130Y-195697D01*
X778360Y-195903D01*
X778552Y-196213D01*
X778705Y-196575D01*
X778743Y-197092D01*
X778705Y-197608D01*
X778552Y-197970D01*
X778360Y-198280D01*
X778130Y-198487D01*
X777823Y-198642D01*
X777057D01*
G01X780272Y-196058D02*
X780502Y-195748D01*
X780770Y-195593D01*
X781077Y-195542D01*
X781460Y-195645D01*
X781728Y-195903D01*
X781805Y-196213D01*
X781767Y-196523D01*
X781613Y-196782D01*
X780847Y-197298D01*
X780502Y-197660D01*
X780272Y-198177D01*
X780195Y-198642D01*
X781805D01*
G01X775650Y71272D02*
Y74372D01*
X776609D01*
X776915Y74217D01*
X777107Y74010D01*
X777184Y73597D01*
X777107Y73184D01*
X776877Y72925D01*
X776609Y72770D01*
X775650D01*
G01X776609D02*
X777184Y71272D01*
G01X779517D02*
Y74372D01*
X779057Y73752D01*
G01Y71272D02*
X779977D01*
G01X782617D02*
X782885Y71324D01*
X783192Y71479D01*
X783384Y71737D01*
X783460Y72099D01*
X783384Y72460D01*
X783154Y72770D01*
X782809Y72925D01*
X782425D01*
X782195Y73029D01*
X782004Y73287D01*
X781927Y73649D01*
X782042Y74010D01*
X782310Y74269D01*
X782617Y74372D01*
X782924Y74269D01*
X783192Y74010D01*
X783307Y73649D01*
X783230Y73287D01*
X783039Y73029D01*
X782809Y72925D01*
X782425D01*
X782080Y72770D01*
X781850Y72460D01*
X781774Y72099D01*
X781850Y71737D01*
X782042Y71479D01*
X782349Y71324D01*
X782617Y71272D01*
G01X791926Y-326545D02*
Y-323445D01*
X792692D01*
X792999Y-323600D01*
X793229Y-323807D01*
X793421Y-324117D01*
X793574Y-324478D01*
X793612Y-324995D01*
X793574Y-325512D01*
X793421Y-325873D01*
X793229Y-326183D01*
X792999Y-326390D01*
X792692Y-326545D01*
X791926D01*
G01X795869D02*
Y-323445D01*
X795409Y-324065D01*
G01Y-326545D02*
X796329D01*
G01X798126Y-325925D02*
X798356Y-326287D01*
X798662Y-326493D01*
X799007Y-326545D01*
X799314Y-326493D01*
X799621Y-326235D01*
X799812Y-325925D01*
X799851Y-325615D01*
X799774Y-325253D01*
X799506Y-324995D01*
X799237Y-324892D01*
X798892D01*
G01X799237D02*
X799467Y-324737D01*
X799659Y-324478D01*
X799736Y-324168D01*
X799659Y-323858D01*
X799467Y-323600D01*
X799122Y-323445D01*
X798777Y-323497D01*
X798432Y-323703D01*
G01X792618Y126311D02*
Y129411D01*
X794075D01*
G01X793539Y127913D02*
X792618D01*
G01X796447Y126311D02*
Y129411D01*
X795987Y128791D01*
G01Y126311D02*
X796907D01*
G01X816754Y-403591D02*
X816946Y-403901D01*
X817176Y-404108D01*
X817444Y-404211D01*
X817751Y-404108D01*
X817981Y-403901D01*
X818211Y-403591D01*
X818287Y-403178D01*
Y-401111D01*
G01X820544Y-404211D02*
X820621Y-403539D01*
X820736Y-402971D01*
X820889Y-402454D01*
X821081Y-401886D01*
X821387Y-401111D01*
X819854D01*
G01X810090Y-75563D02*
Y-72463D01*
X811049D01*
X811355Y-72618D01*
X811547Y-72825D01*
X811624Y-73238D01*
X811547Y-73651D01*
X811317Y-73910D01*
X811049Y-74065D01*
X810090D01*
G01X811049D02*
X811624Y-75563D01*
G01X813229Y-72980D02*
X813459Y-72670D01*
X813727Y-72515D01*
X814034Y-72463D01*
X814417Y-72566D01*
X814685Y-72825D01*
X814762Y-73135D01*
X814724Y-73445D01*
X814570Y-73703D01*
X813804Y-74220D01*
X813459Y-74581D01*
X813229Y-75098D01*
X813152Y-75563D01*
X814762D01*
G01X816329Y-74271D02*
X816597Y-73910D01*
X816827Y-73703D01*
X817134Y-73600D01*
X817402Y-73703D01*
X817594Y-73910D01*
X817747Y-74220D01*
X817785Y-74581D01*
X817747Y-74891D01*
X817594Y-75201D01*
X817364Y-75460D01*
X817095Y-75563D01*
X816789Y-75460D01*
X816520Y-75150D01*
X816367Y-74685D01*
X816329Y-74168D01*
X816405Y-73496D01*
X816520Y-73135D01*
X816712Y-72773D01*
X816980Y-72515D01*
X817249Y-72463D01*
X817517Y-72566D01*
X817709Y-72825D01*
G01X810600Y-44033D02*
X810370Y-43878D01*
X810102Y-43775D01*
X809795D01*
X809450Y-43930D01*
X809182Y-44188D01*
X808990Y-44498D01*
X808837Y-45015D01*
X808799Y-45480D01*
X808875Y-45945D01*
X808990Y-46255D01*
X809220Y-46565D01*
X809489Y-46772D01*
X809757Y-46875D01*
X810025D01*
X810294Y-46772D01*
X810524Y-46617D01*
X810715Y-46410D01*
G01X812129Y-44292D02*
X812359Y-43982D01*
X812627Y-43827D01*
X812934Y-43775D01*
X813317Y-43878D01*
X813585Y-44137D01*
X813662Y-44447D01*
X813624Y-44757D01*
X813470Y-45015D01*
X812704Y-45532D01*
X812359Y-45893D01*
X812129Y-46410D01*
X812052Y-46875D01*
X813662D01*
G01X815305Y-46513D02*
X815574Y-46772D01*
X815880Y-46875D01*
X816187Y-46772D01*
X816455Y-46462D01*
X816647Y-45997D01*
X816724Y-45532D01*
Y-44963D01*
X816647Y-44498D01*
X816455Y-44085D01*
X816225Y-43878D01*
X815957Y-43775D01*
X815650Y-43878D01*
X815420Y-44085D01*
X815267Y-44395D01*
X815190Y-44808D01*
X815267Y-45170D01*
X815459Y-45532D01*
X815689Y-45738D01*
X815957Y-45790D01*
X816264Y-45687D01*
X816494Y-45428D01*
X816724Y-44963D01*
G01X809790Y-60419D02*
Y-57319D01*
X810749D01*
X811055Y-57474D01*
X811247Y-57681D01*
X811324Y-58094D01*
X811247Y-58507D01*
X811017Y-58766D01*
X810749Y-58921D01*
X809790D01*
G01X810749D02*
X811324Y-60419D01*
G01X812929Y-57836D02*
X813159Y-57526D01*
X813427Y-57371D01*
X813734Y-57319D01*
X814117Y-57422D01*
X814385Y-57681D01*
X814462Y-57991D01*
X814424Y-58301D01*
X814270Y-58559D01*
X813504Y-59076D01*
X813159Y-59437D01*
X812929Y-59954D01*
X812852Y-60419D01*
X814462D01*
G01X817217D02*
Y-57319D01*
X815799Y-59541D01*
X817715D01*
G01X812547Y-30252D02*
X812317Y-30097D01*
X812049Y-29994D01*
X811742D01*
X811397Y-30149D01*
X811129Y-30407D01*
X810937Y-30717D01*
X810784Y-31234D01*
X810746Y-31699D01*
X810822Y-32164D01*
X810937Y-32474D01*
X811167Y-32784D01*
X811436Y-32991D01*
X811704Y-33094D01*
X811972D01*
X812241Y-32991D01*
X812471Y-32836D01*
X812662Y-32629D01*
G01X814076Y-30511D02*
X814306Y-30201D01*
X814574Y-30046D01*
X814881Y-29994D01*
X815264Y-30097D01*
X815532Y-30356D01*
X815609Y-30666D01*
X815571Y-30976D01*
X815417Y-31234D01*
X814651Y-31751D01*
X814306Y-32112D01*
X814076Y-32629D01*
X813999Y-33094D01*
X815609D01*
G01X817904D02*
X818172Y-33042D01*
X818479Y-32887D01*
X818671Y-32629D01*
X818747Y-32267D01*
X818671Y-31906D01*
X818441Y-31596D01*
X818096Y-31441D01*
X817712D01*
X817482Y-31337D01*
X817291Y-31079D01*
X817214Y-30717D01*
X817329Y-30356D01*
X817597Y-30097D01*
X817904Y-29994D01*
X818211Y-30097D01*
X818479Y-30356D01*
X818594Y-30717D01*
X818517Y-31079D01*
X818326Y-31337D01*
X818096Y-31441D01*
X817712D01*
X817367Y-31596D01*
X817137Y-31906D01*
X817061Y-32267D01*
X817137Y-32629D01*
X817329Y-32887D01*
X817636Y-33042D01*
X817904Y-33094D01*
G01X805863Y29448D02*
X805633Y29603D01*
X805365Y29706D01*
X805058D01*
X804713Y29551D01*
X804445Y29293D01*
X804253Y28983D01*
X804100Y28466D01*
X804062Y28001D01*
X804138Y27536D01*
X804253Y27226D01*
X804483Y26916D01*
X804752Y26709D01*
X805020Y26606D01*
X805288D01*
X805557Y26709D01*
X805787Y26864D01*
X805978Y27071D01*
G01X807392Y29189D02*
X807622Y29499D01*
X807890Y29654D01*
X808197Y29706D01*
X808580Y29603D01*
X808848Y29344D01*
X808925Y29034D01*
X808887Y28724D01*
X808733Y28466D01*
X807967Y27949D01*
X807622Y27588D01*
X807392Y27071D01*
X807315Y26606D01*
X808925D01*
G01X811680D02*
Y29706D01*
X810262Y27484D01*
X812178D01*
G01X806010Y49088D02*
X805780Y49243D01*
X805512Y49346D01*
X805205D01*
X804860Y49191D01*
X804592Y48933D01*
X804400Y48623D01*
X804247Y48106D01*
X804209Y47641D01*
X804285Y47176D01*
X804400Y46866D01*
X804630Y46556D01*
X804899Y46349D01*
X805167Y46246D01*
X805435D01*
X805704Y46349D01*
X805934Y46504D01*
X806125Y46711D01*
G01X807539Y48829D02*
X807769Y49139D01*
X808037Y49294D01*
X808344Y49346D01*
X808727Y49243D01*
X808995Y48984D01*
X809072Y48674D01*
X809034Y48364D01*
X808880Y48106D01*
X808114Y47589D01*
X807769Y47228D01*
X807539Y46711D01*
X807462Y46246D01*
X809072D01*
G01X811290D02*
X811367Y46918D01*
X811482Y47486D01*
X811635Y48003D01*
X811827Y48571D01*
X812134Y49346D01*
X810600D01*
G01X828340Y-354300D02*
X832260Y-346800D01*
G01X828340D02*
X832260Y-354300D01*
G01X836027Y-348050D02*
X836587Y-347300D01*
X837240Y-346925D01*
X837987Y-346800D01*
X838920Y-347050D01*
X839573Y-347675D01*
X839760Y-348425D01*
X839667Y-349175D01*
X839293Y-349800D01*
X837427Y-351050D01*
X836587Y-351925D01*
X836027Y-353175D01*
X835840Y-354300D01*
X839760D01*
G01X842500Y-356800D02*
X848100D01*
G01X850933Y-346800D02*
Y-354300D01*
X854667D01*
G01X857873D02*
Y-346800D01*
X860300Y-353050D01*
X862727Y-346800D01*
Y-354300D01*
G01X867800Y-346800D02*
Y-354300D01*
G01X865653Y-346800D02*
X869947D01*
G01X832011Y-304550D02*
X835111D01*
G01Y-306007D02*
X833199Y-304550D01*
G01X832011Y-306237D02*
X834078Y-305202D01*
G01X834594Y-307765D02*
X834904Y-307995D01*
X835059Y-308264D01*
X835111Y-308570D01*
X835008Y-308954D01*
X834749Y-309222D01*
X834439Y-309299D01*
X834129Y-309260D01*
X833871Y-309107D01*
X833354Y-308340D01*
X832993Y-307995D01*
X832476Y-307765D01*
X832011Y-307689D01*
Y-309299D01*
G01X833674Y-198333D02*
X833726Y-198027D01*
X833932Y-197758D01*
X834242Y-197528D01*
X834604Y-197375D01*
X835017Y-197298D01*
X835431D01*
X835844Y-197375D01*
X836206Y-197528D01*
X836516Y-197758D01*
X836722Y-198027D01*
X836774Y-198333D01*
X836722Y-198640D01*
X836516Y-198908D01*
X836206Y-199138D01*
X835844Y-199292D01*
X835431Y-199368D01*
X835017D01*
X834604Y-199292D01*
X834242Y-199138D01*
X833932Y-198908D01*
X833726Y-198640D01*
X833674Y-198333D01*
G01X834501Y-198640D02*
X833674Y-199100D01*
G01X836257Y-200705D02*
X836567Y-200935D01*
X836722Y-201203D01*
X836774Y-201510D01*
X836671Y-201893D01*
X836412Y-202162D01*
X836102Y-202238D01*
X835792Y-202200D01*
X835534Y-202047D01*
X835017Y-201280D01*
X834656Y-200935D01*
X834139Y-200705D01*
X833674Y-200628D01*
Y-202238D01*
G01X821420Y-176653D02*
Y-173553D01*
X822379D01*
X822685Y-173708D01*
X822877Y-173915D01*
X822954Y-174328D01*
X822877Y-174741D01*
X822647Y-175000D01*
X822379Y-175155D01*
X821420D01*
G01X822379D02*
X822954Y-176653D01*
G01X824559Y-174070D02*
X824789Y-173760D01*
X825057Y-173605D01*
X825364Y-173553D01*
X825747Y-173656D01*
X826015Y-173915D01*
X826092Y-174225D01*
X826054Y-174535D01*
X825900Y-174793D01*
X825134Y-175310D01*
X824789Y-175671D01*
X824559Y-176188D01*
X824482Y-176653D01*
X826092D01*
G01X830492Y2737D02*
Y5837D01*
X831258D01*
X831565Y5682D01*
X831795Y5475D01*
X831987Y5165D01*
X832140Y4804D01*
X832178Y4287D01*
X832140Y3770D01*
X831987Y3409D01*
X831795Y3099D01*
X831565Y2892D01*
X831258Y2737D01*
X830492D01*
G01X834435D02*
Y5837D01*
X833975Y5217D01*
G01Y2737D02*
X834895D01*
G01X837535Y5837D02*
X837228Y5734D01*
X836998Y5475D01*
X836845Y5165D01*
X836730Y4752D01*
X836692Y4287D01*
X836730Y3822D01*
X836845Y3409D01*
X836998Y3099D01*
X837228Y2840D01*
X837535Y2737D01*
X837842Y2840D01*
X838072Y3099D01*
X838225Y3409D01*
X838340Y3822D01*
X838378Y4287D01*
X838340Y4752D01*
X838225Y5165D01*
X838072Y5475D01*
X837842Y5734D01*
X837535Y5837D01*
G01X830429Y57806D02*
Y60906D01*
X831886D01*
G01X831349Y59408D02*
X830429D01*
G01X833491Y60906D02*
Y57806D01*
X835024D01*
G01X837358D02*
Y60906D01*
X836898Y60286D01*
G01Y57806D02*
X837818D01*
G01X845764Y-306413D02*
X845534Y-306258D01*
X845266Y-306155D01*
X844959D01*
X844614Y-306310D01*
X844346Y-306568D01*
X844154Y-306878D01*
X844001Y-307395D01*
X843963Y-307860D01*
X844039Y-308325D01*
X844154Y-308635D01*
X844384Y-308945D01*
X844653Y-309152D01*
X844921Y-309255D01*
X845189D01*
X845458Y-309152D01*
X845688Y-308997D01*
X845879Y-308790D01*
G01X847293Y-306672D02*
X847523Y-306362D01*
X847791Y-306207D01*
X848098Y-306155D01*
X848481Y-306258D01*
X848749Y-306517D01*
X848826Y-306827D01*
X848788Y-307137D01*
X848634Y-307395D01*
X847868Y-307912D01*
X847523Y-308273D01*
X847293Y-308790D01*
X847216Y-309255D01*
X848826D01*
G01X852296Y-318682D02*
X850776D01*
G01X851599Y-319765D02*
Y-317598D01*
G01X852296Y-318682D02*
X850776D01*
G01X851599Y-319765D02*
Y-317598D01*
G01X852296Y-318682D02*
X850776D01*
G01X851599Y-319765D02*
Y-317598D01*
G01X852296Y-318682D02*
X850776D01*
G01X851599Y-319765D02*
Y-317598D01*
G01X847460Y147025D02*
X847652Y146715D01*
X847882Y146508D01*
X848150Y146405D01*
X848457Y146508D01*
X848687Y146715D01*
X848917Y147025D01*
X848994Y147438D01*
Y149505D01*
G01X850484Y147025D02*
X850714Y146663D01*
X851020Y146457D01*
X851365Y146405D01*
X851672Y146457D01*
X851979Y146715D01*
X852170Y147025D01*
X852209Y147335D01*
X852132Y147697D01*
X851864Y147955D01*
X851595Y148058D01*
X851250D01*
G01X851595D02*
X851825Y148213D01*
X852017Y148472D01*
X852094Y148782D01*
X852017Y149092D01*
X851825Y149350D01*
X851480Y149505D01*
X851135Y149453D01*
X850790Y149247D01*
G01X853699Y148988D02*
X853929Y149298D01*
X854197Y149453D01*
X854504Y149505D01*
X854887Y149402D01*
X855155Y149143D01*
X855232Y148833D01*
X855194Y148523D01*
X855040Y148265D01*
X854274Y147748D01*
X853929Y147387D01*
X853699Y146870D01*
X853622Y146405D01*
X855232D01*
G01X867520Y-246353D02*
Y-243253D01*
X868479D01*
X868785Y-243408D01*
X868977Y-243615D01*
X869054Y-244028D01*
X868977Y-244441D01*
X868747Y-244700D01*
X868479Y-244855D01*
X867520D01*
G01X868479D02*
X869054Y-246353D01*
G01X871847D02*
Y-243253D01*
X870429Y-245475D01*
X872345D01*
G01X867920Y-235353D02*
Y-232253D01*
X868879D01*
X869185Y-232408D01*
X869377Y-232615D01*
X869454Y-233028D01*
X869377Y-233441D01*
X869147Y-233700D01*
X868879Y-233855D01*
X867920D01*
G01X868879D02*
X869454Y-235353D01*
G01X870944Y-234888D02*
X871174Y-235146D01*
X871442Y-235301D01*
X871787Y-235353D01*
X872132Y-235250D01*
X872400Y-235043D01*
X872592Y-234681D01*
X872630Y-234268D01*
X872554Y-233855D01*
X872362Y-233596D01*
X872094Y-233390D01*
X871825Y-233338D01*
X871557Y-233390D01*
X871212Y-233596D01*
X871327Y-232253D01*
X872362D01*
G01X867920Y-225753D02*
Y-222653D01*
X868879D01*
X869185Y-222808D01*
X869377Y-223015D01*
X869454Y-223428D01*
X869377Y-223841D01*
X869147Y-224100D01*
X868879Y-224255D01*
X867920D01*
G01X868879D02*
X869454Y-225753D01*
G01X871710D02*
X871787Y-225081D01*
X871902Y-224513D01*
X872055Y-223996D01*
X872247Y-223428D01*
X872554Y-222653D01*
X871020D01*
G01X858666Y-47798D02*
Y-50019D01*
X858820Y-50484D01*
X859126Y-50794D01*
X859510Y-50898D01*
X859893Y-50794D01*
X860200Y-50484D01*
X860353Y-50019D01*
Y-47798D01*
G01X861766Y-50278D02*
X861996Y-50639D01*
X862303Y-50846D01*
X862648Y-50898D01*
X862955Y-50846D01*
X863261Y-50588D01*
X863453Y-50278D01*
X863491Y-49968D01*
X863415Y-49606D01*
X863146Y-49348D01*
X862878Y-49244D01*
X862533D01*
G01X862878D02*
X863108Y-49089D01*
X863300Y-48831D01*
X863376Y-48521D01*
X863300Y-48211D01*
X863108Y-47953D01*
X862763Y-47798D01*
X862418Y-47849D01*
X862073Y-48056D01*
G01X864993Y1900D02*
Y-1200D01*
X866527D01*
G01X868132Y1383D02*
X868362Y1693D01*
X868630Y1848D01*
X868937Y1900D01*
X869320Y1797D01*
X869588Y1538D01*
X869665Y1228D01*
X869627Y918D01*
X869473Y660D01*
X868707Y143D01*
X868362Y-218D01*
X868132Y-735D01*
X868055Y-1200D01*
X869665D01*
G01X871150Y124120D02*
Y123353D01*
X870220D01*
X869910Y123583D01*
X869703Y123852D01*
X869600Y124235D01*
X869703Y124618D01*
X869910Y124887D01*
X870220Y125117D01*
X870582Y125270D01*
X870995Y125347D01*
X871357D01*
X871667Y125270D01*
X872028Y125117D01*
X872338Y124887D01*
X872545Y124657D01*
X872700Y124350D01*
Y124082D01*
X872597Y123775D01*
X872390Y123545D01*
G01X869600Y122132D02*
X872700D01*
X869600Y120368D01*
X872700D01*
G01X869600Y118993D02*
X872700D01*
Y118227D01*
X872545Y117920D01*
X872338Y117690D01*
X872028Y117498D01*
X871667Y117345D01*
X871150Y117307D01*
X870633Y117345D01*
X870272Y117498D01*
X869962Y117690D01*
X869755Y117920D01*
X869600Y118227D01*
Y118993D01*
G01X875354Y-403591D02*
X875546Y-403901D01*
X875776Y-404108D01*
X876044Y-404211D01*
X876351Y-404108D01*
X876581Y-403901D01*
X876811Y-403591D01*
X876887Y-403178D01*
Y-401111D01*
G01X878492Y-401628D02*
X878722Y-401318D01*
X878991Y-401163D01*
X879297Y-401111D01*
X879681Y-401214D01*
X879949Y-401473D01*
X880026Y-401783D01*
X879987Y-402093D01*
X879834Y-402351D01*
X879067Y-402868D01*
X878722Y-403229D01*
X878492Y-403746D01*
X878416Y-404211D01*
X880026D01*
G01X882321D02*
Y-401111D01*
X881861Y-401731D01*
G01Y-404211D02*
X882781D01*
G01X887527Y-346200D02*
X891073D01*
X887527Y-353700D01*
X891073D01*
G01X896800D02*
Y-346200D01*
X895680Y-347700D01*
G01Y-353700D02*
X897920D01*
G01X901500Y-356200D02*
X907100D01*
G01X909933Y-353700D02*
Y-346200D01*
X912173D01*
X912920Y-346575D01*
X913480Y-347450D01*
X913667Y-348450D01*
X913480Y-349450D01*
X913013Y-350200D01*
X912173Y-350575D01*
X909933D01*
G01X917433Y-353700D02*
Y-346200D01*
X919767D01*
X920513Y-346575D01*
X920980Y-347075D01*
X921167Y-348075D01*
X920980Y-349075D01*
X920420Y-349700D01*
X919767Y-350075D01*
X917433D01*
G01X919767D02*
X921167Y-353700D01*
G01X927547Y-349700D02*
X927920Y-349325D01*
X928200Y-348700D01*
X928387Y-347825D01*
X928200Y-347075D01*
X927827Y-346575D01*
X927173Y-346200D01*
X924653D01*
Y-353700D01*
X927733D01*
X928387Y-353200D01*
X928760Y-352450D01*
X928947Y-351575D01*
X928760Y-350700D01*
X928200Y-349950D01*
X927547Y-349700D01*
X924653D01*
G01X880920Y125093D02*
X880558Y124863D01*
X880352Y124557D01*
X880300Y124212D01*
X880352Y123905D01*
X880610Y123598D01*
X880920Y123407D01*
X881230Y123368D01*
X881592Y123445D01*
X881850Y123713D01*
X881953Y123982D01*
Y124327D01*
G01Y123982D02*
X882108Y123752D01*
X882367Y123560D01*
X882677Y123483D01*
X882987Y123560D01*
X883245Y123752D01*
X883400Y124097D01*
X883348Y124442D01*
X883142Y124787D01*
G01X880197Y121150D02*
X880248Y121227D01*
X880352D01*
X880403Y121150D01*
X880352Y121073D01*
X880248D01*
X880197Y121150D01*
G01X880920Y118893D02*
X880558Y118663D01*
X880352Y118357D01*
X880300Y118012D01*
X880352Y117705D01*
X880610Y117398D01*
X880920Y117207D01*
X881230Y117168D01*
X881592Y117245D01*
X881850Y117513D01*
X881953Y117782D01*
Y118127D01*
G01Y117782D02*
X882108Y117552D01*
X882367Y117360D01*
X882677Y117283D01*
X882987Y117360D01*
X883245Y117552D01*
X883400Y117897D01*
X883348Y118242D01*
X883142Y118587D01*
G01X883400Y115908D02*
X880300Y114950D01*
X883400Y113992D01*
G01X886851Y106014D02*
X886621Y106169D01*
X886353Y106272D01*
X886046D01*
X885701Y106117D01*
X885433Y105859D01*
X885241Y105549D01*
X885088Y105032D01*
X885050Y104567D01*
X885126Y104102D01*
X885241Y103792D01*
X885471Y103482D01*
X885740Y103275D01*
X886008Y103172D01*
X886276D01*
X886545Y103275D01*
X886775Y103430D01*
X886966Y103637D01*
G01X888380Y105755D02*
X888610Y106065D01*
X888878Y106220D01*
X889185Y106272D01*
X889568Y106169D01*
X889836Y105910D01*
X889913Y105600D01*
X889875Y105290D01*
X889721Y105032D01*
X888955Y104515D01*
X888610Y104154D01*
X888380Y103637D01*
X888303Y103172D01*
X889913D01*
G01X891480Y104464D02*
X891748Y104825D01*
X891978Y105032D01*
X892285Y105135D01*
X892553Y105032D01*
X892745Y104825D01*
X892898Y104515D01*
X892936Y104154D01*
X892898Y103844D01*
X892745Y103534D01*
X892515Y103275D01*
X892246Y103172D01*
X891940Y103275D01*
X891671Y103585D01*
X891518Y104050D01*
X891480Y104567D01*
X891556Y105239D01*
X891671Y105600D01*
X891863Y105962D01*
X892131Y106220D01*
X892400Y106272D01*
X892668Y106169D01*
X892860Y105910D01*
G01X906572Y-308713D02*
X906342Y-308558D01*
X906074Y-308455D01*
X905767D01*
X905422Y-308610D01*
X905154Y-308868D01*
X904962Y-309178D01*
X904809Y-309695D01*
X904771Y-310160D01*
X904847Y-310625D01*
X904962Y-310935D01*
X905192Y-311245D01*
X905461Y-311452D01*
X905729Y-311555D01*
X905997D01*
X906266Y-311452D01*
X906496Y-311297D01*
X906687Y-311090D01*
G01X908829Y-311555D02*
Y-308455D01*
X908369Y-309075D01*
G01Y-311555D02*
X909289D01*
G01X911929Y-308455D02*
X911622Y-308558D01*
X911392Y-308817D01*
X911239Y-309127D01*
X911124Y-309540D01*
X911086Y-310005D01*
X911124Y-310470D01*
X911239Y-310883D01*
X911392Y-311193D01*
X911622Y-311452D01*
X911929Y-311555D01*
X912236Y-311452D01*
X912466Y-311193D01*
X912619Y-310883D01*
X912734Y-310470D01*
X912772Y-310005D01*
X912734Y-309540D01*
X912619Y-309127D01*
X912466Y-308817D01*
X912236Y-308558D01*
X911929Y-308455D01*
G01X897261Y-212165D02*
Y-214387D01*
X897414Y-214852D01*
X897721Y-215162D01*
X898104Y-215265D01*
X898488Y-215162D01*
X898794Y-214852D01*
X898947Y-214387D01*
Y-212165D01*
G01X901204Y-215265D02*
Y-212165D01*
X900744Y-212785D01*
G01Y-215265D02*
X901664D01*
G01X898783Y-74310D02*
X901883D01*
Y-75268D01*
X901728Y-75575D01*
X901521Y-75766D01*
X901108Y-75843D01*
X900695Y-75766D01*
X900436Y-75536D01*
X900281Y-75268D01*
Y-74310D01*
G01Y-75268D02*
X898783Y-75843D01*
G01X901366Y-77448D02*
X901676Y-77678D01*
X901831Y-77947D01*
X901883Y-78253D01*
X901780Y-78636D01*
X901521Y-78905D01*
X901211Y-78982D01*
X900901Y-78943D01*
X900643Y-78790D01*
X900126Y-78023D01*
X899765Y-77678D01*
X899248Y-77448D01*
X898783Y-77372D01*
Y-78982D01*
G01Y-81276D02*
X898835Y-81545D01*
X898990Y-81852D01*
X899248Y-82043D01*
X899610Y-82120D01*
X899971Y-82043D01*
X900281Y-81813D01*
X900436Y-81468D01*
Y-81085D01*
X900540Y-80855D01*
X900798Y-80663D01*
X901160Y-80586D01*
X901521Y-80702D01*
X901780Y-80970D01*
X901883Y-81276D01*
X901780Y-81583D01*
X901521Y-81852D01*
X901160Y-81966D01*
X900798Y-81890D01*
X900540Y-81698D01*
X900436Y-81468D01*
Y-81085D01*
X900281Y-80740D01*
X899971Y-80510D01*
X899610Y-80433D01*
X899248Y-80510D01*
X898990Y-80702D01*
X898835Y-81008D01*
X898783Y-81276D01*
G01X899483Y-36286D02*
X902583D01*
Y-37245D01*
X902428Y-37551D01*
X902221Y-37743D01*
X901808Y-37820D01*
X901395Y-37743D01*
X901136Y-37513D01*
X900981Y-37245D01*
Y-36286D01*
G01Y-37245D02*
X899483Y-37820D01*
G01X902066Y-39425D02*
X902376Y-39655D01*
X902531Y-39923D01*
X902583Y-40230D01*
X902480Y-40613D01*
X902221Y-40881D01*
X901911Y-40958D01*
X901601Y-40920D01*
X901343Y-40766D01*
X900826Y-40000D01*
X900465Y-39655D01*
X899948Y-39425D01*
X899483Y-39348D01*
Y-40958D01*
G01X899948Y-42410D02*
X899690Y-42640D01*
X899535Y-42908D01*
X899483Y-43253D01*
X899586Y-43598D01*
X899793Y-43866D01*
X900155Y-44058D01*
X900568Y-44096D01*
X900981Y-44020D01*
X901240Y-43828D01*
X901446Y-43560D01*
X901498Y-43291D01*
X901446Y-43023D01*
X901240Y-42678D01*
X902583Y-42793D01*
Y-43828D01*
G01X891692Y63345D02*
X891462Y63500D01*
X891194Y63603D01*
X890887D01*
X890542Y63448D01*
X890274Y63190D01*
X890082Y62880D01*
X889929Y62363D01*
X889891Y61898D01*
X889967Y61433D01*
X890082Y61123D01*
X890312Y60813D01*
X890581Y60606D01*
X890849Y60503D01*
X891117D01*
X891386Y60606D01*
X891616Y60761D01*
X891807Y60968D01*
G01X893221Y63086D02*
X893451Y63396D01*
X893719Y63551D01*
X894026Y63603D01*
X894409Y63500D01*
X894677Y63241D01*
X894754Y62931D01*
X894716Y62621D01*
X894562Y62363D01*
X893796Y61846D01*
X893451Y61485D01*
X893221Y60968D01*
X893144Y60503D01*
X894754D01*
G01X896206Y60968D02*
X896436Y60710D01*
X896704Y60555D01*
X897049Y60503D01*
X897394Y60606D01*
X897662Y60813D01*
X897854Y61175D01*
X897892Y61588D01*
X897816Y62001D01*
X897624Y62260D01*
X897356Y62466D01*
X897087Y62518D01*
X896819Y62466D01*
X896474Y62260D01*
X896589Y63603D01*
X897624D01*
G01X914988Y-320382D02*
X913468D01*
G01X914291Y-321465D02*
Y-319298D01*
G01X914988Y-320382D02*
X913468D01*
G01X914291Y-321465D02*
Y-319298D01*
G01X914988Y-320382D02*
X913468D01*
G01X914291Y-321465D02*
Y-319298D01*
G01X914988Y-320382D02*
X913468D01*
G01X914291Y-321465D02*
Y-319298D01*
G01X921838Y-271553D02*
Y-268453D01*
X922797D01*
X923103Y-268608D01*
X923295Y-268815D01*
X923372Y-269228D01*
X923295Y-269641D01*
X923065Y-269900D01*
X922797Y-270055D01*
X921838D01*
G01X922797D02*
X923372Y-271553D01*
G01X924862Y-270933D02*
X925092Y-271295D01*
X925398Y-271501D01*
X925743Y-271553D01*
X926050Y-271501D01*
X926357Y-271243D01*
X926548Y-270933D01*
X926587Y-270623D01*
X926510Y-270261D01*
X926242Y-270003D01*
X925973Y-269900D01*
X925628D01*
G01X925973D02*
X926203Y-269745D01*
X926395Y-269486D01*
X926472Y-269176D01*
X926395Y-268866D01*
X926203Y-268608D01*
X925858Y-268453D01*
X925513Y-268505D01*
X925168Y-268711D01*
G01X911095Y-203792D02*
Y-200692D01*
X912054D01*
X912360Y-200847D01*
X912552Y-201054D01*
X912629Y-201467D01*
X912552Y-201880D01*
X912322Y-202139D01*
X912054Y-202294D01*
X911095D01*
G01X912054D02*
X912629Y-203792D01*
G01X914234Y-202500D02*
X914502Y-202139D01*
X914732Y-201932D01*
X915039Y-201829D01*
X915307Y-201932D01*
X915499Y-202139D01*
X915652Y-202449D01*
X915690Y-202810D01*
X915652Y-203120D01*
X915499Y-203430D01*
X915269Y-203689D01*
X915000Y-203792D01*
X914694Y-203689D01*
X914425Y-203379D01*
X914272Y-202914D01*
X914234Y-202397D01*
X914310Y-201725D01*
X914425Y-201364D01*
X914617Y-201002D01*
X914885Y-200744D01*
X915154Y-200692D01*
X915422Y-200795D01*
X915614Y-201054D01*
G01X911836Y-73293D02*
Y-70193D01*
X913292D01*
G01X912756Y-71691D02*
X911836D01*
G01X915971Y-71640D02*
X916124Y-71485D01*
X916239Y-71226D01*
X916316Y-70865D01*
X916239Y-70555D01*
X916086Y-70348D01*
X915817Y-70193D01*
X914782D01*
Y-73293D01*
X916047D01*
X916316Y-73086D01*
X916469Y-72776D01*
X916546Y-72415D01*
X916469Y-72053D01*
X916239Y-71743D01*
X915971Y-71640D01*
X914782D01*
G01X918764Y-73293D02*
Y-70193D01*
X918304Y-70813D01*
G01Y-73293D02*
X919224D01*
G01X913554Y-39985D02*
X913324Y-39830D01*
X913056Y-39727D01*
X912749D01*
X912404Y-39882D01*
X912136Y-40140D01*
X911944Y-40450D01*
X911791Y-40967D01*
X911753Y-41432D01*
X911829Y-41897D01*
X911944Y-42207D01*
X912174Y-42517D01*
X912443Y-42724D01*
X912711Y-42827D01*
X912979D01*
X913248Y-42724D01*
X913478Y-42569D01*
X913669Y-42362D01*
G01X914968Y-42207D02*
X915198Y-42569D01*
X915504Y-42775D01*
X915849Y-42827D01*
X916156Y-42775D01*
X916463Y-42517D01*
X916654Y-42207D01*
X916693Y-41897D01*
X916616Y-41535D01*
X916348Y-41277D01*
X916079Y-41174D01*
X915734D01*
G01X916079D02*
X916309Y-41019D01*
X916501Y-40760D01*
X916578Y-40450D01*
X916501Y-40140D01*
X916309Y-39882D01*
X915964Y-39727D01*
X915619Y-39779D01*
X915274Y-39985D01*
G01X918911Y-39727D02*
X918604Y-39830D01*
X918374Y-40089D01*
X918221Y-40399D01*
X918106Y-40812D01*
X918068Y-41277D01*
X918106Y-41742D01*
X918221Y-42155D01*
X918374Y-42465D01*
X918604Y-42724D01*
X918911Y-42827D01*
X919218Y-42724D01*
X919448Y-42465D01*
X919601Y-42155D01*
X919716Y-41742D01*
X919754Y-41277D01*
X919716Y-40812D01*
X919601Y-40399D01*
X919448Y-40089D01*
X919218Y-39830D01*
X918911Y-39727D01*
G01X911450Y123520D02*
Y122753D01*
X910520D01*
X910210Y122983D01*
X910003Y123252D01*
X909900Y123635D01*
X910003Y124018D01*
X910210Y124287D01*
X910520Y124517D01*
X910882Y124670D01*
X911295Y124747D01*
X911657D01*
X911967Y124670D01*
X912328Y124517D01*
X912638Y124287D01*
X912845Y124057D01*
X913000Y123750D01*
Y123482D01*
X912897Y123175D01*
X912690Y122945D01*
G01X909900Y121532D02*
X913000D01*
X909900Y119768D01*
X913000D01*
G01X909900Y118393D02*
X913000D01*
Y117627D01*
X912845Y117320D01*
X912638Y117090D01*
X912328Y116898D01*
X911967Y116745D01*
X911450Y116707D01*
X910933Y116745D01*
X910572Y116898D01*
X910262Y117090D01*
X910055Y117320D01*
X909900Y117627D01*
Y118393D01*
G01X920765Y124493D02*
X920507Y124263D01*
X920352Y123995D01*
X920300Y123650D01*
X920403Y123305D01*
X920610Y123037D01*
X920972Y122845D01*
X921385Y122807D01*
X921798Y122883D01*
X922057Y123075D01*
X922263Y123343D01*
X922315Y123612D01*
X922263Y123880D01*
X922057Y124225D01*
X923400Y124110D01*
Y123075D01*
G01Y121508D02*
X920300Y120550D01*
X923400Y119592D01*
G01X935054Y-403991D02*
X935246Y-404301D01*
X935476Y-404508D01*
X935744Y-404611D01*
X936051Y-404508D01*
X936281Y-404301D01*
X936511Y-403991D01*
X936587Y-403578D01*
Y-401511D01*
G01X938192Y-402028D02*
X938422Y-401718D01*
X938691Y-401563D01*
X938997Y-401511D01*
X939381Y-401614D01*
X939649Y-401873D01*
X939726Y-402183D01*
X939687Y-402493D01*
X939534Y-402751D01*
X938767Y-403268D01*
X938422Y-403629D01*
X938192Y-404146D01*
X938116Y-404611D01*
X939726D01*
G01X941292Y-402028D02*
X941522Y-401718D01*
X941791Y-401563D01*
X942097Y-401511D01*
X942481Y-401614D01*
X942749Y-401873D01*
X942826Y-402183D01*
X942787Y-402493D01*
X942634Y-402751D01*
X941867Y-403268D01*
X941522Y-403629D01*
X941292Y-404146D01*
X941216Y-404611D01*
X942826D01*
G01X934020Y-291766D02*
Y-288666D01*
X934979D01*
X935285Y-288821D01*
X935477Y-289028D01*
X935554Y-289441D01*
X935477Y-289854D01*
X935247Y-290113D01*
X934979Y-290268D01*
X934020D01*
G01X934979D02*
X935554Y-291766D01*
G01X937235Y-291404D02*
X937504Y-291663D01*
X937810Y-291766D01*
X938117Y-291663D01*
X938385Y-291353D01*
X938577Y-290888D01*
X938654Y-290423D01*
Y-289854D01*
X938577Y-289389D01*
X938385Y-288976D01*
X938155Y-288769D01*
X937887Y-288666D01*
X937580Y-288769D01*
X937350Y-288976D01*
X937197Y-289286D01*
X937120Y-289699D01*
X937197Y-290061D01*
X937389Y-290423D01*
X937619Y-290629D01*
X937887Y-290681D01*
X938194Y-290578D01*
X938424Y-290319D01*
X938654Y-289854D01*
G01X934638Y-305853D02*
Y-302753D01*
X935597D01*
X935903Y-302908D01*
X936095Y-303115D01*
X936172Y-303528D01*
X936095Y-303941D01*
X935865Y-304200D01*
X935597Y-304355D01*
X934638D01*
G01X935597D02*
X936172Y-305853D01*
G01X938505D02*
Y-302753D01*
X938045Y-303373D01*
G01Y-305853D02*
X938965D01*
G01X940877Y-303270D02*
X941107Y-302960D01*
X941375Y-302805D01*
X941682Y-302753D01*
X942065Y-302856D01*
X942333Y-303115D01*
X942410Y-303425D01*
X942372Y-303735D01*
X942218Y-303993D01*
X941452Y-304510D01*
X941107Y-304871D01*
X940877Y-305388D01*
X940800Y-305853D01*
X942410D01*
G01X937099Y146925D02*
X937291Y146615D01*
X937521Y146408D01*
X937789Y146305D01*
X938096Y146408D01*
X938326Y146615D01*
X938556Y146925D01*
X938633Y147338D01*
Y149405D01*
G01X940123Y146925D02*
X940353Y146563D01*
X940659Y146357D01*
X941004Y146305D01*
X941311Y146357D01*
X941618Y146615D01*
X941809Y146925D01*
X941848Y147235D01*
X941771Y147597D01*
X941503Y147855D01*
X941234Y147958D01*
X940889D01*
G01X941234D02*
X941464Y148113D01*
X941656Y148372D01*
X941733Y148682D01*
X941656Y148992D01*
X941464Y149250D01*
X941119Y149405D01*
X940774Y149353D01*
X940429Y149147D01*
G01X944066Y146305D02*
Y149405D01*
X943606Y148785D01*
G01Y146305D02*
X944526D01*
G01X948327Y-345600D02*
X951873D01*
X948327Y-353100D01*
X951873D01*
G01X955827Y-346850D02*
X956387Y-346100D01*
X957040Y-345725D01*
X957787Y-345600D01*
X958720Y-345850D01*
X959373Y-346475D01*
X959560Y-347225D01*
X959467Y-347975D01*
X959093Y-348600D01*
X957227Y-349850D01*
X956387Y-350725D01*
X955827Y-351975D01*
X955640Y-353100D01*
X959560D01*
G01X962300Y-355600D02*
X967900D01*
G01X970733Y-353100D02*
Y-345600D01*
X972973D01*
X973720Y-345975D01*
X974280Y-346850D01*
X974467Y-347850D01*
X974280Y-348850D01*
X973813Y-349600D01*
X972973Y-349975D01*
X970733D01*
G01X978233Y-353100D02*
Y-345600D01*
X980567D01*
X981313Y-345975D01*
X981780Y-346475D01*
X981967Y-347475D01*
X981780Y-348475D01*
X981220Y-349100D01*
X980567Y-349475D01*
X978233D01*
G01X980567D02*
X981967Y-353100D01*
G01X988347Y-349100D02*
X988720Y-348725D01*
X989000Y-348100D01*
X989187Y-347225D01*
X989000Y-346475D01*
X988627Y-345975D01*
X987973Y-345600D01*
X985453D01*
Y-353100D01*
X988533D01*
X989187Y-352600D01*
X989560Y-351850D01*
X989747Y-350975D01*
X989560Y-350100D01*
X989000Y-349350D01*
X988347Y-349100D01*
X985453D01*
G01X953401Y-296503D02*
Y-293403D01*
X954360D01*
X954666Y-293558D01*
X954858Y-293765D01*
X954935Y-294178D01*
X954858Y-294591D01*
X954628Y-294850D01*
X954360Y-295005D01*
X953401D01*
G01X954360D02*
X954935Y-296503D01*
G01X956425Y-295883D02*
X956655Y-296245D01*
X956961Y-296451D01*
X957306Y-296503D01*
X957613Y-296451D01*
X957920Y-296193D01*
X958111Y-295883D01*
X958150Y-295573D01*
X958073Y-295211D01*
X957805Y-294953D01*
X957536Y-294850D01*
X957191D01*
G01X957536D02*
X957766Y-294695D01*
X957958Y-294436D01*
X958035Y-294126D01*
X957958Y-293816D01*
X957766Y-293558D01*
X957421Y-293403D01*
X957076Y-293455D01*
X956731Y-293661D01*
G01X960368Y-296503D02*
Y-293403D01*
X959908Y-294023D01*
G01Y-296503D02*
X960828D01*
G01X957057Y-278500D02*
Y-275400D01*
X957823D01*
X958130Y-275555D01*
X958360Y-275762D01*
X958552Y-276072D01*
X958705Y-276433D01*
X958743Y-276950D01*
X958705Y-277467D01*
X958552Y-277828D01*
X958360Y-278138D01*
X958130Y-278345D01*
X957823Y-278500D01*
X957057D01*
G01X960157Y-277880D02*
X960387Y-278242D01*
X960693Y-278448D01*
X961038Y-278500D01*
X961345Y-278448D01*
X961652Y-278190D01*
X961843Y-277880D01*
X961882Y-277570D01*
X961805Y-277208D01*
X961537Y-276950D01*
X961268Y-276847D01*
X960923D01*
G01X961268D02*
X961498Y-276692D01*
X961690Y-276433D01*
X961767Y-276123D01*
X961690Y-275813D01*
X961498Y-275555D01*
X961153Y-275400D01*
X960808Y-275452D01*
X960463Y-275658D01*
G01X957457Y-264400D02*
Y-261300D01*
X958223D01*
X958530Y-261455D01*
X958760Y-261662D01*
X958952Y-261972D01*
X959105Y-262333D01*
X959143Y-262850D01*
X959105Y-263367D01*
X958952Y-263728D01*
X958760Y-264038D01*
X958530Y-264245D01*
X958223Y-264400D01*
X957457D01*
G01X961860D02*
Y-261300D01*
X960442Y-263522D01*
X962358D01*
G01X946845Y-243945D02*
Y-240845D01*
X947804D01*
X948110Y-241000D01*
X948302Y-241207D01*
X948379Y-241620D01*
X948302Y-242033D01*
X948072Y-242292D01*
X947804Y-242447D01*
X946845D01*
G01X947804D02*
X948379Y-243945D01*
G01X950712D02*
X950980Y-243893D01*
X951287Y-243738D01*
X951479Y-243480D01*
X951555Y-243118D01*
X951479Y-242757D01*
X951249Y-242447D01*
X950904Y-242292D01*
X950520D01*
X950290Y-242188D01*
X950099Y-241930D01*
X950022Y-241568D01*
X950137Y-241207D01*
X950405Y-240948D01*
X950712Y-240845D01*
X951019Y-240948D01*
X951287Y-241207D01*
X951402Y-241568D01*
X951325Y-241930D01*
X951134Y-242188D01*
X950904Y-242292D01*
X950520D01*
X950175Y-242447D01*
X949945Y-242757D01*
X949869Y-243118D01*
X949945Y-243480D01*
X950137Y-243738D01*
X950444Y-243893D01*
X950712Y-243945D01*
G01X944345Y-208293D02*
Y-205193D01*
X945304D01*
X945610Y-205348D01*
X945802Y-205555D01*
X945879Y-205968D01*
X945802Y-206381D01*
X945572Y-206640D01*
X945304Y-206795D01*
X944345D01*
G01X945304D02*
X945879Y-208293D01*
G01X948212D02*
Y-205193D01*
X947752Y-205813D01*
G01Y-208293D02*
X948672D01*
G01X951312Y-205193D02*
X951005Y-205296D01*
X950775Y-205555D01*
X950622Y-205865D01*
X950507Y-206278D01*
X950469Y-206743D01*
X950507Y-207208D01*
X950622Y-207621D01*
X950775Y-207931D01*
X951005Y-208190D01*
X951312Y-208293D01*
X951619Y-208190D01*
X951849Y-207931D01*
X952002Y-207621D01*
X952117Y-207208D01*
X952155Y-206743D01*
X952117Y-206278D01*
X952002Y-205865D01*
X951849Y-205555D01*
X951619Y-205296D01*
X951312Y-205193D01*
G01X944258Y-182150D02*
X944028Y-181995D01*
X943760Y-181892D01*
X943453D01*
X943108Y-182047D01*
X942840Y-182305D01*
X942648Y-182615D01*
X942495Y-183132D01*
X942457Y-183597D01*
X942533Y-184062D01*
X942648Y-184372D01*
X942878Y-184682D01*
X943147Y-184889D01*
X943415Y-184992D01*
X943683D01*
X943952Y-184889D01*
X944182Y-184734D01*
X944373Y-184527D01*
G01X946515Y-184992D02*
Y-181892D01*
X946055Y-182512D01*
G01Y-184992D02*
X946975D01*
G01X948772Y-184372D02*
X949002Y-184734D01*
X949308Y-184940D01*
X949653Y-184992D01*
X949960Y-184940D01*
X950267Y-184682D01*
X950458Y-184372D01*
X950497Y-184062D01*
X950420Y-183700D01*
X950152Y-183442D01*
X949883Y-183339D01*
X949538D01*
G01X949883D02*
X950113Y-183184D01*
X950305Y-182925D01*
X950382Y-182615D01*
X950305Y-182305D01*
X950113Y-182047D01*
X949768Y-181892D01*
X949423Y-181944D01*
X949078Y-182150D01*
G01X944305Y-194706D02*
X944075Y-194551D01*
X943807Y-194448D01*
X943500D01*
X943155Y-194603D01*
X942887Y-194861D01*
X942695Y-195171D01*
X942542Y-195688D01*
X942504Y-196153D01*
X942580Y-196618D01*
X942695Y-196928D01*
X942925Y-197238D01*
X943194Y-197445D01*
X943462Y-197548D01*
X943730D01*
X943999Y-197445D01*
X944229Y-197290D01*
X944420Y-197083D01*
G01X946562Y-197548D02*
Y-194448D01*
X946102Y-195068D01*
G01Y-197548D02*
X947022D01*
G01X948934Y-194965D02*
X949164Y-194655D01*
X949432Y-194500D01*
X949739Y-194448D01*
X950122Y-194551D01*
X950390Y-194810D01*
X950467Y-195120D01*
X950429Y-195430D01*
X950275Y-195688D01*
X949509Y-196205D01*
X949164Y-196566D01*
X948934Y-197083D01*
X948857Y-197548D01*
X950467D01*
G01X945170Y-1100D02*
Y2000D01*
X945936D01*
X946243Y1845D01*
X946473Y1638D01*
X946665Y1328D01*
X946818Y967D01*
X946856Y450D01*
X946818Y-67D01*
X946665Y-428D01*
X946473Y-738D01*
X946243Y-945D01*
X945936Y-1100D01*
X945170D01*
G01X948461Y-738D02*
X948730Y-997D01*
X949036Y-1100D01*
X949343Y-997D01*
X949611Y-687D01*
X949803Y-222D01*
X949880Y243D01*
Y812D01*
X949803Y1277D01*
X949611Y1690D01*
X949381Y1897D01*
X949113Y2000D01*
X948806Y1897D01*
X948576Y1690D01*
X948423Y1380D01*
X948346Y967D01*
X948423Y605D01*
X948615Y243D01*
X948845Y37D01*
X949113Y-15D01*
X949420Y88D01*
X949650Y347D01*
X949880Y812D01*
G01X945670Y34433D02*
Y37533D01*
X946436D01*
X946743Y37378D01*
X946973Y37171D01*
X947165Y36861D01*
X947318Y36500D01*
X947356Y35983D01*
X947318Y35466D01*
X947165Y35105D01*
X946973Y34795D01*
X946743Y34588D01*
X946436Y34433D01*
X945670D01*
G01X949613D02*
X949881Y34485D01*
X950188Y34640D01*
X950380Y34898D01*
X950456Y35260D01*
X950380Y35621D01*
X950150Y35931D01*
X949805Y36086D01*
X949421D01*
X949191Y36190D01*
X949000Y36448D01*
X948923Y36810D01*
X949038Y37171D01*
X949306Y37430D01*
X949613Y37533D01*
X949920Y37430D01*
X950188Y37171D01*
X950303Y36810D01*
X950226Y36448D01*
X950035Y36190D01*
X949805Y36086D01*
X949421D01*
X949076Y35931D01*
X948846Y35621D01*
X948770Y35260D01*
X948846Y34898D01*
X949038Y34640D01*
X949345Y34485D01*
X949613Y34433D01*
G01X967017Y-309613D02*
X966787Y-309458D01*
X966519Y-309355D01*
X966212D01*
X965867Y-309510D01*
X965599Y-309768D01*
X965407Y-310078D01*
X965254Y-310595D01*
X965216Y-311060D01*
X965292Y-311525D01*
X965407Y-311835D01*
X965637Y-312145D01*
X965906Y-312352D01*
X966174Y-312455D01*
X966442D01*
X966711Y-312352D01*
X966941Y-312197D01*
X967132Y-311990D01*
G01X969274Y-312455D02*
Y-309355D01*
X968814Y-309975D01*
G01Y-312455D02*
X969734D01*
G01X972374D02*
Y-309355D01*
X971914Y-309975D01*
G01Y-312455D02*
X972834D01*
G01X974343Y-320482D02*
X972823D01*
G01X973646Y-321565D02*
Y-319398D01*
G01X974343Y-320482D02*
X972823D01*
G01X973646Y-321565D02*
Y-319398D01*
G01X974343Y-320482D02*
X972823D01*
G01X973646Y-321565D02*
Y-319398D01*
G01X974343Y-320482D02*
X972823D01*
G01X973646Y-321565D02*
Y-319398D01*
G01X967701Y-221274D02*
Y-218174D01*
X968660D01*
X968966Y-218329D01*
X969158Y-218536D01*
X969235Y-218949D01*
X969158Y-219362D01*
X968928Y-219621D01*
X968660Y-219776D01*
X967701D01*
G01X968660D02*
X969235Y-221274D01*
G01X970725Y-220654D02*
X970955Y-221016D01*
X971261Y-221222D01*
X971606Y-221274D01*
X971913Y-221222D01*
X972220Y-220964D01*
X972411Y-220654D01*
X972450Y-220344D01*
X972373Y-219982D01*
X972105Y-219724D01*
X971836Y-219621D01*
X971491D01*
G01X971836D02*
X972066Y-219466D01*
X972258Y-219207D01*
X972335Y-218897D01*
X972258Y-218587D01*
X972066Y-218329D01*
X971721Y-218174D01*
X971376Y-218226D01*
X971031Y-218432D01*
G01X974668Y-218174D02*
X974361Y-218277D01*
X974131Y-218536D01*
X973978Y-218846D01*
X973863Y-219259D01*
X973825Y-219724D01*
X973863Y-220189D01*
X973978Y-220602D01*
X974131Y-220912D01*
X974361Y-221171D01*
X974668Y-221274D01*
X974975Y-221171D01*
X975205Y-220912D01*
X975358Y-220602D01*
X975473Y-220189D01*
X975511Y-219724D01*
X975473Y-219259D01*
X975358Y-218846D01*
X975205Y-218536D01*
X974975Y-218277D01*
X974668Y-218174D01*
G01X967901Y-153245D02*
Y-150145D01*
X968860D01*
X969166Y-150300D01*
X969358Y-150507D01*
X969435Y-150920D01*
X969358Y-151333D01*
X969128Y-151592D01*
X968860Y-151747D01*
X967901D01*
G01X968860D02*
X969435Y-153245D01*
G01X971040Y-150662D02*
X971270Y-150352D01*
X971538Y-150197D01*
X971845Y-150145D01*
X972228Y-150248D01*
X972496Y-150507D01*
X972573Y-150817D01*
X972535Y-151127D01*
X972381Y-151385D01*
X971615Y-151902D01*
X971270Y-152263D01*
X971040Y-152780D01*
X970963Y-153245D01*
X972573D01*
G01X974216Y-152883D02*
X974485Y-153142D01*
X974791Y-153245D01*
X975098Y-153142D01*
X975366Y-152832D01*
X975558Y-152367D01*
X975635Y-151902D01*
Y-151333D01*
X975558Y-150868D01*
X975366Y-150455D01*
X975136Y-150248D01*
X974868Y-150145D01*
X974561Y-150248D01*
X974331Y-150455D01*
X974178Y-150765D01*
X974101Y-151178D01*
X974178Y-151540D01*
X974370Y-151902D01*
X974600Y-152108D01*
X974868Y-152160D01*
X975175Y-152057D01*
X975405Y-151798D01*
X975635Y-151333D01*
G01X967901Y-86916D02*
Y-83816D01*
X968860D01*
X969166Y-83971D01*
X969358Y-84178D01*
X969435Y-84591D01*
X969358Y-85004D01*
X969128Y-85263D01*
X968860Y-85418D01*
X967901D01*
G01X968860D02*
X969435Y-86916D01*
G01X971768D02*
Y-83816D01*
X971308Y-84436D01*
G01Y-86916D02*
X972228D01*
G01X974868D02*
Y-83816D01*
X974408Y-84436D01*
G01Y-86916D02*
X975328D01*
G01X965966Y76830D02*
X965736Y76986D01*
X965468Y77089D01*
X965161D01*
X964816Y76934D01*
X964548Y76676D01*
X964356Y76366D01*
X964203Y75849D01*
X964164Y75384D01*
X964241Y74919D01*
X964356Y74609D01*
X964586Y74299D01*
X964854Y74092D01*
X965123Y73989D01*
X965391D01*
X965659Y74092D01*
X965889Y74247D01*
X966081Y74454D01*
G01X967379Y74609D02*
X967609Y74247D01*
X967916Y74041D01*
X968261Y73989D01*
X968568Y74041D01*
X968874Y74299D01*
X969066Y74609D01*
X969104Y74919D01*
X969028Y75280D01*
X968759Y75539D01*
X968491Y75642D01*
X968146D01*
G01X968491D02*
X968721Y75797D01*
X968913Y76056D01*
X968989Y76366D01*
X968913Y76676D01*
X968721Y76934D01*
X968376Y77089D01*
X968031Y77037D01*
X967686Y76830D01*
G01X971323Y73989D02*
Y77089D01*
X970863Y76469D01*
G01Y73989D02*
X971783D01*
G01X966105Y98654D02*
X965875Y98809D01*
X965607Y98912D01*
X965300D01*
X964955Y98757D01*
X964687Y98499D01*
X964495Y98189D01*
X964342Y97672D01*
X964304Y97208D01*
X964380Y96742D01*
X964495Y96433D01*
X964725Y96122D01*
X964994Y95916D01*
X965262Y95812D01*
X965530D01*
X965799Y95916D01*
X966029Y96071D01*
X966220Y96277D01*
G01X967519Y96433D02*
X967749Y96071D01*
X968055Y95864D01*
X968400Y95812D01*
X968707Y95864D01*
X969014Y96122D01*
X969205Y96433D01*
X969244Y96742D01*
X969167Y97104D01*
X968899Y97363D01*
X968630Y97466D01*
X968285D01*
G01X968630D02*
X968860Y97621D01*
X969052Y97879D01*
X969129Y98189D01*
X969052Y98499D01*
X968860Y98757D01*
X968515Y98912D01*
X968170Y98861D01*
X967825Y98654D01*
G01X970734Y98396D02*
X970964Y98706D01*
X971232Y98861D01*
X971539Y98912D01*
X971922Y98809D01*
X972190Y98551D01*
X972267Y98241D01*
X972229Y97931D01*
X972075Y97672D01*
X971309Y97156D01*
X970964Y96794D01*
X970734Y96277D01*
X970657Y95812D01*
X972267D01*
G01X962848Y117502D02*
X962618Y117657D01*
X962350Y117760D01*
X962043D01*
X961698Y117605D01*
X961430Y117347D01*
X961238Y117037D01*
X961085Y116520D01*
X961047Y116056D01*
X961123Y115590D01*
X961238Y115281D01*
X961468Y114970D01*
X961737Y114764D01*
X962005Y114661D01*
X962273D01*
X962542Y114764D01*
X962772Y114919D01*
X962963Y115125D01*
G01X964262Y115281D02*
X964492Y114919D01*
X964798Y114712D01*
X965143Y114661D01*
X965450Y114712D01*
X965757Y114970D01*
X965948Y115281D01*
X965987Y115590D01*
X965910Y115952D01*
X965642Y116210D01*
X965373Y116314D01*
X965028D01*
G01X965373D02*
X965603Y116469D01*
X965795Y116727D01*
X965872Y117037D01*
X965795Y117347D01*
X965603Y117605D01*
X965258Y117760D01*
X964913Y117709D01*
X964568Y117502D01*
G01X967362Y115281D02*
X967592Y114919D01*
X967898Y114712D01*
X968243Y114661D01*
X968550Y114712D01*
X968857Y114970D01*
X969048Y115281D01*
X969087Y115590D01*
X969010Y115952D01*
X968742Y116210D01*
X968473Y116314D01*
X968128D01*
G01X968473D02*
X968703Y116469D01*
X968895Y116727D01*
X968972Y117037D01*
X968895Y117347D01*
X968703Y117605D01*
X968358Y117760D01*
X968013Y117709D01*
X967668Y117502D01*
G01X983821Y57938D02*
Y61038D01*
X984779D01*
X985086Y60882D01*
X985277Y60676D01*
X985354Y60262D01*
X985277Y59849D01*
X985048Y59591D01*
X984779Y59436D01*
X983821D01*
G01X984779D02*
X985354Y57938D01*
G01X987688D02*
Y61038D01*
X987228Y60418D01*
G01Y57938D02*
X988147D01*
G01X990136Y58299D02*
X990404Y58041D01*
X990711Y57938D01*
X991017Y58041D01*
X991286Y58351D01*
X991478Y58816D01*
X991554Y59281D01*
Y59849D01*
X991478Y60314D01*
X991286Y60728D01*
X991056Y60934D01*
X990788Y61038D01*
X990481Y60934D01*
X990251Y60728D01*
X990098Y60418D01*
X990021Y60004D01*
X990098Y59642D01*
X990289Y59281D01*
X990519Y59074D01*
X990788Y59022D01*
X991094Y59126D01*
X991324Y59384D01*
X991554Y59849D01*
G01X984021Y72752D02*
Y75852D01*
X984979D01*
X985286Y75696D01*
X985478Y75490D01*
X985554Y75076D01*
X985478Y74663D01*
X985248Y74405D01*
X984979Y74250D01*
X984021D01*
G01X984979D02*
X985554Y72752D01*
G01X987159Y75335D02*
X987389Y75645D01*
X987658Y75800D01*
X987964Y75852D01*
X988348Y75748D01*
X988616Y75490D01*
X988692Y75180D01*
X988654Y74870D01*
X988501Y74612D01*
X987734Y74095D01*
X987389Y73733D01*
X987159Y73216D01*
X987083Y72752D01*
X988692D01*
G01X990988Y75852D02*
X990681Y75748D01*
X990451Y75490D01*
X990298Y75180D01*
X990182Y74766D01*
X990144Y74302D01*
X990182Y73836D01*
X990298Y73423D01*
X990451Y73113D01*
X990681Y72855D01*
X990988Y72752D01*
X991294Y72855D01*
X991524Y73113D01*
X991678Y73423D01*
X991792Y73836D01*
X991831Y74302D01*
X991792Y74766D01*
X991678Y75180D01*
X991524Y75490D01*
X991294Y75748D01*
X990988Y75852D01*
G01X984321Y88866D02*
Y91966D01*
X985279D01*
X985586Y91810D01*
X985778Y91604D01*
X985854Y91190D01*
X985778Y90777D01*
X985548Y90519D01*
X985279Y90364D01*
X984321D01*
G01X985279D02*
X985854Y88866D01*
G01X987459Y91449D02*
X987689Y91759D01*
X987958Y91914D01*
X988264Y91966D01*
X988648Y91862D01*
X988916Y91604D01*
X988992Y91294D01*
X988954Y90984D01*
X988801Y90726D01*
X988034Y90209D01*
X987689Y89847D01*
X987459Y89330D01*
X987382Y88866D01*
X988992D01*
G01X991288D02*
Y91966D01*
X990828Y91346D01*
G01Y88866D02*
X991747D01*
G01X984221Y103880D02*
Y106980D01*
X985179D01*
X985486Y106824D01*
X985677Y106618D01*
X985754Y106205D01*
X985677Y105791D01*
X985448Y105533D01*
X985179Y105378D01*
X984221D01*
G01X985179D02*
X985754Y103880D01*
G01X987359Y106463D02*
X987589Y106773D01*
X987858Y106928D01*
X988164Y106980D01*
X988548Y106876D01*
X988816Y106618D01*
X988892Y106308D01*
X988854Y105998D01*
X988701Y105740D01*
X987934Y105223D01*
X987589Y104861D01*
X987359Y104344D01*
X987283Y103880D01*
X988892D01*
G01X990459Y106463D02*
X990689Y106773D01*
X990958Y106928D01*
X991264Y106980D01*
X991648Y106876D01*
X991916Y106618D01*
X991992Y106308D01*
X991954Y105998D01*
X991801Y105740D01*
X991034Y105223D01*
X990689Y104861D01*
X990459Y104344D01*
X990383Y103880D01*
X991992D01*
G01X984121Y118394D02*
Y121493D01*
X985079D01*
X985386Y121338D01*
X985578Y121132D01*
X985654Y120718D01*
X985578Y120305D01*
X985348Y120047D01*
X985079Y119892D01*
X984121D01*
G01X985079D02*
X985654Y118394D01*
G01X987259Y120977D02*
X987489Y121287D01*
X987758Y121442D01*
X988064Y121493D01*
X988448Y121390D01*
X988716Y121132D01*
X988792Y120822D01*
X988754Y120512D01*
X988601Y120254D01*
X987834Y119737D01*
X987489Y119375D01*
X987259Y118858D01*
X987183Y118394D01*
X988792D01*
G01X990244Y119014D02*
X990474Y118652D01*
X990781Y118445D01*
X991126Y118394D01*
X991433Y118445D01*
X991739Y118703D01*
X991931Y119014D01*
X991969Y119323D01*
X991892Y119685D01*
X991624Y119944D01*
X991356Y120047D01*
X991011D01*
G01X991356D02*
X991586Y120202D01*
X991778Y120460D01*
X991854Y120770D01*
X991778Y121080D01*
X991586Y121338D01*
X991241Y121493D01*
X990896Y121442D01*
X990551Y121235D01*
G01X1012033Y-324900D02*
Y-317400D01*
X1014367D01*
X1015113Y-317775D01*
X1015580Y-318275D01*
X1015767Y-319275D01*
X1015580Y-320275D01*
X1015020Y-320900D01*
X1014367Y-321275D01*
X1012033D01*
G01X1014367D02*
X1015767Y-324900D01*
G01X1019440Y-323900D02*
X1020187Y-324525D01*
X1021027Y-324900D01*
X1021773D01*
X1022520Y-324525D01*
X1023080Y-323900D01*
X1023360Y-323025D01*
X1023173Y-322150D01*
X1022707Y-321400D01*
X1021867Y-320900D01*
X1020747Y-320650D01*
X1020093Y-320150D01*
X1019813Y-319275D01*
X1020000Y-318400D01*
X1020467Y-317775D01*
X1021120Y-317400D01*
X1021773D01*
X1022427Y-317650D01*
X1022987Y-318275D01*
G01X1030020Y-324900D02*
Y-317400D01*
X1026567Y-322775D01*
X1031233D01*
G01X1036400Y-324900D02*
X1037053Y-324775D01*
X1037800Y-324400D01*
X1038267Y-323775D01*
X1038453Y-322900D01*
X1038267Y-322025D01*
X1037707Y-321275D01*
X1036867Y-320900D01*
X1035933D01*
X1035373Y-320650D01*
X1034907Y-320025D01*
X1034720Y-319150D01*
X1035000Y-318275D01*
X1035653Y-317650D01*
X1036400Y-317400D01*
X1037147Y-317650D01*
X1037800Y-318275D01*
X1038080Y-319150D01*
X1037893Y-320025D01*
X1037427Y-320650D01*
X1036867Y-320900D01*
X1035933D01*
X1035093Y-321275D01*
X1034533Y-322025D01*
X1034347Y-322900D01*
X1034533Y-323775D01*
X1035000Y-324400D01*
X1035747Y-324775D01*
X1036400Y-324900D01*
G01X1041847Y-323775D02*
X1042407Y-324400D01*
X1043060Y-324775D01*
X1043900Y-324900D01*
X1044740Y-324650D01*
X1045393Y-324150D01*
X1045860Y-323275D01*
X1045953Y-322275D01*
X1045767Y-321275D01*
X1045300Y-320650D01*
X1044647Y-320150D01*
X1043993Y-320025D01*
X1043340Y-320150D01*
X1042500Y-320650D01*
X1042780Y-317400D01*
X1045300D01*
G01X1048600Y-327400D02*
X1054200D01*
G01X1056940Y-323900D02*
X1057687Y-324525D01*
X1058527Y-324900D01*
X1059273D01*
X1060020Y-324525D01*
X1060580Y-323900D01*
X1060860Y-323025D01*
X1060673Y-322150D01*
X1060207Y-321400D01*
X1059367Y-320900D01*
X1058247Y-320650D01*
X1057593Y-320150D01*
X1057313Y-319275D01*
X1057500Y-318400D01*
X1057967Y-317775D01*
X1058620Y-317400D01*
X1059273D01*
X1059927Y-317650D01*
X1060487Y-318275D01*
G01X1066400Y-324900D02*
Y-317400D01*
X1065280Y-318900D01*
G01Y-324900D02*
X1067520D01*
G01X1011733Y-258600D02*
Y-251100D01*
X1014067D01*
X1014813Y-251475D01*
X1015280Y-251975D01*
X1015467Y-252975D01*
X1015280Y-253975D01*
X1014720Y-254600D01*
X1014067Y-254975D01*
X1011733D01*
G01X1014067D02*
X1015467Y-258600D01*
G01X1019140Y-257600D02*
X1019887Y-258225D01*
X1020727Y-258600D01*
X1021473D01*
X1022220Y-258225D01*
X1022780Y-257600D01*
X1023060Y-256725D01*
X1022873Y-255850D01*
X1022407Y-255100D01*
X1021567Y-254600D01*
X1020447Y-254350D01*
X1019793Y-253850D01*
X1019513Y-252975D01*
X1019700Y-252100D01*
X1020167Y-251475D01*
X1020820Y-251100D01*
X1021473D01*
X1022127Y-251350D01*
X1022687Y-251975D01*
G01X1029720Y-258600D02*
Y-251100D01*
X1026267Y-256475D01*
X1030933D01*
G01X1036100Y-258600D02*
X1036753Y-258475D01*
X1037500Y-258100D01*
X1037967Y-257475D01*
X1038153Y-256600D01*
X1037967Y-255725D01*
X1037407Y-254975D01*
X1036567Y-254600D01*
X1035633D01*
X1035073Y-254350D01*
X1034607Y-253725D01*
X1034420Y-252850D01*
X1034700Y-251975D01*
X1035353Y-251350D01*
X1036100Y-251100D01*
X1036847Y-251350D01*
X1037500Y-251975D01*
X1037780Y-252850D01*
X1037593Y-253725D01*
X1037127Y-254350D01*
X1036567Y-254600D01*
X1035633D01*
X1034793Y-254975D01*
X1034233Y-255725D01*
X1034047Y-256600D01*
X1034233Y-257475D01*
X1034700Y-258100D01*
X1035447Y-258475D01*
X1036100Y-258600D01*
G01X1041547Y-257475D02*
X1042107Y-258100D01*
X1042760Y-258475D01*
X1043600Y-258600D01*
X1044440Y-258350D01*
X1045093Y-257850D01*
X1045560Y-256975D01*
X1045653Y-255975D01*
X1045467Y-254975D01*
X1045000Y-254350D01*
X1044347Y-253850D01*
X1043693Y-253725D01*
X1043040Y-253850D01*
X1042200Y-254350D01*
X1042480Y-251100D01*
X1045000D01*
G01X1048300Y-261100D02*
X1053900D01*
G01X1056640Y-257600D02*
X1057387Y-258225D01*
X1058227Y-258600D01*
X1058973D01*
X1059720Y-258225D01*
X1060280Y-257600D01*
X1060560Y-256725D01*
X1060373Y-255850D01*
X1059907Y-255100D01*
X1059067Y-254600D01*
X1057947Y-254350D01*
X1057293Y-253850D01*
X1057013Y-252975D01*
X1057200Y-252100D01*
X1057667Y-251475D01*
X1058320Y-251100D01*
X1058973D01*
X1059627Y-251350D01*
X1060187Y-251975D01*
G01X1064327Y-252350D02*
X1064887Y-251600D01*
X1065540Y-251225D01*
X1066287Y-251100D01*
X1067220Y-251350D01*
X1067873Y-251975D01*
X1068060Y-252725D01*
X1067967Y-253475D01*
X1067593Y-254100D01*
X1065727Y-255350D01*
X1064887Y-256225D01*
X1064327Y-257475D01*
X1064140Y-258600D01*
X1068060D01*
G01X1010433Y-189700D02*
Y-182200D01*
X1012767D01*
X1013513Y-182575D01*
X1013980Y-183075D01*
X1014167Y-184075D01*
X1013980Y-185075D01*
X1013420Y-185700D01*
X1012767Y-186075D01*
X1010433D01*
G01X1012767D02*
X1014167Y-189700D01*
G01X1017840Y-188700D02*
X1018587Y-189325D01*
X1019427Y-189700D01*
X1020173D01*
X1020920Y-189325D01*
X1021480Y-188700D01*
X1021760Y-187825D01*
X1021573Y-186950D01*
X1021107Y-186200D01*
X1020267Y-185700D01*
X1019147Y-185450D01*
X1018493Y-184950D01*
X1018213Y-184075D01*
X1018400Y-183200D01*
X1018867Y-182575D01*
X1019520Y-182200D01*
X1020173D01*
X1020827Y-182450D01*
X1021387Y-183075D01*
G01X1028420Y-189700D02*
Y-182200D01*
X1024967Y-187575D01*
X1029633D01*
G01X1034800Y-189700D02*
X1035453Y-189575D01*
X1036200Y-189200D01*
X1036667Y-188575D01*
X1036853Y-187700D01*
X1036667Y-186825D01*
X1036107Y-186075D01*
X1035267Y-185700D01*
X1034333D01*
X1033773Y-185450D01*
X1033307Y-184825D01*
X1033120Y-183950D01*
X1033400Y-183075D01*
X1034053Y-182450D01*
X1034800Y-182200D01*
X1035547Y-182450D01*
X1036200Y-183075D01*
X1036480Y-183950D01*
X1036293Y-184825D01*
X1035827Y-185450D01*
X1035267Y-185700D01*
X1034333D01*
X1033493Y-186075D01*
X1032933Y-186825D01*
X1032747Y-187700D01*
X1032933Y-188575D01*
X1033400Y-189200D01*
X1034147Y-189575D01*
X1034800Y-189700D01*
G01X1040247Y-188575D02*
X1040807Y-189200D01*
X1041460Y-189575D01*
X1042300Y-189700D01*
X1043140Y-189450D01*
X1043793Y-188950D01*
X1044260Y-188075D01*
X1044353Y-187075D01*
X1044167Y-186075D01*
X1043700Y-185450D01*
X1043047Y-184950D01*
X1042393Y-184825D01*
X1041740Y-184950D01*
X1040900Y-185450D01*
X1041180Y-182200D01*
X1043700D01*
G01X1047000Y-192200D02*
X1052600D01*
G01X1055340Y-188700D02*
X1056087Y-189325D01*
X1056927Y-189700D01*
X1057673D01*
X1058420Y-189325D01*
X1058980Y-188700D01*
X1059260Y-187825D01*
X1059073Y-186950D01*
X1058607Y-186200D01*
X1057767Y-185700D01*
X1056647Y-185450D01*
X1055993Y-184950D01*
X1055713Y-184075D01*
X1055900Y-183200D01*
X1056367Y-182575D01*
X1057020Y-182200D01*
X1057673D01*
X1058327Y-182450D01*
X1058887Y-183075D01*
G01X1062747Y-188200D02*
X1063307Y-189075D01*
X1064053Y-189575D01*
X1064893Y-189700D01*
X1065640Y-189575D01*
X1066387Y-188950D01*
X1066853Y-188200D01*
X1066947Y-187450D01*
X1066760Y-186575D01*
X1066107Y-185950D01*
X1065453Y-185700D01*
X1064613D01*
G01X1065453D02*
X1066013Y-185325D01*
X1066480Y-184700D01*
X1066667Y-183950D01*
X1066480Y-183200D01*
X1066013Y-182575D01*
X1065173Y-182200D01*
X1064333Y-182325D01*
X1063493Y-182825D01*
G01X1010633Y-122600D02*
Y-115100D01*
X1012967D01*
X1013713Y-115475D01*
X1014180Y-115975D01*
X1014367Y-116975D01*
X1014180Y-117975D01*
X1013620Y-118600D01*
X1012967Y-118975D01*
X1010633D01*
G01X1012967D02*
X1014367Y-122600D01*
G01X1018040Y-121600D02*
X1018787Y-122225D01*
X1019627Y-122600D01*
X1020373D01*
X1021120Y-122225D01*
X1021680Y-121600D01*
X1021960Y-120725D01*
X1021773Y-119850D01*
X1021307Y-119100D01*
X1020467Y-118600D01*
X1019347Y-118350D01*
X1018693Y-117850D01*
X1018413Y-116975D01*
X1018600Y-116100D01*
X1019067Y-115475D01*
X1019720Y-115100D01*
X1020373D01*
X1021027Y-115350D01*
X1021587Y-115975D01*
G01X1028620Y-122600D02*
Y-115100D01*
X1025167Y-120475D01*
X1029833D01*
G01X1035000Y-122600D02*
X1035653Y-122475D01*
X1036400Y-122100D01*
X1036867Y-121475D01*
X1037053Y-120600D01*
X1036867Y-119725D01*
X1036307Y-118975D01*
X1035467Y-118600D01*
X1034533D01*
X1033973Y-118350D01*
X1033507Y-117725D01*
X1033320Y-116850D01*
X1033600Y-115975D01*
X1034253Y-115350D01*
X1035000Y-115100D01*
X1035747Y-115350D01*
X1036400Y-115975D01*
X1036680Y-116850D01*
X1036493Y-117725D01*
X1036027Y-118350D01*
X1035467Y-118600D01*
X1034533D01*
X1033693Y-118975D01*
X1033133Y-119725D01*
X1032947Y-120600D01*
X1033133Y-121475D01*
X1033600Y-122100D01*
X1034347Y-122475D01*
X1035000Y-122600D01*
G01X1040447Y-121475D02*
X1041007Y-122100D01*
X1041660Y-122475D01*
X1042500Y-122600D01*
X1043340Y-122350D01*
X1043993Y-121850D01*
X1044460Y-120975D01*
X1044553Y-119975D01*
X1044367Y-118975D01*
X1043900Y-118350D01*
X1043247Y-117850D01*
X1042593Y-117725D01*
X1041940Y-117850D01*
X1041100Y-118350D01*
X1041380Y-115100D01*
X1043900D01*
G01X1047200Y-125100D02*
X1052800D01*
G01X1055540Y-121600D02*
X1056287Y-122225D01*
X1057127Y-122600D01*
X1057873D01*
X1058620Y-122225D01*
X1059180Y-121600D01*
X1059460Y-120725D01*
X1059273Y-119850D01*
X1058807Y-119100D01*
X1057967Y-118600D01*
X1056847Y-118350D01*
X1056193Y-117850D01*
X1055913Y-116975D01*
X1056100Y-116100D01*
X1056567Y-115475D01*
X1057220Y-115100D01*
X1057873D01*
X1058527Y-115350D01*
X1059087Y-115975D01*
G01X1066120Y-122600D02*
Y-115100D01*
X1062667Y-120475D01*
X1067333D01*
G01X1004575Y-6453D02*
X1005200Y-5893D01*
X1005575Y-5240D01*
X1005700Y-4400D01*
X1005450Y-3560D01*
X1004950Y-2907D01*
X1004075Y-2440D01*
X1003075Y-2347D01*
X1002075Y-2533D01*
X1001450Y-3000D01*
X1000950Y-3653D01*
X1000825Y-4307D01*
X1000950Y-4960D01*
X1001450Y-5800D01*
X998200Y-5520D01*
Y-3000D01*
G01Y767D02*
X1005700Y3100D01*
X998200Y5433D01*
G01X1005700Y8547D02*
X998200D01*
Y10413D01*
X998575Y11160D01*
X999075Y11720D01*
X999825Y12187D01*
X1000700Y12560D01*
X1001950Y12653D01*
X1003200Y12560D01*
X1004075Y12187D01*
X1004825Y11720D01*
X1005325Y11160D01*
X1005700Y10413D01*
Y8547D01*
G01X998825Y20153D02*
X998450Y19593D01*
X998200Y18940D01*
Y18193D01*
X998575Y17353D01*
X999200Y16700D01*
X999950Y16233D01*
X1001200Y15860D01*
X1002325Y15767D01*
X1003450Y15953D01*
X1004200Y16233D01*
X1004950Y16793D01*
X1005450Y17447D01*
X1005700Y18100D01*
Y18753D01*
X1005450Y19407D01*
X1005075Y19967D01*
X1004575Y20433D01*
G01X1008200Y22800D02*
Y28400D01*
G01X998200Y31980D02*
Y34220D01*
G01Y33100D02*
X1005700D01*
G01Y31980D02*
Y34220D01*
G01Y38453D02*
X998200D01*
X1005700Y42747D01*
X998200D01*
G01X1008140Y21447D02*
X1007830Y21255D01*
X1007623Y21025D01*
X1007520Y20757D01*
X1007623Y20450D01*
X1007830Y20220D01*
X1008140Y19990D01*
X1008553Y19913D01*
X1010620D01*
G01X1007520Y17580D02*
X1010620D01*
X1010000Y18040D01*
G01X1007520D02*
Y17120D01*
G01X1007882Y15132D02*
X1007623Y14863D01*
X1007520Y14557D01*
X1007623Y14250D01*
X1007933Y13982D01*
X1008398Y13790D01*
X1008863Y13713D01*
X1009432D01*
X1009897Y13790D01*
X1010310Y13982D01*
X1010517Y14212D01*
X1010620Y14480D01*
X1010517Y14787D01*
X1010310Y15017D01*
X1010000Y15170D01*
X1009587Y15247D01*
X1009225Y15170D01*
X1008863Y14978D01*
X1008657Y14748D01*
X1008605Y14480D01*
X1008708Y14173D01*
X1008967Y13943D01*
X1009432Y13713D01*
G01X1018479Y-63893D02*
Y-60793D01*
X1019438D01*
X1019744Y-60948D01*
X1019936Y-61155D01*
X1020013Y-61568D01*
X1019936Y-61981D01*
X1019706Y-62240D01*
X1019438Y-62395D01*
X1018479D01*
G01X1019438D02*
X1020013Y-63893D01*
G01X1021618Y-61310D02*
X1021848Y-61000D01*
X1022116Y-60845D01*
X1022423Y-60793D01*
X1022806Y-60896D01*
X1023074Y-61155D01*
X1023151Y-61465D01*
X1023113Y-61775D01*
X1022959Y-62033D01*
X1022193Y-62550D01*
X1021848Y-62911D01*
X1021618Y-63428D01*
X1021541Y-63893D01*
X1023151D01*
G01X1025369D02*
X1025446Y-63221D01*
X1025561Y-62653D01*
X1025714Y-62136D01*
X1025906Y-61568D01*
X1026213Y-60793D01*
X1024679D01*
G01X1018079Y-36953D02*
Y-33853D01*
X1019038D01*
X1019344Y-34008D01*
X1019536Y-34215D01*
X1019613Y-34628D01*
X1019536Y-35041D01*
X1019306Y-35300D01*
X1019038Y-35455D01*
X1018079D01*
G01X1019038D02*
X1019613Y-36953D01*
G01X1021103Y-36333D02*
X1021333Y-36695D01*
X1021639Y-36901D01*
X1021984Y-36953D01*
X1022291Y-36901D01*
X1022598Y-36643D01*
X1022789Y-36333D01*
X1022828Y-36023D01*
X1022751Y-35661D01*
X1022483Y-35403D01*
X1022214Y-35300D01*
X1021869D01*
G01X1022214D02*
X1022444Y-35145D01*
X1022636Y-34886D01*
X1022713Y-34576D01*
X1022636Y-34266D01*
X1022444Y-34008D01*
X1022099Y-33853D01*
X1021754Y-33905D01*
X1021409Y-34111D01*
G01X1024318Y-35661D02*
X1024586Y-35300D01*
X1024816Y-35093D01*
X1025123Y-34990D01*
X1025391Y-35093D01*
X1025583Y-35300D01*
X1025736Y-35610D01*
X1025774Y-35971D01*
X1025736Y-36281D01*
X1025583Y-36591D01*
X1025353Y-36850D01*
X1025084Y-36953D01*
X1024778Y-36850D01*
X1024509Y-36540D01*
X1024356Y-36075D01*
X1024318Y-35558D01*
X1024394Y-34886D01*
X1024509Y-34525D01*
X1024701Y-34163D01*
X1024969Y-33905D01*
X1025238Y-33853D01*
X1025506Y-33956D01*
X1025698Y-34215D01*
G01X1023500Y-16885D02*
Y-11815D01*
G01X1022505Y49200D02*
X1027185D01*
G01X1024650Y52580D02*
Y45820D01*
G01X1033272Y-63490D02*
Y-60390D01*
X1034038D01*
X1034345Y-60545D01*
X1034575Y-60752D01*
X1034767Y-61062D01*
X1034920Y-61423D01*
X1034958Y-61940D01*
X1034920Y-62457D01*
X1034767Y-62818D01*
X1034575Y-63128D01*
X1034345Y-63335D01*
X1034038Y-63490D01*
X1033272D01*
G01X1037215D02*
Y-60390D01*
X1036755Y-61010D01*
G01Y-63490D02*
X1037675D01*
G01X1040315D02*
Y-60390D01*
X1039855Y-61010D01*
G01Y-63490D02*
X1040775D01*
G01X1046007Y-57080D02*
X1046237Y-57442D01*
X1046543Y-57648D01*
X1046888Y-57700D01*
X1047195Y-57648D01*
X1047502Y-57390D01*
X1047693Y-57080D01*
X1047732Y-56770D01*
X1047655Y-56408D01*
X1047387Y-56150D01*
X1047118Y-56047D01*
X1046773D01*
G01X1047118D02*
X1047348Y-55892D01*
X1047540Y-55633D01*
X1047617Y-55323D01*
X1047540Y-55013D01*
X1047348Y-54755D01*
X1047003Y-54600D01*
X1046658Y-54652D01*
X1046313Y-54858D01*
G01X1049950Y-57803D02*
X1049873Y-57752D01*
Y-57648D01*
X1049950Y-57597D01*
X1050027Y-57648D01*
Y-57752D01*
X1049950Y-57803D01*
G01X1052207Y-57080D02*
X1052437Y-57442D01*
X1052743Y-57648D01*
X1053088Y-57700D01*
X1053395Y-57648D01*
X1053702Y-57390D01*
X1053893Y-57080D01*
X1053932Y-56770D01*
X1053855Y-56408D01*
X1053587Y-56150D01*
X1053318Y-56047D01*
X1052973D01*
G01X1053318D02*
X1053548Y-55892D01*
X1053740Y-55633D01*
X1053817Y-55323D01*
X1053740Y-55013D01*
X1053548Y-54755D01*
X1053203Y-54600D01*
X1052858Y-54652D01*
X1052513Y-54858D01*
G01X1055192Y-54600D02*
X1056150Y-57700D01*
X1057108Y-54600D01*
G01X1062350Y-57700D02*
X1062043Y-57648D01*
X1061775Y-57442D01*
X1061545Y-57132D01*
X1061392Y-56770D01*
X1061315Y-56357D01*
Y-55943D01*
X1061392Y-55530D01*
X1061545Y-55168D01*
X1061775Y-54858D01*
X1062043Y-54652D01*
X1062350Y-54600D01*
X1062657Y-54652D01*
X1062925Y-54858D01*
X1063155Y-55168D01*
X1063308Y-55530D01*
X1063385Y-55943D01*
Y-56357D01*
X1063308Y-56770D01*
X1063155Y-57132D01*
X1062925Y-57442D01*
X1062657Y-57648D01*
X1062350Y-57700D01*
G01X1064607D02*
Y-54600D01*
G01X1066063D02*
X1064607Y-56512D01*
G01X1066293Y-57700D02*
X1065258Y-55633D01*
G01X1032707Y-36950D02*
Y-33850D01*
X1033473D01*
X1033780Y-34005D01*
X1034010Y-34212D01*
X1034202Y-34522D01*
X1034355Y-34883D01*
X1034393Y-35400D01*
X1034355Y-35917D01*
X1034202Y-36278D01*
X1034010Y-36588D01*
X1033780Y-36795D01*
X1033473Y-36950D01*
X1032707D01*
G01X1036650D02*
Y-33850D01*
X1036190Y-34470D01*
G01Y-36950D02*
X1037110D01*
G01X1040210D02*
Y-33850D01*
X1038792Y-36072D01*
X1040708D01*
G01X1055683Y-274024D02*
X1055875Y-274334D01*
X1056105Y-274540D01*
X1056373Y-274644D01*
X1056680Y-274540D01*
X1056910Y-274334D01*
X1057140Y-274024D01*
X1057217Y-273610D01*
Y-271544D01*
G01X1058822Y-272060D02*
X1059052Y-271750D01*
X1059320Y-271595D01*
X1059627Y-271544D01*
X1060010Y-271647D01*
X1060278Y-271905D01*
X1060355Y-272215D01*
X1060317Y-272525D01*
X1060163Y-272784D01*
X1059397Y-273300D01*
X1059052Y-273662D01*
X1058822Y-274179D01*
X1058745Y-274644D01*
X1060355D01*
G01X1062573D02*
X1062650Y-273972D01*
X1062765Y-273404D01*
X1062918Y-272887D01*
X1063110Y-272318D01*
X1063417Y-271544D01*
X1061883D01*
G01X1055883Y-208116D02*
X1056075Y-208426D01*
X1056305Y-208632D01*
X1056573Y-208736D01*
X1056880Y-208632D01*
X1057110Y-208426D01*
X1057340Y-208116D01*
X1057417Y-207702D01*
Y-205636D01*
G01X1059022Y-206152D02*
X1059252Y-205842D01*
X1059520Y-205687D01*
X1059827Y-205636D01*
X1060210Y-205739D01*
X1060478Y-205997D01*
X1060555Y-206307D01*
X1060517Y-206617D01*
X1060363Y-206876D01*
X1059597Y-207392D01*
X1059252Y-207754D01*
X1059022Y-208271D01*
X1058945Y-208736D01*
X1060555D01*
G01X1062122Y-207444D02*
X1062390Y-207082D01*
X1062620Y-206876D01*
X1062927Y-206772D01*
X1063195Y-206876D01*
X1063387Y-207082D01*
X1063540Y-207392D01*
X1063578Y-207754D01*
X1063540Y-208064D01*
X1063387Y-208374D01*
X1063156Y-208632D01*
X1062888Y-208736D01*
X1062582Y-208632D01*
X1062313Y-208322D01*
X1062160Y-207857D01*
X1062122Y-207341D01*
X1062198Y-206669D01*
X1062313Y-206307D01*
X1062505Y-205946D01*
X1062773Y-205687D01*
X1063042Y-205636D01*
X1063310Y-205739D01*
X1063502Y-205997D01*
G01X1054283Y-141708D02*
X1054475Y-142018D01*
X1054705Y-142225D01*
X1054973Y-142328D01*
X1055280Y-142225D01*
X1055510Y-142018D01*
X1055740Y-141708D01*
X1055817Y-141295D01*
Y-139228D01*
G01X1057422Y-139745D02*
X1057652Y-139435D01*
X1057920Y-139280D01*
X1058227Y-139228D01*
X1058610Y-139331D01*
X1058878Y-139590D01*
X1058955Y-139900D01*
X1058917Y-140210D01*
X1058763Y-140468D01*
X1057997Y-140985D01*
X1057652Y-141346D01*
X1057422Y-141863D01*
X1057345Y-142328D01*
X1058955D01*
G01X1060407Y-141863D02*
X1060636Y-142121D01*
X1060905Y-142276D01*
X1061250Y-142328D01*
X1061595Y-142225D01*
X1061863Y-142018D01*
X1062055Y-141656D01*
X1062093Y-141243D01*
X1062017Y-140830D01*
X1061825Y-140571D01*
X1061556Y-140365D01*
X1061288Y-140313D01*
X1061020Y-140365D01*
X1060675Y-140571D01*
X1060790Y-139228D01*
X1061825D01*
G01X1054783Y-73700D02*
X1054975Y-74010D01*
X1055205Y-74217D01*
X1055473Y-74320D01*
X1055780Y-74217D01*
X1056010Y-74010D01*
X1056240Y-73700D01*
X1056317Y-73287D01*
Y-71220D01*
G01X1057922Y-71737D02*
X1058152Y-71427D01*
X1058420Y-71272D01*
X1058727Y-71220D01*
X1059110Y-71323D01*
X1059378Y-71582D01*
X1059455Y-71892D01*
X1059417Y-72202D01*
X1059263Y-72460D01*
X1058497Y-72977D01*
X1058152Y-73338D01*
X1057922Y-73855D01*
X1057845Y-74320D01*
X1059455D01*
G01X1060907Y-73700D02*
X1061136Y-74062D01*
X1061443Y-74268D01*
X1061788Y-74320D01*
X1062095Y-74268D01*
X1062402Y-74010D01*
X1062593Y-73700D01*
X1062632Y-73390D01*
X1062555Y-73028D01*
X1062287Y-72770D01*
X1062018Y-72667D01*
X1061673D01*
G01X1062018D02*
X1062248Y-72512D01*
X1062440Y-72254D01*
X1062517Y-71944D01*
X1062440Y-71633D01*
X1062248Y-71375D01*
X1061903Y-71220D01*
X1061558Y-71272D01*
X1061213Y-71478D01*
G01X1050907Y-42535D02*
X1051137Y-42793D01*
X1051405Y-42948D01*
X1051750Y-43000D01*
X1052095Y-42897D01*
X1052363Y-42690D01*
X1052555Y-42328D01*
X1052593Y-41915D01*
X1052517Y-41502D01*
X1052325Y-41243D01*
X1052057Y-41037D01*
X1051788Y-40985D01*
X1051520Y-41037D01*
X1051175Y-41243D01*
X1051290Y-39900D01*
X1052325D01*
G01X1053892D02*
X1054850Y-43000D01*
X1055808Y-39900D01*
G01X1061050Y-43000D02*
X1060743Y-42948D01*
X1060475Y-42742D01*
X1060245Y-42432D01*
X1060092Y-42070D01*
X1060015Y-41657D01*
Y-41243D01*
X1060092Y-40830D01*
X1060245Y-40468D01*
X1060475Y-40158D01*
X1060743Y-39952D01*
X1061050Y-39900D01*
X1061357Y-39952D01*
X1061625Y-40158D01*
X1061855Y-40468D01*
X1062008Y-40830D01*
X1062085Y-41243D01*
Y-41657D01*
X1062008Y-42070D01*
X1061855Y-42432D01*
X1061625Y-42742D01*
X1061357Y-42948D01*
X1061050Y-43000D01*
G01X1063307D02*
Y-39900D01*
G01X1064763D02*
X1063307Y-41812D01*
G01X1064993Y-43000D02*
X1063958Y-40933D01*
G54D17*
G01X825746Y63110D02*
G03I-787J0D01*
M02*
