G04 ================== begin FILE IDENTIFICATION RECORD ==================*
G04 Layout Name:  METO_STM_CRY_V0_33.brd*
G04 Film Name:    Meto_stm_cry_v0_0BOTTOM*
G04 File Format:  Gerber RS274X*
G04 File Origin:  Cadence Allegro 17.2-P019*
G04 Origin Date:  Wed Mar 30 13:20:09 2022*
G04 *
G04 Layer:  VIA CLASS/BOTTOM*
G04 Layer:  PIN/BOTTOM*
G04 Layer:  ETCH/BOTTOM*
G04 *
G04 Offset:    (0.000 0.000)*
G04 Mirror:    No*
G04 Mode:      Positive*
G04 Rotation:  0*
G04 FullContactRelief:  No*
G04 UndefLineWidth:     1.000*
G04 ================== end FILE IDENTIFICATION RECORD ====================*
%FSLAX25Y25*MOIN*%
%IR0*IPPOS*OFA0.00000B0.00000*MIA0B0*SFA1.00000B1.00000*%
%ADD23C,.11*%
%ADD10C,.135*%
%ADD27O,.05937X.11874*%
%ADD29O,.133858X.066929*%
%ADD20C,.06*%
%ADD15C,.061*%
%ADD11C,.016*%
%ADD22C,.065*%
%ADD21R,.06X.06*%
%ADD14R,.061X.061*%
%ADD24C,.060236*%
%ADD19R,.065X.065*%
%ADD18C,.051496*%
%ADD17C,.062992*%
%ADD25C,.076772*%
%ADD13C,.082677*%
%ADD28R,.051496X.051496*%
%ADD16R,.062992X.062992*%
%ADD26R,.076772X.076772*%
%ADD12R,.082677X.082677*%
%ADD30C,.008*%
%ADD31C,.01*%
%ADD40C,.130004*%
%ADD34C,.102682*%
%ADD33C,.36272*%
%ADD32O,.079374X.138744*%
%ADD38C,.080004*%
%ADD37C,.0715*%
%ADD35C,.081004*%
%ADD41C,.08024*%
%ADD39C,.085004*%
%ADD36C,.082996*%
%ADD42C,.096776*%
G75*
%LPD*%
G75*
G36*
G01X36636Y-394331D02*
G02X36434Y-393586I0J400D01*
G03X12535Y-367339I-9192J15634D01*
G02X11811Y-367105I-324J234D01*
G01Y115137D01*
G02X12535Y115371I400J0D01*
G03X30791Y143769I14707J10613D01*
G02X30586Y144444I78J392D01*
G01X31811Y145669D01*
X188188D01*
Y137598D01*
X237008D01*
Y145669D01*
X274800D01*
Y139700D01*
G03X275800Y138700I1000J0D01*
G01X281103D01*
X288277Y131526D01*
Y84019D01*
G03X290677I1200J-1342D01*
G01Y132520D01*
X282800Y140397D01*
Y145669D01*
X1041811D01*
X1042698Y144782D01*
G02X1042435Y144099I-283J-283D01*
G03X1061020Y122100I870J-18115D01*
G02X1061811Y122015I391J-86D01*
G01Y-374331D01*
X1061726Y-374416D01*
G02X1061052Y-374215I-283J283D01*
G03X1034113Y-393586I-17747J-3737D01*
G02X1033911Y-394331I-203J-345D01*
G01X36636D01*
G37*
%LPC*%
G75*
G36*
G01X577503Y-101200D02*
X477203Y-900D01*
X377797D01*
X371900Y-6797D01*
Y-113097D01*
X360697Y-124300D01*
X181103D01*
X118288Y-61485D01*
Y-10930D01*
G02X120688I1200J1342D01*
G01Y-60491D01*
X182097Y-121900D01*
X359703D01*
X369500Y-112103D01*
Y-5803D01*
X376803Y1500D01*
X478197D01*
X578497Y-98800D01*
X639984D01*
G02X639823Y-101349I3715J-1515D01*
G01X639784Y-101200D01*
X577503D01*
G37*
G36*
G01X1000360Y-102732D02*
Y-97582D01*
G02X1001360Y-96582I1000J0D01*
G01X1006510D01*
G02X1007510Y-97582I0J-1000D01*
G01Y-102732D01*
G02X1006510Y-103732I-1000J0D01*
G01X1001360D01*
G02X1000360Y-102732I0J1000D01*
G37*
G36*
G01Y-169740D02*
Y-164590D01*
G02X1001360Y-163590I1000J0D01*
G01X1006510D01*
G02X1007510Y-164590I0J-1000D01*
G01Y-169740D01*
G02X1006510Y-170740I-1000J0D01*
G01X1001360D01*
G02X1000360Y-169740I0J1000D01*
G37*
G36*
G01Y-236747D02*
Y-231598D01*
G02X1001360Y-230598I1000J0D01*
G01X1006510D01*
G02X1007510Y-231598I0J-1000D01*
G01Y-236747D01*
G02X1006510Y-237748I-1000J0D01*
G01X1001360D01*
G02X1000360Y-236747I0J1000D01*
G37*
G36*
G01Y-303755D02*
Y-298606D01*
G02X1001360Y-297606I1000J0D01*
G01X1006510D01*
G02X1007510Y-298606I0J-1000D01*
G01Y-303755D01*
G02X1006510Y-304756I-1000J0D01*
G01X1001360D01*
G02X1000360Y-303755I0J1000D01*
G37*
G36*
G01X917634Y134345D02*
Y140845D01*
G02X918634Y141845I1000J0D01*
G01X925134D01*
G02X926134Y140845I0J-1000D01*
G01Y134345D01*
G02X925134Y133345I-1000J0D01*
G01X918634D01*
G02X917634Y134345I0J1000D01*
G37*
G36*
G01X876973D02*
Y140845D01*
G02X877973Y141845I1000J0D01*
G01X884473D01*
G02X885473Y140845I0J-1000D01*
G01Y134345D01*
G02X884473Y133345I-1000J0D01*
G01X877973D01*
G02X876973Y134345I0J1000D01*
G37*
G36*
G01X228960Y-370275D02*
Y-362007D01*
G02X229960Y-361007I1000J0D01*
G01X238228D01*
G02X239228Y-362007I0J-1000D01*
G01Y-370275D01*
G02X238228Y-371275I-1000J0D01*
G01X229960D01*
G02X228960Y-370275I0J1000D01*
G37*
G36*
G01X38173Y-69252D02*
Y-60984D01*
G02X39173Y-59984I1000J0D01*
G01X47441D01*
G02X48441Y-60984I0J-1000D01*
G01Y-69252D01*
G02X47441Y-70252I-1000J0D01*
G01X39173D01*
G02X38173Y-69252I0J1000D01*
G37*
G36*
G01Y-250669D02*
Y-242402D01*
G02X39173Y-241401I1000J0D01*
G01X47441D01*
G02X48441Y-242402I0J-1000D01*
G01Y-250669D01*
G02X47441Y-251669I-1000J0D01*
G01X39173D01*
G02X38173Y-250669I0J1000D01*
G37*
G36*
G01Y-341378D02*
Y-333110D01*
G02X39173Y-332110I1000J0D01*
G01X47441D01*
G02X48441Y-333110I0J-1000D01*
G01Y-341378D01*
G02X47441Y-342378I-1000J0D01*
G01X39173D01*
G02X38173Y-341378I0J1000D01*
G37*
G36*
G01X245155Y107558D02*
X222287D01*
G02Y110158I-1245J1300D01*
G01X245155D01*
G02Y107558I1245J-1300D01*
G37*
G36*
G01X108097Y54600D02*
X229563D01*
G02Y52200I1342J-1200D01*
G01X107103D01*
X101300Y58003D01*
Y66716D01*
X99212D01*
G02X98212Y67716I0J1000D01*
G01Y74016D01*
G02X99212Y75016I1000J0D01*
G01X105512D01*
G02X106512Y74016I0J-1000D01*
G01Y67716D01*
G02X105512Y66716I-1000J0D01*
G01X103700D01*
Y58997D01*
X108097Y54600D01*
G37*
G36*
G01X312497Y19000D02*
X307200Y13703D01*
Y-34932D01*
X307345Y-34974D01*
G02X304800Y-35034I-1177J-4084D01*
G01Y14697D01*
X311503Y21400D01*
X538297D01*
X608812Y-49114D01*
X639871D01*
G02Y-51515I3828J-1200D01*
G01X607817D01*
X537303Y19000D01*
X312497D01*
G37*
G36*
G01X611303Y-61300D02*
X535503Y14500D01*
X326797D01*
X317368Y5071D01*
Y-34981D01*
G02X314968I-1200J-4077D01*
G01Y6065D01*
X325803Y16900D01*
X536497D01*
X612297Y-58900D01*
X639945D01*
G02X639850Y-61444I3754J-1415D01*
G01X639808Y-61300D01*
X611303D01*
G37*
G36*
G01X297368Y-43135D02*
Y-93450D01*
G02X294805Y-93133I-1779J-3860D01*
G01X294968Y-93102D01*
Y-43135D01*
G02X297368I1200J4077D01*
G37*
G36*
G01X284968Y1565D02*
X310103Y26700D01*
X1016797D01*
G03X1017193Y27160I0J400D01*
G02X1018368Y24300I6427J970D01*
G01X311097D01*
X287368Y571D01*
Y-34808D01*
X289418D01*
G02X290418Y-35808I0J-1000D01*
G01Y-42308D01*
G02X289418Y-43308I-1000J0D01*
G01X287368D01*
Y-93060D01*
X288839D01*
G02X289839Y-94060I0J-1000D01*
G01Y-100560D01*
G02X288839Y-101560I-1000J0D01*
G01X282339D01*
G02X281339Y-100560I0J1000D01*
G01Y-94060D01*
G02X282339Y-93060I1000J0D01*
G01X284968D01*
Y-43308D01*
X282918D01*
G02X281918Y-42308I0J1000D01*
G01Y-35808D01*
G02X282918Y-34808I1000J0D01*
G01X284968D01*
Y1565D01*
G37*
G36*
G01X612917Y-141515D02*
X477103Y-5700D01*
X378597D01*
X375900Y-8397D01*
Y-115597D01*
X362197Y-129300D01*
X179903D01*
X148703Y-98100D01*
X48266D01*
G02X48293Y-95548I-4959J1329D01*
G01X48330Y-95700D01*
X149697D01*
X180897Y-126900D01*
X361203D01*
X373500Y-114603D01*
Y-7403D01*
X377603Y-3300D01*
X478097D01*
X613912Y-139114D01*
X639871D01*
G02Y-141515I3828J-1200D01*
G01X612917D01*
G37*
G36*
G01X614917Y-151515D02*
X474903Y-11500D01*
X382897D01*
X382800Y-11597D01*
Y-118497D01*
X363697Y-137600D01*
X48230D01*
G02X48322Y-135043I-4923J1459D01*
G01X48356Y-135200D01*
X362703D01*
X380400Y-117503D01*
Y-10603D01*
X381903Y-9100D01*
X475897D01*
X615912Y-149114D01*
X639871D01*
G02Y-151515I3828J-1200D01*
G01X614917D01*
G37*
G36*
G01X801458Y-159100D02*
X771442D01*
G02Y-156700I-1342J1200D01*
G01X801458D01*
G02Y-159100I1342J-1200D01*
G37*
G36*
G01X620417Y-171515D02*
X468703Y-19800D01*
X394197D01*
X394100Y-19897D01*
Y-124197D01*
X369397Y-148900D01*
X20403D01*
X18900Y-147397D01*
Y45197D01*
X20403Y46700D01*
X38374D01*
G02X38299Y44144I4933J-1425D01*
G01X38264Y44300D01*
X21397D01*
X21300Y44203D01*
Y-146403D01*
X21397Y-146500D01*
X24737D01*
G03X25020Y-145817I0J400D01*
G01X24200Y-144997D01*
Y-45303D01*
X25703Y-43800D01*
X38440D01*
G02X38258Y-46364I4867J-1633D01*
G01X38228Y-46200D01*
X26697D01*
X26600Y-46297D01*
Y-144003D01*
X26697Y-144100D01*
X360603D01*
X386000Y-118703D01*
Y-14403D01*
X387503Y-12900D01*
X472897D01*
X619112Y-159114D01*
X639871D01*
G02Y-161515I3828J-1200D01*
G01X618117D01*
X471903Y-15300D01*
X388497D01*
X388400Y-15397D01*
Y-119697D01*
X362280Y-145817D01*
G03X362563Y-146500I283J-283D01*
G01X368403D01*
X391700Y-123203D01*
Y-18903D01*
X393203Y-17400D01*
X469697D01*
X621412Y-169114D01*
X639871D01*
G02Y-171515I3828J-1200D01*
G01X620417D01*
G37*
G36*
G01X295282Y-160200D02*
X295198Y-160199D01*
X235100Y-220297D01*
Y-240258D01*
G02X232700I-1200J-1342D01*
G01Y-219303D01*
X293501Y-158502D01*
X293500Y-158418D01*
G02X295282Y-160200I1800J18D01*
G37*
G36*
G01X862297Y-251700D02*
X883358D01*
G02Y-254100I1342J-1200D01*
G01X861303D01*
X859800Y-252597D01*
Y-159242D01*
G02X862200I1200J1342D01*
G01Y-251603D01*
X862297Y-251700D01*
G37*
G36*
G01X531503Y-265200D02*
X532400Y-264303D01*
Y-193317D01*
X536603Y-189114D01*
X639871D01*
G02Y-191515I3828J-1200D01*
G01X537597D01*
X534800Y-194312D01*
Y-265297D01*
X532497Y-267600D01*
X64303D01*
X62800Y-266097D01*
Y-167442D01*
G02X65200I1200J1342D01*
G01Y-265103D01*
X65297Y-265200D01*
X531503D01*
G37*
G36*
G01X849500Y-224414D02*
Y-268958D01*
G02X847100I-1200J-1342D01*
G01Y-225408D01*
X847003Y-225311D01*
X776886D01*
X776789Y-225408D01*
Y-243192D01*
X779428D01*
G02X780428Y-244192I0J-1000D01*
G01Y-251870D01*
G02X779428Y-252870I-1000J0D01*
G01X771750D01*
G02X770750Y-251870I0J1000D01*
G01Y-244192D01*
G02X771750Y-243192I1000J0D01*
G01X774389D01*
Y-224414D01*
X775892Y-222911D01*
X847997D01*
X849500Y-224414D01*
G37*
G36*
G01X60603Y-272400D02*
X57800Y-269597D01*
Y-174797D01*
X57703Y-174700D01*
X14503D01*
X13000Y-173197D01*
Y53797D01*
X14503Y55300D01*
X57797D01*
X59300Y53797D01*
Y25903D01*
X57797Y24400D01*
X48441D01*
Y21457D01*
G02X47441Y20456I-1000J0D01*
G01X39173D01*
G02X38173Y21457I0J1000D01*
G01Y29724D01*
G02X39173Y30724I1000J0D01*
G01X47441D01*
G02X48441Y29724I0J-1000D01*
G01Y26800D01*
X56803D01*
X56900Y26897D01*
Y52803D01*
X56803Y52900D01*
X15497D01*
X15400Y52803D01*
Y-172203D01*
X15497Y-172300D01*
X58697D01*
X60200Y-173803D01*
Y-268603D01*
X61597Y-270000D01*
X537303D01*
X537400Y-269903D01*
Y-200617D01*
X538903Y-199114D01*
X639871D01*
G02Y-201515I3828J-1200D01*
G01X539897D01*
X539800Y-201612D01*
Y-270897D01*
X538297Y-272400D01*
X60603D01*
G37*
G36*
G01X54797Y-225400D02*
X56300Y-226903D01*
Y-271603D01*
X58297Y-273600D01*
X663303D01*
X663400Y-273503D01*
Y-151612D01*
X663303Y-151515D01*
X657528D01*
G02Y-149114I-3828J1200D01*
G01X664297D01*
X665800Y-150617D01*
Y-274497D01*
X664297Y-276000D01*
X57303D01*
X53900Y-272597D01*
Y-227897D01*
X53803Y-227800D01*
X48355D01*
X48320Y-227957D01*
G02X48232Y-225400I-5013J1107D01*
G01X54797D01*
G37*
G36*
G01X45990Y-313179D02*
X82369Y-276800D01*
X667003D01*
X667100Y-276703D01*
Y-141612D01*
X667003Y-141515D01*
X657528D01*
G02Y-139114I-3828J1200D01*
G01X667997D01*
X669500Y-140617D01*
Y-277697D01*
X667997Y-279200D01*
X83363D01*
X47687Y-314876D01*
X47763Y-315009D01*
G02X45857Y-313103I-4456J-2550D01*
G01X45990Y-313179D01*
G37*
G36*
G01X138251Y-362846D02*
X128621Y-353215D01*
Y-330821D01*
X126871D01*
G02X125871Y-329821I0J1000D01*
G01Y-323721D01*
G02X126871Y-322721I1000J0D01*
G01X132971D01*
G02X133971Y-323721I0J-1000D01*
G01Y-329821D01*
G02X132971Y-330821I-1000J0D01*
G01X131221D01*
Y-352138D01*
X140090Y-361007D01*
X147519D01*
G02X148519Y-362007I0J-1000D01*
G01Y-370275D01*
G02X147519Y-371275I-1000J0D01*
G01X139252D01*
G02X138251Y-370275I0J1000D01*
G01Y-362846D01*
G37*
G36*
G01X119267Y-363547D02*
X86542Y-330821D01*
X83564D01*
G02X82564Y-329821I0J1000D01*
G01Y-323721D01*
G02X83564Y-322721I1000J0D01*
G01X89664D01*
G02X90664Y-323721I0J-1000D01*
G01Y-329821D01*
G02X90413Y-330484I-1000J0D01*
G03X90430Y-331032I300J-265D01*
G01X121106Y-361708D01*
X121238Y-361636D01*
G02X119195Y-363678I2463J-4505D01*
G01X119267Y-363547D01*
G37*
G36*
G01X853129Y-47226D02*
X847417Y-41515D01*
X657528D01*
G02Y-39114I-3828J1200D01*
G01X848412D01*
X855529Y-46232D01*
Y-322895D01*
X857379D01*
G02X858379Y-323895I0J-1000D01*
G01Y-329995D01*
G02X857379Y-330995I-1000J0D01*
G01X855629D01*
Y-358528D01*
G03X856197Y-358891I400J0D01*
G02X853420Y-361339I2732J-5898D01*
G01X853505Y-361204D01*
X853029Y-360727D01*
Y-330995D01*
X851279D01*
G02X850279Y-329995I0J1000D01*
G01Y-323895D01*
G02X851279Y-322895I1000J0D01*
G01X853129D01*
Y-47226D01*
G37*
G36*
G01X797753Y-358436D02*
X797911Y-358402D01*
Y-244818D01*
G02X800511I1300J4661D01*
G01Y-358435D01*
X800664Y-358473D01*
G02X797753Y-358436I-1535J-6316D01*
G37*
G36*
G01X777396Y-358524D02*
G02X774289Y-360450I1733J-6265D01*
G01Y-301117D01*
G02X776889I1300J4661D01*
G01Y-358139D01*
G03X777396Y-358524I400J0D01*
G37*
G36*
G01X733905Y-361204D02*
X715234Y-342532D01*
Y-244818D01*
G02X717834I1300J4661D01*
G01Y-341455D01*
X735745Y-359366D01*
G02X733820Y-361339I3584J-5423D01*
G01X733905Y-361204D01*
G37*
G36*
G01X713905D02*
X691612Y-338910D01*
Y-301117D01*
G02X694212I1300J4661D01*
G01Y-337833D01*
X715745Y-359366D01*
G02X713820Y-361339I3584J-5423D01*
G01X713905Y-361204D01*
G37*
G36*
G01X677364Y-358118D02*
G03X677866Y-358505I400J0D01*
G02X674764Y-360368I1663J-6284D01*
G01Y-332295D01*
X673014D01*
G02X672014Y-331295I0J1000D01*
G01Y-325195D01*
G02X673014Y-324195I1000J0D01*
G01X679114D01*
G02X680114Y-325195I0J-1000D01*
G01Y-331295D01*
G02X679114Y-332295I-1000J0D01*
G01X677364D01*
Y-358118D01*
G37*
G36*
G01X618309Y-357965D02*
G03X618768Y-358360I400J0D01*
G02X615709Y-359681I961J-6429D01*
G01Y-332295D01*
X613959D01*
G02X612959Y-331295I0J1000D01*
G01Y-325195D01*
G02X613959Y-324195I1000J0D01*
G01X620059D01*
G02X621059Y-325195I0J-1000D01*
G01Y-331295D01*
G02X620059Y-332295I-1000J0D01*
G01X618309D01*
Y-357965D01*
G37*
G36*
G01X555317Y-358338D02*
X556345Y-359366D01*
G02X554420Y-361339I3584J-5423D01*
G01X554505Y-361204D01*
X552717Y-359415D01*
Y-332295D01*
X550967D01*
G02X549967Y-331295I0J1000D01*
G01Y-325195D01*
G02X550967Y-324195I1000J0D01*
G01X557067D01*
G02X558067Y-325195I0J-1000D01*
G01Y-331295D01*
G02X557067Y-332295I-1000J0D01*
G01X555317D01*
Y-358338D01*
G37*
G36*
G01X498406Y-357904D02*
X497599Y-357097D01*
Y-332295D01*
X495849D01*
G02X494849Y-331295I0J1000D01*
G01Y-325195D01*
G02X495849Y-324195I1000J0D01*
G01X501949D01*
G02X502949Y-325195I0J-1000D01*
G01Y-331295D01*
G02X501949Y-332295I-1000J0D01*
G01X500199D01*
Y-356020D01*
X501430Y-357250D01*
Y-358418D01*
X501585Y-358454D01*
G02X498239Y-358570I-1455J-6335D01*
G03X498406Y-357904I-116J383D01*
G37*
G36*
G01X437207Y-358448D02*
G03X437765Y-358816I400J0D01*
G02X434820Y-361339I2564J-5973D01*
G01X434905Y-361204D01*
X434607Y-360905D01*
Y-332295D01*
X432857D01*
G02X431857Y-331295I0J1000D01*
G01Y-325195D01*
G02X432857Y-324195I1000J0D01*
G01X438957D01*
G02X439957Y-325195I0J-1000D01*
G01Y-331295D01*
G02X438957Y-332295I-1000J0D01*
G01X437207D01*
Y-358448D01*
G37*
G36*
G01X671197Y-119800D02*
X672700Y-121303D01*
Y-280897D01*
X669597Y-284000D01*
X416297D01*
X381989Y-318308D01*
Y-324195D01*
X383839D01*
G02X384839Y-325195I0J-1000D01*
G01Y-331295D01*
G02X383839Y-332295I-1000J0D01*
G01X382089D01*
Y-358068D01*
X381869Y-358288D01*
X382050Y-358469D01*
X382103Y-358482D01*
G02X379074Y-358454I-1574J-6307D01*
G01X379229Y-358418D01*
Y-357250D01*
X379489Y-356991D01*
Y-332295D01*
X377739D01*
G02X376739Y-331295I0J1000D01*
G01Y-325195D01*
G02X377739Y-324195I1000J0D01*
G01X379589D01*
Y-317314D01*
X415303Y-281600D01*
X668603D01*
X670300Y-279903D01*
Y-122297D01*
X670203Y-122200D01*
X657241D01*
G02X657653Y-119634I-3541J1886D01*
G01X657682Y-119800D01*
X671197D01*
G37*
G36*
G01X873400Y-325903D02*
X881603Y-317700D01*
X962578D01*
X971643Y-326765D01*
G03X972326Y-326482I283J283D01*
G01Y-325695D01*
G02X973326Y-324695I1000J0D01*
G01X979426D01*
G02X980426Y-325695I0J-1000D01*
G01Y-331795D01*
G02X979426Y-332795I-1000J0D01*
G01X977676D01*
Y-357904D01*
G03X978102Y-358303I400J0D01*
G02X975076Y-359282I427J-6486D01*
G01Y-332795D01*
X973326D01*
G02X972326Y-331795I0J1000D01*
G01Y-329945D01*
X971429D01*
X961584Y-320100D01*
X882597D01*
X875800Y-326897D01*
Y-375897D01*
X874297Y-377400D01*
X686242D01*
G02Y-375000I-1342J1200D01*
G01X873303D01*
X873400Y-374903D01*
Y-325903D01*
G37*
G36*
G01X902621Y-379200D02*
X913362Y-368459D01*
X913274Y-368323D01*
G02X915721Y-359027I5455J3534D01*
G01Y-332695D01*
X913971D01*
G02X912971Y-331695I0J1000D01*
G01Y-325595D01*
G02X913971Y-324595I1000J0D01*
G01X920071D01*
G02X921071Y-325595I0J-1000D01*
G01Y-331695D01*
G02X920071Y-332695I-1000J0D01*
G01X918321D01*
Y-357889D01*
G03X918722Y-358289I400J0D01*
G02X915195Y-370244I8J-6500D01*
G01X915059Y-370156D01*
X903615Y-381600D01*
X686442D01*
G02Y-379200I-1342J1200D01*
G01X902621D01*
G37*
G36*
G01X669803Y-286100D02*
X673300Y-282603D01*
Y-248334D01*
X674803Y-246831D01*
X688073D01*
Y-244192D01*
G02X689073Y-243192I1000J0D01*
G01X696751D01*
G02X697751Y-244192I0J-1000D01*
G01Y-251870D01*
G02X696751Y-252870I-1000J0D01*
G01X689073D01*
G02X688073Y-251870I0J1000D01*
G01Y-249231D01*
X675797D01*
X675700Y-249328D01*
Y-283597D01*
X670797Y-288500D01*
X422697D01*
X395100Y-316097D01*
Y-381097D01*
X393597Y-382600D01*
X325106D01*
X323602Y-381097D01*
Y-371275D01*
X320669D01*
G02X319669Y-370275I0J1000D01*
G01Y-362007D01*
G02X320669Y-361007I1000J0D01*
G01X328936D01*
G02X329937Y-362007I0J-1000D01*
G01Y-370275D01*
G02X328936Y-371275I-1000J0D01*
G01X326003D01*
Y-380103D01*
X326100Y-380200D01*
X392603D01*
X392700Y-380103D01*
Y-315103D01*
X421703Y-286100D01*
X669803D01*
G37*
G36*
G01X1021342Y-85179D02*
G02X1019081Y-84822I-1659J-3167D01*
G01X1019247Y-84794D01*
Y-84425D01*
X1018502D01*
G02Y-75732I0J4347D01*
G01X1025195D01*
G02Y-84425I0J-4347D01*
G01X1021528D01*
G03X1021342Y-85179I0J-400D01*
G37*
G36*
G01Y-152187D02*
G02X1019081Y-151830I-1659J-3167D01*
G01X1019247Y-151802D01*
Y-151433D01*
X1018502D01*
G02Y-142740I0J4347D01*
G01X1025195D01*
G02Y-151433I0J-4347D01*
G01X1021528D01*
G03X1021342Y-152187I0J-400D01*
G37*
G36*
G01X528497Y-263800D02*
X69403D01*
X67900Y-262297D01*
Y-157297D01*
X67803Y-157200D01*
X48441D01*
Y-159961D01*
G02X47441Y-160961I-1000J0D01*
G01X39173D01*
G02X38173Y-159961I0J1000D01*
G01Y-151693D01*
G02X39173Y-150693I1000J0D01*
G01X47441D01*
G02X48441Y-151693I0J-1000D01*
G01Y-154800D01*
X68797D01*
X70300Y-156303D01*
Y-255503D01*
G03X71009Y-255757I400J0D01*
G02X73742Y-255700I1391J-1143D01*
G01X74590D01*
G03X74864Y-255009I0J400D01*
G02X77442Y-252500I1236J1309D01*
G01X438203D01*
X438300Y-252403D01*
Y-211612D01*
X438203Y-211515D01*
X417371D01*
G02Y-209114I-3828J1200D01*
G01X439197D01*
X440700Y-210617D01*
Y-253397D01*
X439197Y-254900D01*
X77442D01*
G02X77336Y-255009I-1342J1200D01*
G03X77610Y-255700I275J-291D01*
G01X445188D01*
X445285Y-255603D01*
Y-201612D01*
X445188Y-201515D01*
X417371D01*
G02Y-199114I-3828J1200D01*
G01X446183D01*
X447686Y-200617D01*
Y-256597D01*
X446183Y-258100D01*
X73742D01*
G02X71009Y-258043I-1342J1200D01*
G03X70300Y-258297I-309J-254D01*
G01Y-261303D01*
X70397Y-261400D01*
X527503D01*
X527600Y-261303D01*
Y-186217D01*
X534703Y-179114D01*
X639871D01*
G02Y-181515I3828J-1200D01*
G01X535697D01*
X530000Y-187212D01*
Y-262297D01*
X528497Y-263800D01*
G37*
G36*
G01X970237Y-284299D02*
X970313Y-284303D01*
G02X968403Y-286213I-113J-1797D01*
G01X968399Y-286137D01*
X963165Y-280904D01*
Y-217780D01*
G02X965710Y-215235I1300J1245D01*
G01X987426D01*
X998861Y-203800D01*
X1032239D01*
X1034600Y-206161D01*
Y-221339D01*
X1032239Y-223700D01*
X1022998D01*
G02X1019081Y-218838I-3315J1338D01*
G01X1019247Y-218809D01*
Y-218441D01*
X1018502D01*
G02Y-209747I0J4347D01*
G01X1025195D01*
G02Y-218441I0J-4347D01*
G01X1021528D01*
G03X1021342Y-219195I0J-400D01*
G02X1023028Y-221100I-1659J-3167D01*
G01X1031161D01*
X1032000Y-220261D01*
Y-207239D01*
X1031161Y-206400D01*
X999939D01*
X988504Y-217835D01*
X965765D01*
Y-279826D01*
X970237Y-284299D01*
G37*
G36*
G01X1021342Y-286203D02*
G02X1019081Y-285846I-1659J-3167D01*
G01X1019247Y-285817D01*
Y-285448D01*
X1018502D01*
G02Y-276755I0J4347D01*
G01X1025195D01*
G02Y-285448I0J-4347D01*
G01X1021528D01*
G03X1021342Y-286203I0J-400D01*
G37*
G36*
G01X1025195Y-313795D02*
X1018502D01*
G02Y-305102I0J4347D01*
G01X1019247D01*
Y-304733D01*
X1019081Y-304704D01*
G02X1023013Y-299880I602J3524D01*
G01X1035861D01*
X1036099Y-299642D01*
Y-235790D01*
X1035861Y-235552D01*
X1022981D01*
G02X1021342Y-237339I-3298J1379D01*
G03X1021528Y-238094I186J-354D01*
G01X1025195D01*
G02Y-246787I0J-4347D01*
G01X1018502D01*
G02Y-238094I0J4347D01*
G01X1019247D01*
Y-237725D01*
X1019081Y-237697D01*
G02X1023043Y-232951I602J3524D01*
G01X1035861D01*
X1035942Y-232870D01*
Y-168704D01*
X1035703Y-168465D01*
X1023013D01*
G02X1021342Y-170332I-3330J1300D01*
G03X1021528Y-171086I186J-354D01*
G01X1025195D01*
G02Y-179779I0J-4347D01*
G01X1018502D01*
G02Y-171086I0J4347D01*
G01X1019247D01*
Y-170717D01*
X1019081Y-170689D01*
G02X1023013Y-165865I602J3524D01*
G01X1035703D01*
X1035863Y-165705D01*
Y-101696D01*
X1035625Y-101457D01*
X1023013D01*
G02X1021342Y-103324I-3330J1300D01*
G03X1021528Y-104078I186J-354D01*
G01X1025195D01*
G02Y-112771I0J-4347D01*
G01X1018502D01*
G02Y-104078I0J4347D01*
G01X1019247D01*
Y-103709D01*
X1019081Y-103681D01*
G02X1023013Y-98857I602J3524D01*
G01X1036702D01*
X1038463Y-100618D01*
Y-166782D01*
X1038081Y-167165D01*
X1038542Y-167626D01*
Y-233948D01*
X1038238Y-234252D01*
X1038700Y-234713D01*
Y-300719D01*
X1036938Y-302481D01*
X1023013D01*
G02X1021342Y-304347I-3330J1300D01*
G03X1021528Y-305102I186J-354D01*
G01X1025195D01*
G02Y-313795I0J-4347D01*
G37*
G36*
G01X833898Y-62102D02*
X821000Y-75000D01*
X791442D01*
G02X788758I-1342J1200D01*
G01X759797D01*
X759700Y-75097D01*
Y-139658D01*
G02X757300I-1200J-1342D01*
G01Y-74103D01*
X758803Y-72600D01*
X788758D01*
G02X791442I1342J-1200D01*
G01X820006D01*
X832201Y-60405D01*
X832200Y-60321D01*
G02X833982Y-62103I1800J18D01*
G01X833898Y-62102D01*
G37*
G54D40*
X360529Y-364789D03*
X420329D03*
X480129D03*
X539929D03*
X599729D03*
X659529D03*
X838929D03*
X898729D03*
X958529D03*
X1023620Y8130D03*
G54D34*
X43307Y-297874D03*
Y-278189D03*
Y-207165D03*
Y-187480D03*
Y-116457D03*
Y-25748D03*
Y-6063D03*
Y64960D03*
Y84646D03*
X84330Y-366141D03*
X104015D03*
X175039D03*
X194724D03*
X214409D03*
X265747D03*
X285432D03*
X305118D03*
G54D33*
X186005Y-298016D03*
X363305Y125984D03*
X527005Y-128516D03*
X703305Y125984D03*
X881305Y-298716D03*
G54D32*
X995667Y-94252D03*
Y-161259D03*
Y-228267D03*
Y-295275D03*
G54D38*
X278800Y112700D03*
Y102700D03*
Y132700D03*
Y122700D03*
G54D37*
X195866Y-3937D03*
X221456D03*
X1011809Y-289370D03*
Y-301180D03*
X1003935Y-289370D03*
Y-222362D03*
X1011809Y-234173D03*
Y-222362D03*
Y-167165D03*
Y-155354D03*
X1003935D03*
X1011809Y-100157D03*
Y-88346D03*
X1003935D03*
G54D35*
X101614Y-326771D03*
X144921D03*
X365789Y-328245D03*
X420907D03*
X483899D03*
X539017D03*
X602009D03*
X661064D03*
X839329Y-326945D03*
X902021Y-328645D03*
X961376Y-328745D03*
G54D41*
X403542Y-230315D03*
Y-220314D03*
Y-210314D03*
Y-200314D03*
Y-190314D03*
Y-180314D03*
Y-170314D03*
Y-160314D03*
Y-150314D03*
Y-140314D03*
Y-130314D03*
Y-120314D03*
Y-110314D03*
Y-100314D03*
Y-90314D03*
Y-80314D03*
Y-70314D03*
Y-60315D03*
Y-50314D03*
Y-40314D03*
X413543Y-230315D03*
Y-220314D03*
Y-190314D03*
Y-180314D03*
Y-170314D03*
Y-160314D03*
Y-150314D03*
Y-140314D03*
Y-130314D03*
Y-120314D03*
Y-110314D03*
Y-100314D03*
Y-90314D03*
Y-80314D03*
Y-70314D03*
Y-60315D03*
Y-50314D03*
Y-40314D03*
X653700Y-230315D03*
X643700D03*
X653700Y-220314D03*
X643700D03*
X653700Y-210314D03*
X643700D03*
X653700Y-200314D03*
Y-190314D03*
Y-180314D03*
Y-170314D03*
Y-160314D03*
Y-130314D03*
X643700D03*
Y-120314D03*
X653700Y-110314D03*
X643700D03*
X653700Y-100314D03*
Y-90314D03*
X643700D03*
X653700Y-80314D03*
X643700D03*
X653700Y-70314D03*
X643700D03*
X653700Y-60315D03*
Y-50314D03*
X643700Y-40314D03*
G54D39*
X305589Y-97310D03*
X315589D03*
X325589D03*
X326168Y-39058D03*
X871223Y137595D03*
X911884D03*
G54D36*
X112362Y80866D03*
X102362D03*
X112362Y70866D03*
X122362Y80866D03*
Y70866D03*
X132362Y80866D03*
Y70866D03*
G54D42*
X740156Y-296456D03*
Y-248031D03*
X822833Y-296456D03*
Y-248031D03*
%LPD*%
G75*
G54D10*
X27242Y-377952D03*
Y125984D03*
X186005Y-298016D03*
X363305Y125984D03*
X527005Y-128516D03*
X703305Y125984D03*
X881305Y-298716D03*
X1043305Y-377952D03*
Y125984D03*
G54D11*
X20000Y-288000D03*
X17300Y-261100D03*
X19500Y-185200D03*
X20000Y72100D03*
X21500Y97800D03*
X22000Y-333300D03*
X33100Y-236600D03*
X36300Y-197100D03*
X36800Y-165800D03*
X40300Y-260900D03*
X53900Y-127400D03*
X53400Y-105700D03*
X44000Y-80400D03*
X56000Y79000D03*
X51400Y113700D03*
X65900Y-384300D03*
X60400Y-351400D03*
X72900Y-332100D03*
X72400Y-256900D03*
X64000Y-166100D03*
X73800Y-105900D03*
X64300Y20500D03*
X71800Y67200D03*
X57800Y135400D03*
X76100Y-253700D03*
X79200Y-234900D03*
X74900Y-204300D03*
X77400Y-173800D03*
X75100Y-123900D03*
X99100Y-311200D03*
X103400Y-304300D03*
X103700Y-72500D03*
X105000Y15200D03*
X104700Y32500D03*
X116700Y-165500D03*
X122300Y-85300D03*
X123600Y-58600D03*
X119488Y-9588D03*
X124900Y44100D03*
X114400Y117000D03*
X124100Y135600D03*
X138700Y-380200D03*
X134600Y-308700D03*
X139200Y13600D03*
X143100Y80400D03*
X157400Y-341700D03*
X152200Y-288200D03*
X145900Y-65700D03*
X147800Y89500D03*
X162400Y88100D03*
X147100Y120800D03*
X148900Y137900D03*
X170300Y138700D03*
X182500Y43500D03*
X185300Y89700D03*
X184000Y82800D03*
X201400Y-223400D03*
X204000Y-157300D03*
X198500Y-116000D03*
X204500Y-131200D03*
X214600Y-105400D03*
X202700Y-17000D03*
X207600Y22100D03*
X210900Y112800D03*
X214900Y106400D03*
X226200Y-169800D03*
X220600Y-40700D03*
X224100Y-20200D03*
X230905Y53400D03*
X221042Y108858D03*
X241100Y-345300D03*
X241500Y-306100D03*
X233900Y-241600D03*
X234700Y33200D03*
X247000Y65700D03*
X238500Y88400D03*
X246400Y108858D03*
X240500Y123600D03*
X259400Y-381100D03*
X256400Y-342000D03*
X257000Y84300D03*
X268300Y102700D03*
X263100Y117000D03*
X269900Y-351800D03*
X278900Y-229800D03*
X276200Y-202000D03*
X269600Y-171400D03*
X277300Y-131100D03*
X277100Y-117100D03*
X270500Y-108100D03*
X272600Y-55800D03*
X272000Y-22700D03*
X291000Y-379600D03*
X303800Y-343700D03*
X295300Y-158400D03*
X289477Y82677D03*
X304300Y127800D03*
X305700Y-376700D03*
X311400Y-9100D03*
X309700Y6600D03*
X339900Y-387100D03*
X336000Y-113400D03*
X345200Y-367900D03*
X341900Y-344800D03*
X349800Y-286500D03*
X348000Y-175600D03*
X340600Y-159400D03*
X355400Y-100200D03*
X352900Y-35000D03*
X370700Y-194600D03*
X359400Y-54800D03*
X361000Y-35000D03*
X366400Y7600D03*
X385700Y-388900D03*
X396500Y7800D03*
X416500Y-348000D03*
X417800Y-318400D03*
X427300Y-324000D03*
X428000Y-181200D03*
X423600Y-179800D03*
X423000Y-25700D03*
X443500Y-177800D03*
X434500Y-60400D03*
X447700Y-166800D03*
X456600Y-123400D03*
X475100Y-222900D03*
X471500Y-203300D03*
X469200Y-112400D03*
X473300Y-56800D03*
X464500Y-29500D03*
X488800Y-349500D03*
X484000Y-297400D03*
X485100Y-190500D03*
X487500Y106300D03*
X510300Y-243800D03*
X516100Y-216000D03*
X505900Y-4200D03*
X518400Y-349100D03*
X527900Y-17900D03*
X533900Y-100D03*
X532900Y43000D03*
X544000Y-349200D03*
X554500Y-57300D03*
X559200Y-29500D03*
X582900Y-364700D03*
X579900Y-334900D03*
X569900Y-316400D03*
X584400Y-163700D03*
X571300Y-152200D03*
X575300Y-143200D03*
X597500Y-268000D03*
X594800Y-218600D03*
X601300Y-117000D03*
X604000Y-107300D03*
X603600Y-80700D03*
X640300Y-368200D03*
X637800Y-252000D03*
X629000Y-226000D03*
X630400Y14400D03*
X654600Y-250900D03*
X666600Y-72900D03*
X666400Y-27600D03*
X685100Y-380400D03*
X684900Y-376200D03*
X685300Y-281300D03*
X680000Y-227400D03*
X687800Y-156600D03*
X689600Y-96100D03*
X681800Y-49800D03*
X706600Y-305900D03*
X705600Y-261900D03*
X710300Y-221200D03*
X716500Y-193700D03*
X711900Y92700D03*
X740800Y-311600D03*
X738900Y-279300D03*
X732700Y-259600D03*
X736400Y-146000D03*
X732800Y-79800D03*
X736000Y60800D03*
X733600Y133400D03*
X758400Y-364700D03*
X748900Y-369500D03*
X763800Y-332800D03*
X762300Y-228300D03*
X757900Y-206100D03*
Y-169400D03*
X758500Y-141000D03*
X758300Y88500D03*
X758900Y125400D03*
X770100Y-157900D03*
X777000Y13600D03*
X777400Y45400D03*
X789100Y-354500D03*
X786600Y-234000D03*
X789600Y-180300D03*
X795900Y-142200D03*
X790100Y-73800D03*
X798300Y-13000D03*
X788500Y105000D03*
X805300Y-323600D03*
X804400Y-272300D03*
X801100Y-215400D03*
X813300Y-166500D03*
X802800Y-157900D03*
X814200Y16800D03*
X820900Y-364200D03*
X827200Y-336000D03*
X822900Y-310900D03*
X832700Y-273100D03*
X834000Y-193300D03*
X833600Y-168400D03*
X834000Y-60303D03*
X839800Y-308600D03*
X848300Y-270300D03*
X835800Y-214600D03*
X843300Y-108200D03*
X843000Y-4300D03*
X851200Y59300D03*
X862700Y-322400D03*
X861200Y-280700D03*
X861000Y-157900D03*
X866400Y-120600D03*
X867000Y-21200D03*
X861900Y23200D03*
X881900Y-360700D03*
X879500Y-277000D03*
X884700Y-252900D03*
X880200Y125900D03*
X903500Y-277800D03*
X896900Y-252000D03*
X904900Y38600D03*
X896900Y50200D03*
X892400Y88800D03*
X896400Y124700D03*
X914100Y-172200D03*
X915200Y88100D03*
X921000Y127200D03*
X933600Y-276800D03*
X925300Y-252300D03*
X938300Y-250900D03*
X936800Y-240200D03*
X930300Y-11100D03*
X934400Y112200D03*
X946100Y36300D03*
X956300Y54400D03*
X970200Y-286100D03*
X964465Y-216535D03*
X976000Y-185200D03*
X970200Y-198700D03*
X962600Y-121500D03*
X968700Y-78800D03*
X965900Y-25700D03*
X964700Y128200D03*
X981800Y-242900D03*
X986100Y-221300D03*
X991900Y-8700D03*
X988500Y21400D03*
X994300Y49700D03*
X977600Y80200D03*
X985300Y108000D03*
X995000Y-262100D03*
X998900Y-133300D03*
X1007100Y9500D03*
X999800Y30400D03*
X1025100Y-353500D03*
X1020400Y-334500D03*
X1022700Y-263600D03*
X1026500Y-227700D03*
X1017100Y-194100D03*
X1023200Y-160600D03*
X1016700Y-127300D03*
X1020800Y48300D03*
X1022900Y111600D03*
X1035200Y-339500D03*
X1044200Y-320800D03*
X1038200Y-6800D03*
X1048700Y-303100D03*
X1049100Y-263900D03*
X1053000Y-226000D03*
X1050000Y-180200D03*
X1050200Y-157200D03*
X1050100Y-138500D03*
X1053500Y-108500D03*
X1051000Y-63300D03*
X1053500Y-47300D03*
G54D20*
X278800Y112700D03*
Y102700D03*
Y132700D03*
Y122700D03*
G54D30*
G01X43307Y25590D02*
X43317Y25600D01*
X57300D01*
X58100Y26400D01*
Y53300D01*
X57300Y54100D01*
X15000D01*
X14200Y53300D01*
Y-172700D01*
X15000Y-173500D01*
X58200D01*
X59000Y-174300D01*
Y-269100D01*
X61100Y-271200D01*
X537800D01*
X538600Y-270400D01*
Y-201114D01*
X539400Y-200314D01*
X643700D01*
G01Y-170314D02*
X620914D01*
X469200Y-18600D01*
X393700D01*
X392900Y-19400D01*
Y-123700D01*
X368900Y-147700D01*
X20900D01*
X20100Y-146900D01*
Y44700D01*
X20900Y45500D01*
X43082D01*
X43307Y45276D01*
G01X37973Y-297874D02*
X43307D01*
G01X37973Y-207165D02*
X43307D01*
G01X643700Y-160314D02*
X618615D01*
X472400Y-14100D01*
X388000D01*
X387200Y-14900D01*
Y-119200D01*
X361100Y-145300D01*
X26200D01*
X25400Y-144500D01*
Y-45800D01*
X26200Y-45000D01*
X42874D01*
X43307Y-45433D01*
G01X37973Y-116457D02*
X43307D01*
G01X37973Y-25748D02*
X43307D01*
G01X37973Y64960D02*
X43307D01*
G01Y-317559D02*
X82866Y-278000D01*
X667500D01*
X668300Y-277200D01*
Y-141114D01*
X667500Y-140314D01*
X653700D01*
G01X43307Y-303208D02*
Y-297874D01*
G01D02*
Y-292540D01*
G01Y-297874D02*
X48641D01*
G01X43307Y-226850D02*
X43557Y-226600D01*
X54300D01*
X55100Y-227400D01*
Y-272100D01*
X57800Y-274800D01*
X663800D01*
X664600Y-274000D01*
Y-151114D01*
X663800Y-150314D01*
X653700D01*
G01X43307Y-212499D02*
Y-207165D01*
G01D02*
Y-201831D01*
G01Y-207165D02*
X48641D01*
G01X43307Y-155827D02*
X43480Y-156000D01*
X68300D01*
X69100Y-156800D01*
Y-261800D01*
X69900Y-262600D01*
X528000D01*
X528800Y-261800D01*
Y-186714D01*
X535200Y-180314D01*
X643700D01*
G01X43307Y-136142D02*
X43565Y-136400D01*
X363200D01*
X381600Y-118000D01*
Y-11100D01*
X382400Y-10300D01*
X475400D01*
X615415Y-150314D01*
X643700D01*
G01X43307Y-121791D02*
Y-116457D01*
G01D02*
Y-111123D01*
G01Y-116457D02*
X48641D01*
G01X43307Y-96772D02*
X43435Y-96900D01*
X149200D01*
X180400Y-128100D01*
X361700D01*
X374700Y-115100D01*
Y-7900D01*
X378100Y-4500D01*
X477600D01*
X613414Y-140314D01*
X643700D01*
G01X43307Y-31082D02*
Y-25748D01*
G01D02*
Y-20414D01*
G01Y-25748D02*
X48641D01*
G01X43307Y59626D02*
Y64960D01*
G01D02*
Y70295D01*
G01Y64960D02*
X48641D01*
G01X72400Y-256900D02*
X445686D01*
X446486Y-256100D01*
Y-201114D01*
X445686Y-200314D01*
X413543D01*
G01X643700Y-190314D02*
X537100D01*
X533600Y-193814D01*
Y-264800D01*
X532000Y-266400D01*
X64800D01*
X64000Y-265600D01*
Y-166100D01*
G01X84330Y-371475D02*
Y-366141D01*
G01D02*
Y-360807D01*
G01X78996Y-366141D02*
X84330D01*
G01D02*
X89664D01*
G01X76100Y-253700D02*
X438700D01*
X439500Y-252900D01*
Y-211114D01*
X438700Y-210314D01*
X413543D01*
G01X101614Y-331021D02*
Y-326771D01*
G01D02*
Y-322521D01*
G01X97364Y-326771D02*
X101614D01*
G01D02*
X105864D01*
G01X102362Y70866D02*
X102500Y70728D01*
Y58500D01*
X107600Y53400D01*
X230905D01*
G01X643700Y-100314D02*
X643385Y-100000D01*
X578000D01*
X477700Y300D01*
X377300D01*
X370700Y-6300D01*
Y-112600D01*
X360200Y-123100D01*
X181600D01*
X119488Y-60988D01*
Y-9588D01*
G01X144921Y-331021D02*
Y-326771D01*
G01D02*
Y-322521D01*
G01X140671Y-326771D02*
X144921D01*
G01D02*
X149171D01*
G01X132362Y76516D02*
Y80866D01*
G01D02*
Y85216D01*
G01X128012Y80866D02*
X132362D01*
G01D02*
X136712D01*
G01X175039Y-371475D02*
Y-366141D01*
G01D02*
Y-360807D01*
G01X169705Y-366141D02*
X175039D01*
G01D02*
X180373D01*
G01X233900Y-241600D02*
Y-219800D01*
X295300Y-158400D01*
G01X265747Y-371475D02*
Y-366141D01*
G01D02*
Y-360807D01*
G01X260413Y-366141D02*
X265747D01*
G01D02*
X271082D01*
G01X286168Y-39058D02*
Y-96731D01*
X285589Y-97310D01*
G01X1023620Y28130D02*
X1020990Y25500D01*
X310600D01*
X286168Y1068D01*
Y-39058D01*
G01X278800Y98500D02*
Y102700D01*
G01D02*
Y106900D01*
G01X274600Y102700D02*
X278800D01*
G01D02*
X283000D01*
G01X289477Y82677D02*
Y132023D01*
X278800Y142700D01*
G01X296168Y-39058D02*
Y-96731D01*
X295589Y-97310D01*
G01X321139D02*
X325589D01*
G01X321718Y-39058D02*
X326168D01*
G01X306168D02*
X306000Y-38890D01*
Y14200D01*
X312000Y20200D01*
X537800D01*
X608315Y-50314D01*
X643700D01*
G01Y-60315D02*
X643485Y-60100D01*
X611800D01*
X536000Y15700D01*
X326300D01*
X316168Y5568D01*
Y-39058D01*
G01X692912Y-248031D02*
X675300D01*
X674500Y-248831D01*
Y-283100D01*
X670300Y-287300D01*
X422200D01*
X393900Y-315600D01*
Y-380600D01*
X393100Y-381400D01*
X325603D01*
X324803Y-380600D01*
Y-366141D01*
G01X325589Y-101760D02*
Y-97310D01*
G01D02*
Y-92860D01*
G01Y-97310D02*
X330039D01*
G01X326168Y-43508D02*
Y-39058D01*
G01D02*
Y-34608D01*
G01Y-39058D02*
X330618D01*
G01X353829Y-364789D02*
X360529D01*
G01Y-371489D02*
Y-364789D01*
G01D02*
Y-358089D01*
G01Y-364789D02*
X367230D01*
G01X365789Y-332495D02*
Y-328245D01*
G01D02*
Y-323995D01*
G01X361539Y-328245D02*
X365789D01*
G01D02*
X370039D01*
G01X380789D02*
Y-317811D01*
X415800Y-282800D01*
X669100D01*
X671500Y-280400D01*
Y-121800D01*
X670700Y-121000D01*
X654385D01*
X653700Y-120314D01*
G01X409330Y-140314D02*
X413543D01*
G01X403542Y-134527D02*
Y-130314D01*
G01X409330D02*
X413543D01*
G01X403542D02*
Y-126102D01*
G01X399330Y-130314D02*
X403542D01*
G01D02*
X407754D01*
G01X409330Y-70314D02*
X413543D01*
G01X420329Y-371489D02*
Y-364789D01*
G01D02*
Y-358089D01*
G01X413629Y-364789D02*
X420329D01*
G01D02*
X427030D01*
G01X420907Y-332495D02*
Y-328245D01*
G01D02*
Y-323995D01*
G01X416657Y-328245D02*
X420907D01*
G01D02*
X425157D01*
G01X413543Y-134527D02*
Y-130314D01*
G01Y-144526D02*
Y-140314D01*
G01D02*
Y-136103D01*
G01Y-140314D02*
X417754D01*
G01X413543Y-130314D02*
Y-126102D01*
G01Y-130314D02*
X417754D01*
G01X413543Y-74526D02*
Y-70314D01*
G01D02*
Y-66102D01*
G01Y-70314D02*
X417754D01*
G01X480129Y-371489D02*
Y-364789D01*
G01D02*
Y-358089D01*
G01X473429Y-364789D02*
X480129D01*
G01D02*
X486830D01*
G01X479649Y-328245D02*
X483899D01*
G01Y-332495D02*
Y-328245D01*
G01D02*
Y-323995D01*
G01Y-328245D02*
X488149D01*
G01X533229Y-364789D02*
X539929D01*
G01Y-371489D02*
Y-364789D01*
G01D02*
Y-358089D01*
G01Y-364789D02*
X546630D01*
G01X539017Y-332495D02*
Y-328245D01*
G01D02*
Y-323995D01*
G01X534767Y-328245D02*
X539017D01*
G01D02*
X543267D01*
G01X599729Y-371489D02*
Y-364789D01*
G01D02*
Y-358089D01*
G01X593029Y-364789D02*
X599729D01*
G01D02*
X606430D01*
G01X602009Y-332495D02*
Y-328245D01*
G01D02*
Y-323995D01*
G01X597759Y-328245D02*
X602009D01*
G01D02*
X606259D01*
G01X639488Y-80314D02*
X643700D01*
G01X652829Y-364789D02*
X659529D01*
G01X656814Y-328245D02*
X661064D01*
G01X653700Y-194527D02*
Y-190314D01*
G01D02*
Y-186103D01*
G01X649488Y-190314D02*
X653700D01*
G01D02*
X657912D01*
G01X653700Y-134527D02*
Y-130314D01*
G01D02*
Y-126102D01*
G01X649488Y-130314D02*
X653700D01*
G01D02*
X657912D01*
G01X643700Y-84526D02*
Y-80314D01*
G01D02*
Y-76102D01*
G01Y-80314D02*
X647912D01*
G01X653700Y-40314D02*
X847915D01*
X854329Y-46729D01*
Y-326945D01*
G01X659529Y-371489D02*
Y-364789D01*
G01D02*
Y-358089D01*
G01Y-364789D02*
X666230D01*
G01X661064Y-332495D02*
Y-328245D01*
G01D02*
Y-323995D01*
G01Y-328245D02*
X665314D01*
G01X685100Y-380400D02*
X903118D01*
X918729Y-364789D01*
G01X684900Y-376200D02*
X873800D01*
X874600Y-375400D01*
Y-326400D01*
X882100Y-318900D01*
X962081D01*
X971926Y-328745D01*
X976376D01*
G01X758500Y-141000D02*
Y-74600D01*
X759300Y-73800D01*
X790100D01*
G01X848300Y-270300D02*
Y-224911D01*
X847500Y-224111D01*
X776389D01*
X775589Y-224911D01*
Y-248031D01*
G01X770100Y-157900D02*
X802800D01*
G01X834000Y-60303D02*
X820503Y-73800D01*
X790100D01*
G01X832229Y-364789D02*
X838929D01*
G01Y-371489D02*
Y-364789D01*
G01D02*
Y-358089D01*
G01Y-364789D02*
X845630D01*
G01X839329Y-331195D02*
Y-326945D01*
G01D02*
Y-322695D01*
G01X835079Y-326945D02*
X839329D01*
G01D02*
X843579D01*
G01X861000Y-157900D02*
Y-252100D01*
X861800Y-252900D01*
X884700D01*
G01X866773Y137595D02*
X871223D01*
G01Y133145D02*
Y137595D01*
G01D02*
Y142045D01*
G01Y137595D02*
X875673D01*
G01X898729Y-371489D02*
Y-364789D01*
G01D02*
Y-358089D01*
G01X892029Y-364789D02*
X898729D01*
G01D02*
X905430D01*
G01X902021Y-332895D02*
Y-328645D01*
G01D02*
Y-324395D01*
G01X897771Y-328645D02*
X902021D01*
G01D02*
X906271D01*
G01X911884Y133145D02*
Y137595D01*
G01D02*
Y142045D01*
G01X907434Y137595D02*
X911884D01*
G01D02*
X916334D01*
G01X958529Y-371489D02*
Y-364789D01*
G01D02*
Y-358089D01*
G01X951829Y-364789D02*
X958529D01*
G01D02*
X965230D01*
G01X957126Y-328745D02*
X961376D01*
G01Y-332995D02*
Y-328745D01*
G01D02*
Y-324495D01*
G01Y-328745D02*
X965626D01*
G54D12*
X43307Y-337244D03*
Y-246535D03*
Y-155827D03*
Y-65118D03*
Y25590D03*
X143385Y-366141D03*
X234094D03*
X324803D03*
G54D21*
X278800Y142700D03*
G54D31*
G01X86614Y-326771D02*
Y-329055D01*
X123700Y-366141D01*
G01X129921Y-326771D02*
Y-352677D01*
X143385Y-366141D01*
G01X221042Y108858D02*
X246400D01*
G01X380789Y-328245D02*
Y-357529D01*
X380529Y-357789D01*
Y-364789D01*
G01X435907Y-328245D02*
Y-360367D01*
X440329Y-364789D01*
G01X498899Y-328245D02*
Y-356559D01*
X500129Y-357789D01*
Y-364789D01*
G01X554017Y-328245D02*
Y-358877D01*
X559929Y-364789D01*
G01X617009Y-328245D02*
Y-362069D01*
X619729Y-364789D01*
G01X676064Y-328245D02*
Y-361324D01*
X679529Y-364789D01*
G01X692912Y-296456D02*
Y-338372D01*
X719329Y-364789D01*
G01X716534Y-240157D02*
Y-341994D01*
X739329Y-364789D01*
G01X775589Y-296456D02*
Y-361249D01*
X779129Y-364789D01*
G01X799211Y-240157D02*
Y-364707D01*
X799129Y-364789D01*
G01X854329Y-326945D02*
Y-360189D01*
X858929Y-364789D01*
G01X917021Y-328645D02*
Y-363081D01*
X918729Y-364789D01*
G01X978529D02*
X976376Y-362636D01*
Y-328745D01*
G01X964465Y-216535D02*
Y-280365D01*
X970200Y-286100D01*
G01X1019683Y-222362D02*
X1019721Y-222400D01*
X1031700D01*
X1033300Y-220800D01*
Y-206700D01*
X1031700Y-205100D01*
X999400D01*
X987965Y-216535D01*
X964465D01*
G01X1036400Y-234252D02*
X1037400Y-235252D01*
Y-300180D01*
X1036400Y-301180D01*
X1019683D01*
G01Y-234173D02*
X1019762Y-234252D01*
X1036400D01*
G01X1019683Y-167165D02*
X1036242D01*
G01X1019683Y-100157D02*
X1036163D01*
X1037163Y-101157D01*
Y-166244D01*
X1036242Y-167165D01*
G01D02*
X1037242Y-168165D01*
Y-233409D01*
X1036400Y-234252D01*
G54D13*
X43307Y-317559D03*
Y-297874D03*
Y-278189D03*
Y-226850D03*
Y-207165D03*
Y-187480D03*
Y-136142D03*
Y-116457D03*
Y-96772D03*
Y-45433D03*
Y-25748D03*
Y-6063D03*
Y45276D03*
Y64960D03*
Y84646D03*
X84330Y-366141D03*
X104015D03*
X123700D03*
X175039D03*
X194724D03*
X214409D03*
X265747D03*
X285432D03*
X305118D03*
G54D22*
X295589Y-97310D03*
X305589D03*
X296168Y-39058D03*
X306168D03*
X315589Y-97310D03*
X316168Y-39058D03*
X325589Y-97310D03*
X326168Y-39058D03*
X871223Y137595D03*
X911884D03*
G54D14*
X86614Y-326771D03*
X129921D03*
X380789Y-328245D03*
X435907D03*
X498899D03*
X554017D03*
X617009D03*
X676064D03*
X854329Y-326945D03*
X917021Y-328645D03*
X976376Y-328745D03*
G54D23*
X360529Y-364789D03*
X380529D03*
X420329D03*
X440329D03*
X480129D03*
X500129D03*
X539929D03*
X559929D03*
X599729D03*
X619729D03*
X659529D03*
X679529D03*
X719329D03*
X739329D03*
X779129D03*
X799129D03*
X838929D03*
X858929D03*
X898729D03*
X918729D03*
X958529D03*
X978529D03*
X1023620Y8130D03*
Y28130D03*
G54D24*
X403542Y-230315D03*
Y-220314D03*
Y-210314D03*
Y-200314D03*
Y-190314D03*
Y-180314D03*
Y-170314D03*
Y-160314D03*
Y-150314D03*
Y-140314D03*
Y-130314D03*
Y-120314D03*
Y-110314D03*
Y-100314D03*
Y-90314D03*
Y-80314D03*
Y-70314D03*
Y-60315D03*
Y-50314D03*
Y-40314D03*
X413543Y-230315D03*
Y-220314D03*
Y-210314D03*
Y-200314D03*
Y-190314D03*
Y-180314D03*
Y-170314D03*
Y-160314D03*
Y-150314D03*
Y-140314D03*
Y-130314D03*
Y-120314D03*
Y-110314D03*
Y-100314D03*
Y-90314D03*
Y-80314D03*
Y-70314D03*
Y-60315D03*
Y-50314D03*
Y-40314D03*
X653700Y-230315D03*
X643700D03*
X653700Y-220314D03*
X643700D03*
X653700Y-210314D03*
X643700D03*
X653700Y-200314D03*
X643700D03*
X653700Y-190314D03*
X643700D03*
X653700Y-180314D03*
X643700D03*
X653700Y-170314D03*
X643700D03*
X653700Y-160314D03*
X643700D03*
X653700Y-150314D03*
X643700D03*
X653700Y-140314D03*
X643700D03*
X653700Y-130314D03*
X643700D03*
X653700Y-120314D03*
X643700D03*
X653700Y-110314D03*
X643700D03*
X653700Y-100314D03*
X643700D03*
X653700Y-90314D03*
X643700D03*
X653700Y-80314D03*
X643700D03*
X653700Y-70314D03*
X643700D03*
X653700Y-60315D03*
X643700D03*
X653700Y-50314D03*
X643700D03*
X653700Y-40314D03*
X643700D03*
G54D15*
X101614Y-326771D03*
X144921D03*
X365789Y-328245D03*
X420907D03*
X483899D03*
X539017D03*
X602009D03*
X661064D03*
X839329Y-326945D03*
X902021Y-328645D03*
X961376Y-328745D03*
G54D16*
X102362Y70866D03*
G54D25*
X692912Y-296456D03*
X716534Y-240157D03*
X740156Y-296456D03*
Y-248031D03*
X775589Y-296456D03*
X799211Y-240157D03*
X822833Y-296456D03*
Y-248031D03*
G54D26*
X692912D03*
X775589D03*
G54D17*
X112362Y70866D03*
X102362Y80866D03*
X112362D03*
X122362Y70866D03*
Y80866D03*
X132362Y70866D03*
Y80866D03*
G54D18*
X195866Y-3937D03*
X221456D03*
X1011809Y-289370D03*
Y-301180D03*
X1003935Y-289370D03*
X1011809Y-222362D03*
Y-234173D03*
X1003935Y-222362D03*
X1011809Y-167165D03*
Y-155354D03*
X1003935D03*
X1011809Y-100157D03*
Y-88346D03*
X1003935D03*
X1019683Y-289370D03*
Y-301180D03*
Y-222362D03*
Y-234173D03*
Y-167165D03*
Y-155354D03*
Y-100157D03*
Y-88346D03*
G54D27*
X995667Y-295275D03*
Y-228267D03*
Y-161259D03*
Y-94252D03*
G54D28*
X1003935Y-301180D03*
Y-234173D03*
Y-167165D03*
Y-100157D03*
G54D19*
X285589Y-97310D03*
X286168Y-39058D03*
X881223Y137595D03*
X921884D03*
G54D29*
X1021848Y-309448D03*
Y-281102D03*
Y-242440D03*
Y-214094D03*
Y-175433D03*
Y-147086D03*
Y-108425D03*
Y-80078D03*
M02*
